<?xml version="1.0" encoding="utf-8"?>
<!-- Generator: Adobe Illustrator 19.2.1, SVG Export Plug-In . SVG Version: 6.00 Build 0)  -->
<svg version="1.1" id="Слой_1" xmlns="http://www.w3.org/2000/svg" xmlns:xlink="http://www.w3.org/1999/xlink" x="0px" y="0px"
	 viewBox="0 0 1344 529.2" style="enable-background:new 0 0 1344 529.2;" xml:space="preserve">
<style type="text/css">
	.st0{fill-rule:evenodd;clip-rule:evenodd;fill:#7BB2A0;}
	.st1{fill-rule:evenodd;clip-rule:evenodd;fill:#E8AE30;}
	.st2{fill-rule:evenodd;clip-rule:evenodd;fill:#819AC5;}
	.st3{fill-rule:evenodd;clip-rule:evenodd;fill:#E4ACCB;}
	.st4{fill-rule:evenodd;clip-rule:evenodd;fill:#B1CD49;}
	.st5{fill-rule:evenodd;clip-rule:evenodd;fill:#4F818A;}
</style>
<g>
	<path class="st0" d="M111.7,478.6c16.3-41.1,30-80.6,41.6-116.6H199l42,116.6c15.9-39.1,29.6-78.5,41.6-116.6h32.4l-25.6,55.6
		c-7.7,16.7-14.7,34.3-22.2,52.5c-6.9,17.6-13.9,36.1-21,55.7h-43.8l-41.4-116l-43.9,116h-43C62.5,492.9,51.4,463,40.8,436
		c-10.9-27.8-21.2-52.5-30.6-74h60.2L111.7,478.6z"/>
	<path class="st0" d="M327.4,447.6c0-17.6,4-33.2,11.9-46.6c8-13.5,19.4-23.9,34.2-31.2c14.9-7.3,32.4-10.9,52.6-10.9
		c15.2,0,28.9,1.9,41.1,5.5c12.1,3.7,22.6,9.1,31.4,16.3c4.3,3.6,8.2,7.6,11.5,11.7c3.2,4.2,6.1,8.9,8.4,14
		c4.7,10,6.9,21.3,6.9,33.7c0,16.9-4,32.1-11.9,45.7c-7.9,13.7-19.3,24.3-34.3,31.9c-15,7.6-33,11.4-53.7,11.4
		c-19.6,0-36.9-3.3-51.8-10c-15-6.7-26.4-16.1-34.4-28.4C331.4,478.6,327.4,464.2,327.4,447.6L327.4,447.6z M384.9,445.5
		c0,17.5,2.7,33.5,8.1,48c5.4,14.5,16.1,21.8,32.2,21.8c14.8,0,25.5-8.1,32.2-24.2c6.6-16.1,9.9-35.5,9.9-58c0-12-1.3-22.6-4-32.1
		c-2.6-9.4-6.9-16.8-12.7-22.4c-5.9-5.6-13.2-8.4-22.2-8.4c-10.8,0-19.4,3.2-25.9,9.6c-6.4,6.4-10.9,15.2-13.5,26.2
		C386.3,417.2,384.9,430.4,384.9,445.5z"/>
	<path class="st0" d="M868.5,526.3H816v-252c-1.1-47.5-3.9-89.8-29.1-121.1c48.8,3.7,78.9,39.2,81.6,121.1V526.3z"/>
	<path class="st0" d="M1037.6,362.7h54.8V388c12.8-17.4,40.8-28.4,61.9-28.4c22.7,0,45.1,9,54.7,30.9c16.5-20.6,37.3-30.9,62.3-30.9
		c22.1,0,47.5,5.4,57.9,27.4c2,4.3,3.6,9.1,4.6,14.4c1,5.3,1.6,11.2,1.6,17.6v108h-54.7v-91.8c0-22.2-4.4-50.7-31.8-50.7
		c-27,0-34,14.7-34,39.8v102.7h-54.7v-95c0-21.5-6.3-47.1-32-47.1c-22.7,0-36,13.4-36,40v102.1h-54.5V362.7z"/>
	<path class="st0" d="M921.1,525.4h52.5v-58.1c1.1-47.5,2.3-86.2,31.7-118.8c-49.4,1.4-81.5,36.9-84.2,118.8V525.4z"/>
	<path class="st1" d="M948.7,320.9c16.3,0,29.6-13.3,29.6-29.6c0-16.3-13.3-29.6-29.6-29.6c-16.3,0-29.6,13.3-29.6,29.6
		C919.1,307.6,932.4,320.9,948.7,320.9z"/>
	<path class="st2" d="M1058.7,0c73.1,45.3,76.8,113.4,11.8,167.1C985.6,129.4,985.2,60.1,1058.7,0z"/>
	<path class="st3" d="M1239.6,142c-29.2,89.1-91.1,103.2-169,25.1C1100.5,83.7,1158.5,79.9,1239.6,142z"/>
	<path class="st1" d="M1070.5,167.1c90.9,14.2,122.8,63.9,95.8,148.9C1059.1,317.4,1027.1,267.8,1070.5,167.1z"/>
	<path class="st4" d="M901.5,135.1c73.4-79.8,131.2-70.1,169,31.9C1007,222.9,942.8,211.3,901.5,135.1z"/>
	<path class="st0" d="M559,447.6c0-17.6,4-33.2,11.9-46.6c8-13.5,19.4-23.9,34.2-31.2c14.9-7.3,32.4-10.9,52.6-10.9
		c15.2,0,28.9,1.9,41.1,5.5c12.1,3.7,22.6,9.1,31.4,16.3c4.3,3.6,8.2,7.6,11.5,11.7c3.2,4.2,6.1,8.9,8.4,14
		c4.7,10,6.9,21.3,6.9,33.7c0,16.9-4,32.1-11.9,45.7c-7.9,13.7-19.3,24.3-34.3,31.9c-15,7.6-33,11.4-53.7,11.4
		c-19.6,0-36.9-3.3-51.8-10c-15-6.7-26.4-16.1-34.4-28.4C563,478.6,559,464.2,559,447.6L559,447.6z M616.5,445.5
		c0,17.5,2.7,33.5,8.1,48c5.4,14.5,16.1,21.8,32.2,21.8c14.8,0,25.5-8.1,32.2-24.2c6.6-16.1,9.9-35.5,9.9-58c0-12-1.3-22.6-4-32.1
		c-2.6-9.4-6.9-16.8-12.7-22.4c-5.9-5.6-13.2-8.4-22.2-8.4c-10.8,0-19.4,3.2-25.9,9.6c-6.4,6.4-10.9,15.2-13.5,26.2
		C617.9,417.2,616.5,430.4,616.5,445.5z"/>
	<g>
		<path class="st5" d="M1070.6,167.1c10.8-29.9,25.1-49.5,42.8-59.6C1107.4,128,1093.1,148.4,1070.6,167.1z"/>
		<path class="st5" d="M1070.6,167.1c47.3,7.4,78.6,24.4,94,51C1137.5,218.7,1105.7,202.2,1070.6,167.1z"/>
		<path class="st5" d="M1005.3,84.4c25.8,7.8,47.7,35.3,65.2,82.7C1024.5,146.6,1003.3,116.9,1005.3,84.4z"/>
	</g>
</g>
</svg>
