<?xml version="1.0" encoding="utf-8"?>
<!-- Generator: Adobe Illustrator 19.2.1, SVG Export Plug-In . SVG Version: 6.00 Build 0)  -->
<svg version="1.1" id="Слой_1" xmlns="http://www.w3.org/2000/svg" xmlns:xlink="http://www.w3.org/1999/xlink" x="0px" y="0px"
	 viewBox="0 0 1351.7 737.2" style="enable-background:new 0 0 1351.7 737.2;" xml:space="preserve">
<style type="text/css">
	.st0{fill-rule:evenodd;clip-rule:evenodd;fill:#7BB2A0;}
	.st1{fill-rule:evenodd;clip-rule:evenodd;fill:#E8AE30;}
	.st2{fill-rule:evenodd;clip-rule:evenodd;fill:#819AC5;}
	.st3{fill-rule:evenodd;clip-rule:evenodd;fill:#E4ACCB;}
	.st4{fill-rule:evenodd;clip-rule:evenodd;fill:#B1CD49;}
	.st5{fill-rule:evenodd;clip-rule:evenodd;fill:#4F818A;}
</style>
<g>
	<path class="st0" d="M127.9,576.4c16.3-41.1,30-80.6,41.6-116.6h45.8l42,116.6c15.9-39.1,29.6-78.5,41.6-116.6h32.4l-25.6,55.6
		c-7.7,16.7-14.7,34.3-22.2,52.5c-6.9,17.6-13.9,36.1-21,55.7h-43.8l-41.4-116l-43.9,116h-43c-11.7-32.9-22.9-62.8-33.4-89.7
		c-10.9-27.8-21.2-52.5-30.6-74h60.2L127.9,576.4z"/>
	<path class="st0" d="M343.7,545.4c0-17.6,4-33.2,11.9-46.6c8-13.5,19.4-23.9,34.2-31.2c14.9-7.3,32.4-10.9,52.6-10.9
		c15.2,0,28.9,1.9,41.1,5.5c12.1,3.7,22.6,9.1,31.4,16.3c4.3,3.6,8.2,7.6,11.5,11.7c3.2,4.2,6.1,8.9,8.4,14
		c4.7,10,6.9,21.3,6.9,33.7c0,16.9-4,32.1-11.9,45.7c-7.9,13.7-19.3,24.3-34.3,31.9c-15,7.6-33,11.4-53.7,11.4
		c-19.6,0-36.9-3.3-51.8-10c-15-6.7-26.4-16.1-34.4-28.4C347.6,576.3,343.7,561.9,343.7,545.4L343.7,545.4z M401.2,543.3
		c0,17.5,2.7,33.5,8.1,48c5.4,14.5,16.1,21.8,32.2,21.8c14.8,0,25.5-8.1,32.2-24.2c6.6-16.1,9.9-35.5,9.9-58c0-12-1.3-22.6-4-32.1
		c-2.6-9.4-6.9-16.8-12.7-22.4c-5.9-5.6-13.2-8.4-22.2-8.4c-10.8,0-19.4,3.2-25.9,9.6c-6.4,6.4-10.9,15.2-13.5,26.2
		C402.5,515,401.2,528.1,401.2,543.3z"/>
	<path class="st0" d="M884.8,624h-52.5V372c-1.1-47.5-3.9-89.8-29.1-121.1c48.8,3.7,78.9,39.2,81.6,121.1V624z"/>
	<path class="st0" d="M1053.9,460.5h54.8v25.3c12.8-17.4,40.8-28.4,61.9-28.4c22.7,0,45.1,9,54.7,30.9
		c16.5-20.6,37.3-30.9,62.3-30.9c22.1,0,47.5,5.4,57.9,27.4c2,4.3,3.6,9.1,4.6,14.4c1,5.3,1.6,11.2,1.6,17.6v108H1297v-91.8
		c0-22.2-4.4-50.7-31.8-50.7c-27,0-34,14.7-34,39.8v102.7h-54.7v-95c0-21.5-6.3-47.1-32-47.1c-22.7,0-36,13.4-36,40v102.1h-54.5
		V460.5z"/>
	<path class="st0" d="M937.3,623.2h52.5v-58.1c1.1-47.5,2.3-86.2,31.7-118.8c-49.4,1.4-81.5,36.9-84.2,118.8V623.2z"/>
	<path class="st1" d="M964.9,418.6c16.3,0,29.6-13.3,29.6-29.6c0-16.3-13.3-29.6-29.6-29.6c-16.3,0-29.6,13.3-29.6,29.6
		C935.3,405.3,948.6,418.6,964.9,418.6z"/>
	<path class="st2" d="M1075,97.8c73.1,45.3,76.8,113.4,11.8,167.1C1001.9,227.1,1001.5,157.9,1075,97.8z"/>
	<path class="st3" d="M1255.8,239.8c-29.2,89.1-91.1,103.2-169,25.1C1116.8,181.5,1174.7,177.7,1255.8,239.8z"/>
	<path class="st1" d="M1086.8,264.8c90.9,14.2,122.8,63.9,95.8,148.9C1075.3,415.2,1043.4,365.6,1086.8,264.8z"/>
	<path class="st4" d="M917.7,232.9c73.4-79.8,131.2-70.1,169,31.9C1023.2,320.7,959,309,917.7,232.9z"/>
	<path class="st0" d="M575.3,545.4c0-17.6,4-33.2,11.9-46.6c8-13.5,19.4-23.9,34.2-31.2c14.9-7.3,32.4-10.9,52.6-10.9
		c15.2,0,28.9,1.9,41.1,5.5c12.1,3.7,22.6,9.1,31.4,16.3c4.3,3.6,8.2,7.6,11.5,11.7c3.2,4.2,6.1,8.9,8.4,14
		c4.7,10,6.9,21.3,6.9,33.7c0,16.9-4,32.1-11.9,45.7c-7.9,13.7-19.3,24.3-34.3,31.9c-15,7.6-33,11.4-53.7,11.4
		c-19.6,0-36.9-3.3-51.8-10c-15-6.7-26.4-16.1-34.4-28.4C579.2,576.3,575.3,561.9,575.3,545.4L575.3,545.4z M632.8,543.3
		c0,17.5,2.7,33.5,8.1,48c5.4,14.5,16.1,21.8,32.2,21.8c14.8,0,25.5-8.1,32.2-24.2c6.6-16.1,9.9-35.5,9.9-58c0-12-1.3-22.6-4-32.1
		c-2.6-9.4-6.9-16.8-12.7-22.4c-5.9-5.6-13.2-8.4-22.2-8.4c-10.8,0-19.4,3.2-25.9,9.6c-6.4,6.4-10.9,15.2-13.5,26.2
		C634.1,515,632.8,528.1,632.8,543.3z"/>
	<g>
		<path class="st5" d="M1086.8,264.8c10.8-29.9,25.1-49.5,42.8-59.6C1123.7,225.8,1109.4,246.2,1086.8,264.8z"/>
		<path class="st5" d="M1086.8,264.8c47.3,7.4,78.6,24.4,94,51C1153.7,316.5,1121.9,300,1086.8,264.8z"/>
		<path class="st5" d="M1021.5,182.1c25.8,7.8,47.7,35.3,65.2,82.7C1040.8,244.4,1019.6,214.7,1021.5,182.1z"/>
	</g>
</g>
</svg>
