<?xml version="1.0" encoding="utf-8"?>
<!-- Generator: Adobe Illustrator 19.2.1, SVG Export Plug-In . SVG Version: 6.00 Build 0)  -->
<svg version="1.1" id="Layer_1" xmlns="http://www.w3.org/2000/svg" xmlns:xlink="http://www.w3.org/1999/xlink" x="0px" y="0px"
	 viewBox="0 0 1000 1000" style="enable-background:new 0 0 1000 1000;" xml:space="preserve">
<style type="text/css">
	.st0{fill-rule:evenodd;clip-rule:evenodd;fill:#FF0000;}
</style>
<g>
	<path class="st0" d="M-903,994.3h-123.9l-18.4,44.1c-2.5,6.1-3.8,10.9-3.8,14.5c0,6.7,4.5,11.4,13.4,14v7.4h-90.2v-7.4
		c5.3-1.2,9.4-3.4,12.2-6.4c2.8-3.1,6-9,9.6-17.9l100.4-240.8c3.2-7.7,4.8-13.8,4.8-18.4c0-7-3.9-12.1-11.6-15.2v-7.5h96.8v7.5
		c-7.9,2.6-11.8,7.1-11.8,13.5c0,4.4,1.3,9.5,3.8,15.2l104,241.5c4.4,10.3,8.3,17.3,11.6,21c3.3,3.8,7.8,6.2,13.4,7.5v7.4h-100.8
		v-7.4c8.8-1.7,13.2-6.4,13.2-14.2c0-3.2-1.3-8-4-14.2L-903,994.3L-903,994.3z M1885.6,859.5v190.5c0,4.7,0.9,8.3,2.8,10.8
		c1.9,2.4,5.2,4.4,10.1,6l0,7.4H1818v-7.4c4.8-1.5,8.2-3.5,10.1-6c1.9-2.5,2.8-6,2.8-10.8V784.7c0-4.6-0.9-8.1-2.8-10.6
		c-1.9-2.4-5.2-4.4-10.1-6v-7.5h93v7.5c-5.7,1.7-8.6,5.2-8.6,10.6c0,3.7,1.9,7.7,5.6,12.2l150.5,179.8v-186c0-4.6-1-8.1-2.8-10.6
		c-1.9-2.4-5.2-4.4-10.1-6l0-7.5h80.5v7.5c-4.8,1.5-8.2,3.5-10.1,6c-1.9,2.4-2.8,6-2.8,10.6l0,265.4c0,4.7,0.9,8.3,2.8,10.8
		c1.9,2.4,5.2,4.4,10.1,6v7.4H2040v-7.4c5.6-1.4,8.4-4.7,8.4-9.9c0-3.1-3.3-8.4-9.8-16.1L1885.6,859.5L1885.6,859.5z M1574.5,853.9
		l-62.6,180.6c-3.6,9.2-5.4,15-5.4,17.5c0,7,4.9,12,14.8,14.9l0,7.4h-87.6v-7.4c8.9-2,13.4-7.2,13.4-15.6c0-2.3-1.9-9.1-5.6-20.4
		l-78.1-231.2c-3.9-11.5-7.4-19.2-10.5-23.3c-3.1-4.1-7.7-6.8-13.7-8.1l0-7.5h94.8v7.5c-8.4,2.1-12.6,6.7-12.6,13.5
		c0,3.5,1.1,8.6,3.2,15.2l53.9,165.6l58.4-166.5c2.5-7.2,3.8-11.9,3.8-14.2c0-7-4.5-11.6-13.4-13.5v-7.5h99.2v7.5
		c-9.1,2.8-13.6,7.7-13.6,14.9c0,2.4,1.1,7,3.4,13.8l55.5,165.6l53.7-162.9c2.8-8.1,4.2-14.2,4.2-18.1c0-6.7-4.8-11.2-14.4-13.3
		v-7.5h93.8v7.5c-6.7,2.1-11.3,4.9-13.8,8.3c-2.5,3.4-5.9,11.1-10,23.2l-78.1,231.2c-3.7,11-5.6,18.4-5.6,22c0,7.5,4.7,12.2,14.2,14
		l0,7.4h-88.9v-7.4c9.3-1.7,14-6.8,14-15.4c0-2.9-2.1-9.8-6.2-20.7L1574.5,853.9L1574.5,853.9z M1084.6,831.3
		c26.8-49.8,72-75.1,135.5-76c47.6,0,85.4,14.8,113.3,44.3c29.5,30.9,44.2,70.9,44.2,119.9c0,30-7.1,58-21.2,84.1
		c-27.6,50.8-72.9,76.2-135.9,76.2c-47.2,0-84.8-14.8-112.7-44.3c-14.9-15.8-26.3-34.7-34-56.7c-6.8-19.4-10.2-39.9-10.2-61.3
		C1063.5,886,1070.5,857.3,1084.6,831.3L1084.6,831.3z M1285.9,835.3c-17.5-17.4-39.4-26.3-65.6-26.6c-26,0-47.7,8.9-65,26.6
		c-20.5,20.9-30.8,48.3-30.8,82.3c0,33.9,10.3,61.3,30.8,82.3c17.3,17.7,39.2,26.6,65.4,26.6c26.3,0,48-8.9,65.2-26.6
		c10.3-10.5,18.1-23.4,23.6-38.7c4.8-13.6,7.2-27.6,7.2-42.2C1316.7,883.5,1306.5,855.6,1285.9,835.3L1285.9,835.3z M965.1,812.4
		v237.7c0,4.7,0.9,8.3,2.8,10.8c1.9,2.4,5.2,4.4,10.1,6v7.4h-85.5v-7.4c4.8-1.5,8.2-3.5,10.1-6c1.9-2.5,2.8-6.1,2.8-10.8l0-237.7
		h-84.8c-4,0-7.1,1-9.2,3.1c-2.1,2.1-3.9,5.9-5.2,11.5h-6.5v-81h6.5c1.5,5.6,3.2,9.4,5.3,11.5c2.1,2.1,5.1,3.2,9.1,3.2l228.9,0
		c4.1,0,7.3-1.1,9.4-3.2c2.1-2.1,3.9-5.9,5.2-11.5l6.5,0v81h-6.5c-1.3-5.6-3.1-9.4-5.2-11.5c-2.1-2.1-5.3-3.1-9.4-3.1L965.1,812.4
		L965.1,812.4z M115.7,936.6v86h175.5c4,0,7.1-1.1,9.2-3.2c2.1-2.1,3.9-6,5.2-11.5h6.5v81h-6.5c-1.3-5.5-3.1-9.3-5.2-11.5
		c-2.1-2.1-5.2-3.2-9.2-3.2l-248,0v-7.4c4.8-1.5,8.2-3.5,10.1-6c1.9-2.5,2.8-6,2.8-10.8V784.9c0-4.7-0.9-8.3-2.8-10.8
		c-1.9-2.4-5.2-4.4-10.1-6v-7.5h243.3c4,0,7.1-1.1,9.2-3.3c2.1-2.2,3.9-6,5.2-11.4l6.5,0v81h-6.5c-1.3-5.4-3.1-9.2-5.2-11.4
		c-2.1-2.2-5.2-3.3-9.2-3.3l-170.7,0v74.3h110.8c4,0,7.1-1.1,9.2-3.2c2.1-2.1,3.9-6,5.2-11.5l6.5,0v79.3H241
		c-1.3-5.3-3.1-9.1-5.2-11.3c-2.1-2.2-5.2-3.3-9.2-3.3L115.7,936.6L115.7,936.6z M-154.5,1022.6H13.3c4.1,0,7.3-1.1,9.4-3.2
		c2.1-2.1,3.9-6,5.2-11.5h6.5v81h-6.5c-1.3-5.5-3.1-9.3-5.2-11.5c-2.1-2.1-5.3-3.2-9.4-3.2l-240.3,0v-7.4c4.8-1.5,8.2-3.5,10.1-6
		c1.9-2.5,2.8-6,2.8-10.8V784.9c0-4.7-0.9-8.3-2.8-10.8c-1.9-2.4-5.2-4.4-10.1-6v-7.5h85.5v7.5c-4.8,1.4-8.2,3.3-10.1,5.9
		c-1.9,2.5-2.8,6.2-2.8,10.9V1022.6L-154.5,1022.6z M-431.2,947.1v103.2c0,4.6,1,8.2,2.9,10.7c2,2.5,5.3,4.5,10,5.9v7.4h-85.5v-7.4
		c4.8-1.5,8.2-3.5,10.1-6c1.9-2.5,2.8-6,2.8-10.6l0-265.4c0-4.7-0.9-8.3-2.8-10.8c-1.9-2.4-5.3-4.4-10.1-6v-7.5h170.6
		c19.9,0,35.7,1.5,47.3,4.6c11.7,3.1,22,8.4,30.9,15.9c9.2,7.8,16.4,18.1,21.6,30.8c5.2,13.2,7.8,27.1,7.8,41.8
		c0,21.1-4.9,39.7-14.8,55.6c-8.5,13.6-19.8,23.3-33.9,29.1c-14.1,5.7-33.7,8.6-58.9,8.6H-431.2L-431.2,947.1z M-431.2,895.4h91
		c18.1,0,30.9-2.2,38.2-6.7c4.7-2.9,8.4-7.5,11.3-13.9c2.9-6.4,4.3-13.4,4.3-21c0-7.5-1.4-14.4-4.3-20.8c-2.9-6.4-6.6-11-11.3-13.9
		c-7.2-4.4-19.9-6.7-38.2-6.7l-91,0V895.4L-431.2,895.4z M-708.9,947.1v103.2c0,4.6,1,8.2,2.9,10.7c2,2.5,5.3,4.5,10,5.9v7.4h-85.5
		v-7.4c4.8-1.5,8.2-3.5,10.1-6c1.9-2.5,2.8-6,2.8-10.6V784.9c0-4.7-0.9-8.3-2.8-10.8c-1.9-2.4-5.2-4.4-10.1-6v-7.5h170.6
		c19.9,0,35.7,1.5,47.4,4.6c11.7,3.1,22,8.4,30.9,15.9c9.2,7.8,16.4,18.1,21.6,30.8c5.2,13.2,7.8,27.1,7.8,41.8
		c0,21.1-4.9,39.7-14.8,55.6c-8.5,13.6-19.8,23.3-33.9,29.1c-14.1,5.7-33.7,8.6-58.9,8.6H-708.9L-708.9,947.1z M-708.9,895.4h91
		c18.1,0,30.9-2.2,38.2-6.7c4.7-2.9,8.4-7.5,11.3-13.9c2.9-6.4,4.3-13.4,4.3-21c0-7.5-1.4-14.4-4.3-20.8c-2.9-6.4-6.6-11-11.3-13.9
		c-7.2-4.4-19.9-6.7-38.2-6.7l-91,0V895.4L-708.9,895.4z M-920.2,951.3L-964.4,840l-44.7,111.3H-920.2z"/>
	<path class="st0" d="M2091.8,1177.5c0,0-0.1-20.8-13-29.4c-5.1-4-4.3,1.4-4.3,1.8c0,0.4-1.1,18.3,13.8,28.1
		C2088.4,1178,2091.3,1180.4,2091.8,1177.5L2091.8,1177.5z M550,1176.7c0,0,10.1-15.9,24.4-14.6c8.2-0.5,0.3,7.2,0.3,7.2
		c0,0-7.3,10-22,10.1c-0.3,0.2-0.6,0.3-0.8,0.5c-14.6,8.2-54.9-8-75.1-0.3c-34.8,11.9-42.1,30.2-46.2,34.2c-1.2,1.2-2.2,0.9-2.6,0.2
		c-0.5-0.9,0-1.8,0-1.8c10.1-17.5,31.6-29.6,41.8-33.7c11.6-4.1,21.6-6.1,46.7-1.3c21.9,3.7,31.7,1,33,0.6
		C549.6,1177.2,550,1176.7,550,1176.7L550,1176.7z M555.5,1183.7c0,0,16.4,0.3,23.5,8.6c7.1,8.3,0.6,4.1-7.7,3.9
		c-9.8-1-14.1-7.8-15.4-9.2C554.6,1185.7,553.8,1184.2,555.5,1183.7L555.5,1183.7z M528.3,1183.6c0,0,17,2.6,23.1,12.3
		c6.1,9.6-0.1,3.4-8.5,2.9c-8.5-0.4-12.9-10.3-14.1-11.9C527.6,1185.2,525.3,1183.2,528.3,1183.6L528.3,1183.6z M510.5,1172.7
		c0,0,13.4-13.3,25.6-12.8c10.8,0.1,3.2,3.9-3.3,9.3c-8,6.2-17,5-19.1,5C511.5,1174.3,509.1,1174.1,510.5,1172.7L510.5,1172.7z
		 M511,1148.8c0,0-13.3,0-23.1,18.1c-4.2,7.6,1.9,5.3,1.9,5.3s16.2-3.7,23.6-20.7C514.4,1148.5,511,1148.8,511,1148.8L511,1148.8z
		 M518,1209.8c0,0-14.5-7.9-16.4-23.9c-0.9-6.3,3.2-2.6,3.2-2.6s14.7,8.4,15.3,24.2C520,1207.5,520.5,1210.9,518,1209.8L518,1209.8z
		 M491.9,1219.8c0,0-15.8-10.2-17.4-26.4c-1.2-7,3.6-3.1,3.6-3.1c0,0,16,9.1,16.1,26.9C494.2,1217.2,494.6,1221,491.9,1219.8
		L491.9,1219.8z M457.4,1178c0,0,0.1-20.8,13-29.4c5.1-3.9,4.3,1.4,4.3,1.8c0,0.4,1.1,18.3-13.8,28.1
		C460.8,1178.5,457.9,1180.9,457.4,1178L457.4,1178z M380.7,1176.7c0,0,10.1-15.9,24.4-14.6c8.2-0.5,0.3,7.2,0.3,7.2
		c0,0-7.3,10-22,10.1c-0.3,0.2-0.6,0.3-0.8,0.5c-14.6,8.2-54.9-8-75.1-0.3c-34.8,11.9-42.1,30.2-46.2,34.2c-1.2,1.2-2.2,0.9-2.6,0.2
		c-0.5-0.9,0-1.8,0-1.8c10.1-17.5,31.6-29.6,41.8-33.7c11.6-4.1,21.6-6.1,46.7-1.3c21.9,3.7,31.7,1,33,0.6
		C380.3,1177.2,380.7,1176.7,380.7,1176.7L380.7,1176.7z M386.2,1183.7c0,0,16.4,0.3,23.5,8.6c7.1,8.3,0.6,4.1-7.7,3.9
		c-9.8-1-14.1-7.8-15.4-9.2C385.3,1185.7,384.5,1184.2,386.2,1183.7L386.2,1183.7z M359,1183.6c0,0,17,2.6,23.1,12.3
		c6.1,9.6-0.1,3.4-8.5,2.9c-8.5-0.4-12.9-10.3-14.1-11.9C358.3,1185.2,356,1183.2,359,1183.6L359,1183.6z M341.1,1172.7
		c0,0,13.4-13.3,25.6-12.8c10.8,0.1,3.2,3.9-3.3,9.3c-8,6.2-17,5-19.1,5C342.2,1174.3,339.8,1174.1,341.1,1172.7L341.1,1172.7z
		 M341.7,1148.8c0,0-13.3,0-23.1,18.1c-4.3,7.6,1.9,5.3,1.9,5.3s16.2-3.7,23.6-20.7C345.1,1148.5,341.7,1148.8,341.7,1148.8
		L341.7,1148.8z M348.7,1209.8c0,0-14.5-7.9-16.4-23.9c-0.9-6.3,3.2-2.6,3.2-2.6s14.7,8.4,15.3,24.2
		C350.7,1207.5,351.2,1210.9,348.7,1209.8L348.7,1209.8z M322.6,1219.8c0,0-15.8-10.2-17.4-26.4c-1.2-7,3.6-3.1,3.6-3.1
		c0,0,16,9.1,16.1,26.9C324.9,1217.2,325.3,1221,322.6,1219.8L322.6,1219.8z M288.1,1178c0,0,0.1-20.8,13-29.4
		c5.1-3.9,4.3,1.4,4.3,1.8c0,0.4,1.1,18.3-13.8,28.1C291.5,1178.5,288.6,1180.9,288.1,1178L288.1,1178z M207.3,1176.7
		c0,0,10.1-15.9,24.4-14.6c8.2-0.5,0.3,7.2,0.3,7.2c0,0-7.3,10-22,10.1c-0.3,0.2-0.6,0.3-0.8,0.5c-14.6,8.2-54.9-8-75.1-0.3
		c-34.8,11.9-42.1,30.2-46.2,34.2c-1.2,1.2-2.2,0.9-2.6,0.2c-0.5-0.9,0-1.8,0-1.8c10.1-17.5,31.6-29.6,41.8-33.7
		c11.6-4.1,21.6-6.1,46.7-1.3c21.9,3.7,31.7,1,33,0.6C206.8,1177.2,207.3,1176.7,207.3,1176.7L207.3,1176.7z M212.8,1183.7
		c0,0,16.4,0.3,23.5,8.6c7.1,8.3,0.6,4.1-7.7,3.9c-9.8-1-14.1-7.8-15.4-9.2C211.8,1185.7,211.1,1184.2,212.8,1183.7L212.8,1183.7z
		 M185.5,1183.6c0,0,17,2.6,23.1,12.3c6.1,9.6-0.1,3.4-8.5,2.9c-8.5-0.4-12.9-10.3-14.1-11.9
		C184.9,1185.2,182.6,1183.2,185.5,1183.6L185.5,1183.6z M167.7,1172.7c0,0,13.4-13.3,25.6-12.8c10.8,0.1,3.2,3.9-3.3,9.3
		c-8.1,6.2-17,5-19.1,5C168.8,1174.3,166.3,1174.1,167.7,1172.7L167.7,1172.7z M168.2,1148.8c0,0-13.3,0-23.1,18.1
		c-4.3,7.6,1.9,5.3,1.9,5.3s16.2-3.7,23.6-20.7C171.7,1148.5,168.2,1148.8,168.2,1148.8L168.2,1148.8z M175.2,1209.8
		c0,0-14.5-7.9-16.4-23.9c-0.9-6.3,3.2-2.6,3.2-2.6s14.7,8.4,15.3,24.2C177.3,1207.5,177.8,1210.9,175.2,1209.8L175.2,1209.8z
		 M149.1,1219.8c0,0-15.8-10.2-17.4-26.4c-1.2-7,3.6-3.1,3.6-3.1c0,0,16,9.1,16.1,26.9C151.5,1217.2,151.9,1221,149.1,1219.8
		L149.1,1219.8z M114.6,1178c0,0,0.1-20.8,13-29.4c5.1-3.9,4.3,1.4,4.3,1.8c0,0.4,1.1,18.3-13.8,28.1
		C118.1,1178.5,115.2,1180.9,114.6,1178L114.6,1178z M33.9,1176.7c0,0,10.1-15.9,24.4-14.6c8.2-0.5,0.3,7.2,0.3,7.2
		c0,0-7.3,10-22,10.1c-0.3,0.2-0.6,0.3-0.8,0.5c-14.6,8.2-55-8-75.1-0.3c-34.8,11.9-42.1,30.2-46.2,34.2c-1.2,1.2-2.2,0.9-2.6,0.2
		c-0.5-0.9,0-1.8,0-1.8c10.1-17.5,31.6-29.6,41.8-33.7c11.6-4.1,21.6-6.1,46.8-1.3c21.9,3.7,31.8,1,33,0.6
		C33.4,1177.2,33.9,1176.7,33.9,1176.7L33.9,1176.7z M39.3,1183.7c0,0,16.4,0.3,23.5,8.6c7.1,8.3,0.6,4.1-7.7,3.9
		c-9.8-1-14.1-7.8-15.4-9.2C38.4,1185.7,37.6,1184.2,39.3,1183.7L39.3,1183.7z M12.1,1183.6c0,0,17,2.6,23.1,12.3
		c6.1,9.6-0.1,3.4-8.5,2.9c-8.5-0.4-13-10.3-14.1-11.9C11.4,1185.2,9.1,1183.2,12.1,1183.6L12.1,1183.6z M-5.7,1172.7
		c0,0,13.4-13.3,25.7-12.8c10.8,0.1,3.2,3.9-3.3,9.3c-8.1,6.2-17,5-19.1,5C-4.7,1174.3-7.1,1174.1-5.7,1172.7L-5.7,1172.7z
		 M-5.2,1148.8c0,0-13.3,0-23.1,18.1c-4.3,7.6,1.9,5.3,1.9,5.3s16.2-3.7,23.6-20.7C-1.7,1148.5-5.2,1148.8-5.2,1148.8L-5.2,1148.8z
		 M1.8,1209.8c0,0-14.5-7.9-16.5-23.9c-0.9-6.3,3.2-2.6,3.2-2.6s14.7,8.4,15.3,24.2C3.9,1207.5,4.3,1210.9,1.8,1209.8L1.8,1209.8z
		 M-24.3,1219.8c0,0-15.8-10.2-17.4-26.4c-1.2-7,3.6-3.1,3.6-3.1c0,0,16,9.1,16.1,26.9C-22,1217.2-21.6,1221-24.3,1219.8
		L-24.3,1219.8z M-58.8,1178c0,0,0.1-20.8,13-29.4c5.1-3.9,4.3,1.4,4.3,1.8c0,0.4,1.1,18.3-13.8,28.1
		C-55.4,1178.5-58.3,1180.9-58.8,1178L-58.8,1178z M-139.6,1176.7c0,0,10.1-15.9,24.4-14.6c8.2-0.5,0.3,7.2,0.3,7.2
		c0,0-7.3,10-22,10.1c-0.3,0.2-0.6,0.3-0.8,0.5c-14.6,8.2-55-8-75.1-0.3c-34.8,11.9-42.1,30.2-46.2,34.2c-1.2,1.2-2.2,0.9-2.6,0.2
		c-0.5-0.9,0-1.8,0-1.8c10.1-17.5,31.6-29.6,41.8-33.7c11.6-4.1,21.6-6.1,46.7-1.3c21.9,3.7,31.7,1,33,0.6
		C-140,1177.2-139.6,1176.7-139.6,1176.7L-139.6,1176.7z M-134.1,1183.7c0,0,16.4,0.3,23.5,8.6c7.1,8.3,0.6,4.1-7.7,3.9
		c-9.8-1-14.1-7.8-15.4-9.2C-135,1185.7-135.8,1184.2-134.1,1183.7L-134.1,1183.7z M-161.4,1183.6c0,0,17,2.6,23.1,12.3
		c6.1,9.6-0.1,3.4-8.5,2.9c-8.5-0.4-12.9-10.3-14.1-11.9C-162,1185.2-164.3,1183.2-161.4,1183.6L-161.4,1183.6z M-179.2,1172.7
		c0,0,13.4-13.3,25.6-12.8c10.8,0.1,3.2,3.9-3.3,9.3c-8.1,6.2-17,5-19.1,5C-178.1,1174.3-180.5,1174.1-179.2,1172.7L-179.2,1172.7z
		 M-178.6,1148.8c0,0-13.3,0-23.1,18.1c-4.3,7.6,1.9,5.3,1.9,5.3s16.2-3.7,23.6-20.7C-175.2,1148.5-178.6,1148.8-178.6,1148.8
		L-178.6,1148.8z M-171.7,1209.8c0,0-14.5-7.9-16.4-23.9c-0.9-6.3,3.2-2.6,3.2-2.6s14.7,8.4,15.3,24.2
		C-169.6,1207.5-169.1,1210.9-171.7,1209.8L-171.7,1209.8z M-197.8,1219.8c0,0-15.8-10.2-17.4-26.4c-1.2-7,3.6-3.1,3.6-3.1
		c0,0,16,9.1,16.1,26.9C-195.4,1217.2-195,1221-197.8,1219.8L-197.8,1219.8z M-232.3,1178c0,0,0.1-20.8,13-29.4
		c5.1-3.9,4.3,1.4,4.3,1.8c0,0.4,1.1,18.3-13.8,28.1C-228.8,1178.5-231.7,1180.9-232.3,1178L-232.3,1178z M-308.9,1176.7
		c0,0,10.1-15.9,24.4-14.6c8.2-0.5,0.3,7.2,0.3,7.2c0,0-7.3,10-22,10.1c-0.3,0.2-0.6,0.3-0.8,0.5c-14.6,8.2-55-8-75.1-0.3
		c-34.8,11.9-42.1,30.2-46.2,34.2c-1.2,1.2-2.2,0.9-2.6,0.2c-0.5-0.9,0-1.8,0-1.8c10.1-17.5,31.6-29.6,41.8-33.7
		c11.6-4.1,21.6-6.1,46.7-1.3c21.9,3.7,31.7,1,33,0.6C-309.4,1177.2-308.9,1176.7-308.9,1176.7L-308.9,1176.7z M-303.4,1183.7
		c0,0,16.4,0.3,23.5,8.6c7.1,8.3,0.6,4.1-7.7,3.9c-9.8-1-14.1-7.8-15.4-9.2C-304.4,1185.7-305.1,1184.2-303.4,1183.7L-303.4,1183.7z
		 M-330.7,1183.6c0,0,17,2.6,23.1,12.3c6.1,9.6-0.1,3.4-8.5,2.9c-8.5-0.4-12.9-10.3-14.1-11.9
		C-331.3,1185.2-333.6,1183.2-330.7,1183.6L-330.7,1183.6z M-348.5,1172.7c0,0,13.4-13.3,25.6-12.8c10.8,0.1,3.2,3.9-3.3,9.3
		c-8.1,6.2-17,5-19.1,5C-347.4,1174.3-349.9,1174.1-348.5,1172.7L-348.5,1172.7z M-348,1148.8c0,0-13.3,0-23.1,18.1
		c-4.2,7.6,1.9,5.3,1.9,5.3s16.2-3.7,23.6-20.7C-344.5,1148.5-348,1148.8-348,1148.8L-348,1148.8z M-341,1209.8
		c0,0-14.4-7.9-16.4-23.9c-0.9-6.3,3.2-2.6,3.2-2.6s14.7,8.4,15.3,24.2C-338.9,1207.5-338.5,1210.9-341,1209.8L-341,1209.8z
		 M-367.1,1219.8c0,0-15.8-10.2-17.4-26.4c-1.2-7,3.6-3.1,3.6-3.1c0,0,16,9.1,16.1,26.9C-364.8,1217.2-364.3,1221-367.1,1219.8
		L-367.1,1219.8z M-401.6,1178c0,0,0.1-20.8,13-29.4c5.1-3.9,4.3,1.4,4.3,1.8c0,0.4,1.1,18.3-13.8,28.1
		C-398.1,1178.5-401.1,1180.9-401.6,1178L-401.6,1178z M-482.3,1176.7c0,0,10.1-15.9,24.4-14.6c8.2-0.5,0.3,7.2,0.3,7.2
		c0,0-7.3,10-22,10.1c-0.3,0.2-0.6,0.3-0.8,0.5c-14.6,8.2-54.9-8-75.1-0.3c-34.8,11.9-42.1,30.2-46.2,34.2c-1.2,1.2-2.2,0.9-2.6,0.2
		c-0.5-0.9,0-1.8,0-1.8c10.1-17.5,31.6-29.6,41.8-33.7c11.6-4.1,21.6-6.1,46.7-1.3c21.9,3.7,31.7,1,33,0.6
		C-482.8,1177.2-482.3,1176.7-482.3,1176.7L-482.3,1176.7z M-476.9,1183.7c0,0,16.4,0.3,23.5,8.6c7.1,8.3,0.6,4.1-7.7,3.9
		c-9.8-1-14.1-7.8-15.4-9.2C-477.8,1185.7-478.6,1184.2-476.9,1183.7L-476.9,1183.7z M-504.1,1183.6c0,0,17,2.6,23.1,12.3
		c6.1,9.6-0.1,3.4-8.5,2.9c-8.5-0.4-12.9-10.3-14.1-11.9C-504.8,1185.2-507.1,1183.2-504.1,1183.6L-504.1,1183.6z M-521.9,1172.7
		c0,0,13.4-13.3,25.6-12.8c10.8,0.1,3.2,3.9-3.3,9.3c-8.1,6.2-17,5-19.1,5C-520.9,1174.3-523.3,1174.1-521.9,1172.7L-521.9,1172.7z
		 M-521.4,1148.8c0,0-13.3,0-23.1,18.1c-4.2,7.6,1.9,5.3,1.9,5.3s16.2-3.7,23.6-20.7C-517.9,1148.5-521.4,1148.8-521.4,1148.8
		L-521.4,1148.8z M-514.4,1209.8c0,0-14.4-7.9-16.4-23.9c-0.9-6.3,3.2-2.6,3.2-2.6s14.7,8.4,15.3,24.2
		C-512.3,1207.5-511.9,1210.9-514.4,1209.8L-514.4,1209.8z M-540.5,1219.8c0,0-15.8-10.2-17.4-26.4c-1.2-7,3.6-3.1,3.6-3.1
		c0,0,16,9.1,16.1,26.9C-538.2,1217.2-537.8,1221-540.5,1219.8L-540.5,1219.8z M-575,1178c0,0,0.1-20.8,13-29.4
		c5.1-3.9,4.3,1.4,4.3,1.8c0,0.4,1.1,18.3-13.8,28.1C-571.6,1178.5-574.5,1180.9-575,1178L-575,1178z M-655.8,1176.7
		c0,0,10.1-15.9,24.4-14.6c8.2-0.5,0.3,7.2,0.3,7.2c0,0-7.3,10-22,10.1c-0.3,0.2-0.6,0.3-0.8,0.5c-14.6,8.2-54.9-8-75.1-0.3
		c-34.8,11.9-42.1,30.2-46.2,34.2c-1.2,1.2-2.2,0.9-2.6,0.2c-0.5-0.9,0-1.8,0-1.8c10.1-17.5,31.6-29.6,41.8-33.7
		c11.6-4.1,21.6-6.1,46.7-1.3c21.9,3.7,31.8,1,33,0.6C-656.2,1177.2-655.8,1176.7-655.8,1176.7L-655.8,1176.7z M-650.3,1183.7
		c0,0,16.4,0.3,23.5,8.6c7.1,8.3,0.6,4.1-7.7,3.9c-9.8-1-14.1-7.8-15.4-9.2C-651.2,1185.7-652,1184.2-650.3,1183.7L-650.3,1183.7z
		 M-677.5,1183.6c0,0,17,2.6,23.1,12.3c6.1,9.6-0.1,3.4-8.5,2.9c-8.5-0.4-12.9-10.3-14.1-11.9
		C-678.2,1185.2-680.5,1183.2-677.5,1183.6L-677.5,1183.6z M-695.3,1172.7c0,0,13.4-13.3,25.6-12.8c10.8,0.1,3.2,3.9-3.3,9.3
		c-8.1,6.2-17,5-19.1,5C-694.3,1174.3-696.7,1174.1-695.3,1172.7L-695.3,1172.7z M-694.8,1148.8c0,0-13.3,0-23.1,18.1
		c-4.3,7.6,1.9,5.3,1.9,5.3s16.2-3.7,23.6-20.7C-691.4,1148.5-694.8,1148.8-694.8,1148.8L-694.8,1148.8z M-687.8,1209.8
		c0,0-14.4-7.9-16.4-23.9c-0.9-6.3,3.2-2.6,3.2-2.6s14.7,8.4,15.3,24.2C-685.8,1207.5-685.3,1210.9-687.8,1209.8L-687.8,1209.8z
		 M-713.9,1219.8c0,0-15.8-10.2-17.4-26.4c-1.2-7,3.6-3.1,3.6-3.1c0,0,16,9.1,16.1,26.9C-711.6,1217.2-711.2,1221-713.9,1219.8
		L-713.9,1219.8z M-748.4,1178c0,0,0.1-20.8,13-29.4c5.1-3.9,4.3,1.4,4.3,1.8c0,0.4,1.1,18.3-13.8,28.1
		C-745,1178.5-747.9,1180.9-748.4,1178L-748.4,1178z M-829.2,1176.7c0,0,10.1-15.9,24.4-14.6c8.2-0.5,0.3,7.2,0.3,7.2
		c0,0-7.3,10-22,10.1c-0.3,0.2-0.6,0.3-0.8,0.5c-14.6,8.2-54.9-8-75.1-0.3c-34.8,11.9-42.1,30.2-46.2,34.2c-1.2,1.2-2.2,0.9-2.6,0.2
		c-0.5-0.9,0-1.8,0-1.8c10.1-17.5,31.6-29.6,41.8-33.7c11.6-4.1,21.6-6.1,46.7-1.3c21.9,3.7,31.7,1,33,0.6
		C-829.6,1177.2-829.2,1176.7-829.2,1176.7L-829.2,1176.7z M-823.7,1183.7c0,0,16.4,0.3,23.5,8.6c7.1,8.3,0.6,4.1-7.7,3.9
		c-9.8-1-14.1-7.8-15.4-9.2C-824.6,1185.7-825.4,1184.2-823.7,1183.7L-823.7,1183.7z M-851,1183.6c0,0,17,2.6,23.1,12.3
		c6.1,9.6-0.1,3.4-8.5,2.9c-8.5-0.4-12.9-10.3-14.1-11.9C-851.6,1185.2-853.9,1183.2-851,1183.6L-851,1183.6z M-868.8,1172.7
		c0,0,13.4-13.3,25.6-12.8c10.8,0.1,3.2,3.9-3.3,9.3c-8.1,6.2-17,5-19.1,5C-867.7,1174.3-870.1,1174.1-868.8,1172.7L-868.8,1172.7z
		 M-868.2,1148.8c0,0-13.3,0-23.1,18.1c-4.3,7.6,1.9,5.3,1.9,5.3s16.2-3.7,23.6-20.7C-864.8,1148.5-868.2,1148.8-868.2,1148.8
		L-868.2,1148.8z M-861.2,1209.8c0,0-14.4-7.9-16.4-23.9c-0.9-6.3,3.2-2.6,3.2-2.6s14.7,8.4,15.3,24.2
		C-859.2,1207.5-858.7,1210.9-861.2,1209.8L-861.2,1209.8z M-887.4,1219.8c0,0-15.8-10.2-17.4-26.4c-1.2-7,3.6-3.1,3.6-3.1
		c0,0,16,9.1,16.1,26.9C-885,1217.2-884.6,1221-887.4,1219.8L-887.4,1219.8z M-921.9,1178c0,0,0.1-20.8,13-29.4
		c5.1-3.9,4.3,1.4,4.3,1.8c0,0.4,1.1,18.3-13.8,28.1C-918.4,1178.5-921.3,1180.9-921.9,1178L-921.9,1178z M-1095.3,1178
		c0,0,0.1-20.8,13-29.4c5.1-3.9,4.3,1.4,4.3,1.8c0,0.4,1.1,18.3-13.8,28.1C-1091.8,1178.5-1094.8,1180.9-1095.3,1178L-1095.3,1178z
		 M-1002.6,1176.7c0,0,10.1-15.9,24.4-14.6c8.2-0.5,0.3,7.2,0.3,7.2c0,0-7.3,10-22,10.1c-0.3,0.2-0.6,0.3-0.8,0.5
		c-14.6,8.2-54.9-8-75.1-0.3c-34.8,11.9-42.1,30.2-46.2,34.2c-1.2,1.2-2.2,0.9-2.6,0.2c-0.5-0.9,0-1.8,0-1.8
		c10.1-17.5,31.6-29.6,41.8-33.7c11.6-4.1,21.6-6.1,46.7-1.3c21.9,3.7,31.7,1,33,0.6C-1003.1,1177.2-1002.6,1176.7-1002.6,1176.7
		L-1002.6,1176.7z M-997.1,1183.7c0,0,16.4,0.3,23.5,8.6c7.1,8.3,0.6,4.1-7.7,3.9c-9.8-1-14.1-7.8-15.4-9.2
		C-998.1,1185.7-998.8,1184.2-997.1,1183.7L-997.1,1183.7z M-1024.4,1183.6c0,0,17,2.6,23.1,12.3c6.1,9.6-0.1,3.4-8.5,2.9
		c-8.5-0.4-12.9-10.3-14.1-11.9C-1025,1185.2-1027.4,1183.2-1024.4,1183.6L-1024.4,1183.6z M-1042.2,1172.7c0,0,13.4-13.3,25.6-12.8
		c10.8,0.1,3.2,3.9-3.3,9.3c-8.1,6.2-17,5-19.1,5C-1041.1,1174.3-1043.6,1174.1-1042.2,1172.7L-1042.2,1172.7z M-1041.7,1148.8
		c0,0-13.3,0-23.1,18.1c-4.2,7.6,1.9,5.3,1.9,5.3s16.2-3.7,23.6-20.7C-1038.2,1148.5-1041.7,1148.8-1041.7,1148.8L-1041.7,1148.8z
		 M-1034.7,1209.8c0,0-14.5-7.9-16.4-23.9c-0.9-6.3,3.2-2.6,3.2-2.6s14.7,8.4,15.3,24.2C-1032.6,1207.5-1032.2,1210.9-1034.7,1209.8
		L-1034.7,1209.8z M-1060.8,1219.8c0,0-15.8-10.2-17.4-26.4c-1.2-7,3.6-3.1,3.6-3.1c0,0,16,9.1,16.1,26.9
		C-1058.5,1217.2-1058,1221-1060.8,1219.8L-1060.8,1219.8z M651.3,1176.2c0,0-10.1-15.9-24.4-14.6c-8.2-0.5-0.3,7.2-0.3,7.2
		c0,0,7.3,10,22,10.1c0.3,0.2,0.5,0.3,0.8,0.5c14.6,8.2,54.9-8,75.1-0.3c34.8,11.9,42.1,30.3,46.2,34.2c1.2,1.2,2.2,0.9,2.6,0.2
		c0.5-0.9,0-1.8,0-1.8c-10.1-17.5-31.6-29.6-41.8-33.7c-11.6-4.1-21.6-6.1-46.7-1.3c-22,3.7-31.8,1-33,0.6
		C651.7,1176.7,651.3,1176.2,651.3,1176.2L651.3,1176.2z M645.8,1183.3c0,0-16.4,0.3-23.5,8.6c-7.1,8.3-0.6,4.1,7.7,3.9
		c9.8-1,14.1-7.8,15.4-9.2C646.7,1185.2,647.5,1183.7,645.8,1183.3L645.8,1183.3z M673,1183.1c0,0-17,2.6-23.1,12.3
		c-6.1,9.6,0.1,3.4,8.5,2.9c8.5-0.4,13-10.3,14.1-11.9C673.7,1184.7,676,1182.7,673,1183.1L673,1183.1z M690.9,1172.2
		c0,0-13.4-13.3-25.6-12.8c-10.8,0.1-3.2,3.9,3.4,9.3c8,6.2,17,5,19.1,5C689.8,1173.8,692.2,1173.6,690.9,1172.2L690.9,1172.2z
		 M690.3,1148.3c0,0,13.3,0,23.1,18.1c4.3,7.6-1.9,5.3-1.9,5.3s-16.2-3.7-23.6-20.7C686.9,1148,690.3,1148.3,690.3,1148.3
		L690.3,1148.3z M683.3,1209.3c0,0,14.4-8,16.4-23.9c0.9-6.3-3.2-2.6-3.2-2.6c0,0-14.7,8.4-15.3,24.2
		C681.3,1207,680.8,1210.4,683.3,1209.3L683.3,1209.3z M709.4,1219.3c0,0,15.8-10.2,17.4-26.4c1.2-7-3.6-3.1-3.6-3.1
		c0,0-16,9.1-16.1,26.9C707.1,1216.7,706.7,1220.5,709.4,1219.3L709.4,1219.3z M743.9,1177.5c0,0-0.1-20.8-13-29.4
		c-5.1-4-4.3,1.4-4.3,1.8c0,0.4-1.1,18.3,13.8,28.1C740.5,1178,743.4,1180.4,743.9,1177.5L743.9,1177.5z M819.8,1176.2
		c0,0-10.1-15.9-24.4-14.6c-8.2-0.5-0.3,7.2-0.3,7.2c0,0,7.3,10,22,10.1c0.3,0.2,0.5,0.3,0.8,0.5c14.6,8.2,54.9-8,75.1-0.3
		c34.8,11.9,42.1,30.3,46.2,34.2c1.2,1.2,2.2,0.9,2.6,0.2c0.5-0.9,0-1.8,0-1.8c-10.1-17.5-31.6-29.6-41.8-33.7
		c-11.6-4.1-21.6-6.1-46.7-1.3c-22,3.7-31.8,1-33,0.6C820.2,1176.7,819.8,1176.2,819.8,1176.2L819.8,1176.2z M814.3,1183.3
		c0,0-16.4,0.3-23.5,8.6c-7.1,8.3-0.6,4.1,7.7,3.9c9.8-1,14.1-7.8,15.4-9.2C815.2,1185.2,816,1183.7,814.3,1183.3L814.3,1183.3z
		 M841.5,1183.1c0,0-17,2.6-23.1,12.3c-6.1,9.6,0.1,3.4,8.5,2.9c8.5-0.4,13-10.3,14.1-11.9C842.2,1184.7,844.5,1182.7,841.5,1183.1
		L841.5,1183.1z M859.3,1172.2c0,0-13.4-13.3-25.7-12.8c-10.8,0.1-3.2,3.9,3.3,9.3c8.1,6.2,17,5,19.1,5
		C858.3,1173.8,860.7,1173.6,859.3,1172.2L859.3,1172.2z M858.8,1148.3c0,0,13.3,0,23.1,18.1c4.3,7.6-1.9,5.3-1.9,5.3
		s-16.2-3.7-23.6-20.7C855.4,1148,858.8,1148.3,858.8,1148.3L858.8,1148.3z M851.8,1209.3c0,0,14.4-8,16.4-23.9
		c0.9-6.3-3.2-2.6-3.2-2.6c0,0-14.7,8.4-15.3,24.2C849.8,1207,849.3,1210.4,851.8,1209.3L851.8,1209.3z M877.9,1219.3
		c0,0,15.8-10.2,17.4-26.4c1.2-7-3.6-3.1-3.6-3.1c0,0-16,9.1-16.1,26.9C875.6,1216.7,875.2,1220.5,877.9,1219.3L877.9,1219.3z
		 M912.4,1177.5c0,0-0.1-20.8-13-29.4c-5.1-4-4.3,1.4-4.3,1.8c0,0.4-1.1,18.3,13.8,28.1C909,1178,911.9,1180.4,912.4,1177.5
		L912.4,1177.5z M988.3,1176.2c0,0-10.1-15.9-24.4-14.6c-8.2-0.5-0.3,7.2-0.3,7.2c0,0,7.3,10,22,10.1c0.3,0.2,0.5,0.3,0.8,0.5
		c14.6,8.2,54.9-8,75.1-0.3c34.8,11.9,42.1,30.3,46.2,34.2c1.2,1.2,2.2,0.9,2.6,0.2c0.5-0.9,0-1.8,0-1.8
		c-10.1-17.5-31.6-29.6-41.8-33.7c-11.5-4.1-21.6-6.1-46.7-1.3c-22,3.7-31.8,1-33,0.6C988.7,1176.7,988.3,1176.2,988.3,1176.2
		L988.3,1176.2z M982.8,1183.3c0,0-16.4,0.3-23.5,8.6c-7.1,8.3-0.6,4.1,7.7,3.9c9.8-1,14.1-7.8,15.4-9.2
		C983.7,1185.2,984.5,1183.7,982.8,1183.3L982.8,1183.3z M1010,1183.1c0,0-17,2.6-23.1,12.3c-6.1,9.6,0.1,3.4,8.5,2.9
		c8.5-0.4,13-10.3,14.1-11.9C1010.7,1184.7,1013,1182.7,1010,1183.1L1010,1183.1z M1027.8,1172.2c0,0-13.4-13.3-25.7-12.8
		c-10.8,0.1-3.2,3.9,3.3,9.3c8.1,6.2,17,5,19.1,5C1026.8,1173.8,1029.2,1173.6,1027.8,1172.2L1027.8,1172.2z M1027.3,1148.3
		c0,0,13.3,0,23.1,18.1c4.3,7.6-1.9,5.3-1.9,5.3s-16.2-3.7-23.6-20.7C1023.8,1148,1027.3,1148.3,1027.3,1148.3L1027.3,1148.3z
		 M1020.3,1209.3c0,0,14.4-8,16.4-23.9c0.9-6.3-3.2-2.6-3.2-2.6c0,0-14.7,8.4-15.3,24.2C1018.3,1207,1017.8,1210.4,1020.3,1209.3
		L1020.3,1209.3z M1046.4,1219.3c0,0,15.8-10.2,17.4-26.4c1.2-7-3.6-3.1-3.6-3.1c0,0-16,9.1-16.1,26.9
		C1044.1,1216.7,1043.7,1220.5,1046.4,1219.3L1046.4,1219.3z M1080.9,1177.5c0,0-0.1-20.8-13-29.4c-5.1-4-4.3,1.4-4.3,1.8
		c0,0.4-1.1,18.3,13.8,28.1C1077.5,1178,1080.4,1180.4,1080.9,1177.5L1080.9,1177.5z M1156.7,1176.2c0,0-10.1-15.9-24.4-14.6
		c-8.2-0.5-0.3,7.2-0.3,7.2c0,0,7.3,10,22,10.1c0.3,0.2,0.5,0.3,0.8,0.5c14.6,8.2,55-8,75.1-0.3c34.8,11.9,42.1,30.3,46.2,34.2
		c1.2,1.2,2.2,0.9,2.6,0.2c0.5-0.9,0-1.8,0-1.8c-10.1-17.5-31.6-29.6-41.8-33.7c-11.6-4.1-21.6-6.1-46.7-1.3
		c-21.9,3.7-31.7,1-33,0.6C1157.2,1176.7,1156.7,1176.2,1156.7,1176.2L1156.7,1176.2z M1151.2,1183.3c0,0-16.4,0.3-23.5,8.6
		c-7.1,8.3-0.6,4.1,7.7,3.9c9.8-1,14.1-7.8,15.4-9.2C1152.2,1185.2,1153,1183.7,1151.2,1183.3L1151.2,1183.3z M1178.5,1183.1
		c0,0-17,2.6-23.1,12.3c-6.1,9.6,0.1,3.4,8.5,2.9c8.5-0.4,13-10.3,14.1-11.9C1179.2,1184.7,1181.5,1182.7,1178.5,1183.1
		L1178.5,1183.1z M1196.3,1172.2c0,0-13.4-13.3-25.7-12.8c-10.8,0.1-3.2,3.9,3.3,9.3c8.1,6.2,17,5,19.1,5
		C1195.3,1173.8,1197.7,1173.6,1196.3,1172.2L1196.3,1172.2z M1195.8,1148.3c0,0,13.3,0,23.1,18.1c4.3,7.6-1.9,5.3-1.9,5.3
		s-16.2-3.7-23.6-20.7C1192.3,1148,1195.8,1148.3,1195.8,1148.3L1195.8,1148.3z M1188.8,1209.3c0,0,14.4-8,16.4-23.9
		c0.9-6.3-3.2-2.6-3.2-2.6c0,0-14.7,8.4-15.3,24.2C1186.7,1207,1186.3,1210.4,1188.8,1209.3L1188.8,1209.3z M1214.9,1219.3
		c0,0,15.8-10.2,17.4-26.4c1.2-7-3.6-3.1-3.6-3.1c0,0-16,9.1-16.1,26.9C1212.6,1216.7,1212.2,1220.5,1214.9,1219.3L1214.9,1219.3z
		 M1249.4,1177.5c0,0-0.1-20.8-13-29.4c-5.1-4-4.3,1.4-4.3,1.8c0,0.4-1.1,18.3,13.8,28.1C1246,1178,1248.9,1180.4,1249.4,1177.5
		L1249.4,1177.5z M1325.2,1176.2c0,0-10.1-15.9-24.4-14.6c-8.2-0.5-0.3,7.2-0.3,7.2c0,0,7.3,10,22,10.1c0.3,0.2,0.5,0.3,0.8,0.5
		c14.6,8.2,54.9-8,75.1-0.3c34.8,11.9,42.1,30.3,46.2,34.2c1.2,1.2,2.2,0.9,2.6,0.2c0.5-0.9,0-1.8,0-1.8
		c-10.1-17.5-31.6-29.6-41.8-33.7c-11.6-4.1-21.6-6.1-46.7-1.3c-22,3.7-31.8,1-33,0.6C1325.7,1176.7,1325.2,1176.2,1325.2,1176.2
		L1325.2,1176.2z M1319.7,1183.3c0,0-16.4,0.3-23.5,8.6c-7.1,8.3-0.6,4.1,7.7,3.9c9.8-1,14.1-7.8,15.4-9.2
		C1320.7,1185.2,1321.4,1183.7,1319.7,1183.3L1319.7,1183.3z M1347,1183.1c0,0-17,2.6-23.1,12.3c-6.1,9.6,0.1,3.4,8.5,2.9
		c8.5-0.4,13-10.3,14.1-11.9C1347.6,1184.7,1350,1182.7,1347,1183.1L1347,1183.1z M1364.8,1172.2c0,0-13.4-13.3-25.7-12.8
		c-10.8,0.1-3.2,3.9,3.3,9.3c8.1,6.2,17,5,19.1,5C1363.7,1173.8,1366.2,1173.6,1364.8,1172.2L1364.8,1172.2z M1364.3,1148.3
		c0,0,13.3,0,23.1,18.1c4.3,7.6-1.9,5.3-1.9,5.3s-16.2-3.7-23.6-20.7C1360.8,1148,1364.3,1148.3,1364.3,1148.3L1364.3,1148.3z
		 M1357.3,1209.3c0,0,14.4-8,16.4-23.9c0.9-6.3-3.2-2.6-3.2-2.6c0,0-14.7,8.4-15.3,24.2C1355.2,1207,1354.8,1210.4,1357.3,1209.3
		L1357.3,1209.3z M1383.4,1219.3c0,0,15.8-10.2,17.4-26.4c1.2-7-3.6-3.1-3.6-3.1c0,0-16,9.1-16.1,26.9
		C1381.1,1216.7,1380.6,1220.5,1383.4,1219.3L1383.4,1219.3z M1417.9,1177.5c0,0-0.1-20.8-13-29.4c-5.1-4-4.3,1.4-4.3,1.8
		c0,0.4-1.1,18.3,13.8,28.1C1414.4,1178,1417.4,1180.4,1417.9,1177.5L1417.9,1177.5z M1493.7,1176.2c0,0-10.1-15.9-24.4-14.6
		c-8.2-0.5-0.3,7.2-0.3,7.2c0,0,7.3,10,22,10.1c0.3,0.2,0.5,0.3,0.8,0.5c14.6,8.2,54.9-8,75.1-0.3c34.8,11.9,42.1,30.3,46.2,34.2
		c1.2,1.2,2.2,0.9,2.6,0.2c0.5-0.9,0-1.8,0-1.8c-10.1-17.5-31.6-29.6-41.8-33.7c-11.6-4.1-21.6-6.1-46.7-1.3c-22,3.7-31.8,1-33,0.6
		C1494.2,1176.7,1493.7,1176.2,1493.7,1176.2L1493.7,1176.2z M1488.2,1183.3c0,0-16.4,0.3-23.5,8.6c-7.1,8.3-0.6,4.1,7.7,3.9
		c9.8-1,14.1-7.8,15.4-9.2C1489.1,1185.2,1489.9,1183.7,1488.2,1183.3L1488.2,1183.3z M1515.5,1183.1c0,0-17,2.6-23.1,12.3
		c-6.1,9.6,0.1,3.4,8.5,2.9c8.5-0.4,13-10.3,14.1-11.9C1516.1,1184.7,1518.4,1182.7,1515.5,1183.1L1515.5,1183.1z M1533.3,1172.2
		c0,0-13.4-13.3-25.7-12.8c-10.8,0.1-3.2,3.9,3.3,9.3c8.1,6.2,17,5,19.1,5C1532.2,1173.8,1534.6,1173.6,1533.3,1172.2L1533.3,1172.2
		z M1532.8,1148.3c0,0,13.3,0,23.1,18.1c4.3,7.6-1.9,5.3-1.9,5.3s-16.2-3.7-23.6-20.7C1529.3,1148,1532.8,1148.3,1532.8,1148.3
		L1532.8,1148.3z M1525.8,1209.3c0,0,14.4-8,16.4-23.9c0.9-6.3-3.2-2.6-3.2-2.6c0,0-14.7,8.4-15.3,24.2
		C1523.7,1207,1523.2,1210.4,1525.8,1209.3L1525.8,1209.3z M1551.9,1219.3c0,0,15.8-10.2,17.4-26.4c1.2-7-3.6-3.1-3.6-3.1
		c0,0-16,9.1-16.1,26.9C1549.5,1216.7,1549.1,1220.5,1551.9,1219.3L1551.9,1219.3z M1586.4,1177.5c0,0-0.1-20.8-13-29.4
		c-5.1-4-4.3,1.4-4.3,1.8c0,0.4-1.1,18.3,13.8,28.1C1582.9,1178,1585.8,1180.4,1586.4,1177.5L1586.4,1177.5z M1662.2,1176.2
		c0,0-10.1-15.9-24.4-14.6c-8.2-0.5-0.3,7.2-0.3,7.2c0,0,7.3,10,22,10.1c0.3,0.2,0.5,0.3,0.8,0.5c14.6,8.2,54.9-8,75.1-0.3
		c34.8,11.9,42.1,30.3,46.2,34.2c1.2,1.2,2.2,0.9,2.6,0.2c0.5-0.9,0-1.8,0-1.8c-10.1-17.5-31.6-29.6-41.8-33.7
		c-11.6-4.1-21.6-6.1-46.7-1.3c-21.9,3.7-31.7,1-33,0.6C1662.6,1176.7,1662.2,1176.2,1662.2,1176.2L1662.2,1176.2z M1656.7,1183.3
		c0,0-16.4,0.3-23.5,8.6c-7.1,8.3-0.6,4.1,7.7,3.9c9.8-1,14.1-7.8,15.4-9.2C1657.6,1185.2,1658.4,1183.7,1656.7,1183.3
		L1656.7,1183.3z M1684,1183.1c0,0-17,2.6-23.1,12.3c-6.1,9.6,0.1,3.4,8.5,2.9c8.5-0.4,13-10.3,14.1-11.9
		C1684.6,1184.7,1686.9,1182.7,1684,1183.1L1684,1183.1z M1701.8,1172.2c0,0-13.4-13.3-25.7-12.8c-10.8,0.1-3.2,3.9,3.4,9.3
		c8.1,6.2,17,5,19.1,5C1700.7,1173.8,1703.1,1173.6,1701.8,1172.2L1701.8,1172.2z M1701.2,1148.3c0,0,13.3,0,23.1,18.1
		c4.3,7.6-1.9,5.3-1.9,5.3c0,0-16.2-3.7-23.6-20.7C1697.8,1148,1701.2,1148.3,1701.2,1148.3L1701.2,1148.3z M1694.3,1209.3
		c0,0,14.4-8,16.4-23.9c0.9-6.3-3.2-2.6-3.2-2.6c0,0-14.7,8.4-15.3,24.2C1692.2,1207,1691.7,1210.4,1694.3,1209.3L1694.3,1209.3z
		 M1720.4,1219.3c0,0,15.8-10.2,17.4-26.4c1.2-7-3.6-3.1-3.6-3.1c0,0-16,9.1-16.1,26.9C1718,1216.7,1717.6,1220.5,1720.4,1219.3
		L1720.4,1219.3z M1754.9,1177.5c0,0-0.1-20.8-13-29.4c-5.1-4-4.3,1.4-4.3,1.8c0,0.4-1.1,18.3,13.8,28.1
		C1751.4,1178,1754.3,1180.4,1754.9,1177.5L1754.9,1177.5z M1830.7,1176.2c0,0-10.1-15.9-24.4-14.6c-8.2-0.5-0.3,7.2-0.3,7.2
		c0,0,7.3,10,22,10.1c0.3,0.2,0.5,0.3,0.8,0.5c14.6,8.2,55-8,75.1-0.3c34.8,11.9,42.1,30.3,46.2,34.2c1.2,1.2,2.2,0.9,2.6,0.2
		c0.5-0.9,0-1.8,0-1.8c-10.1-17.5-31.6-29.6-41.8-33.7c-11.6-4.1-21.6-6.1-46.7-1.3c-21.9,3.7-31.7,1-33,0.6
		C1831.1,1176.7,1830.7,1176.2,1830.7,1176.2L1830.7,1176.2z M1825.2,1183.3c0,0-16.4,0.3-23.5,8.6c-7.1,8.3-0.6,4.1,7.7,3.9
		c9.8-1,14.1-7.8,15.4-9.2C1826.1,1185.2,1826.9,1183.7,1825.2,1183.3L1825.2,1183.3z M1852.4,1183.1c0,0-17,2.6-23.1,12.3
		c-6.1,9.6,0.1,3.4,8.5,2.9c8.5-0.4,13-10.3,14.1-11.9C1853.1,1184.7,1855.4,1182.7,1852.4,1183.1L1852.4,1183.1z M1870.3,1172.2
		c0,0-13.4-13.3-25.7-12.8c-10.8,0.1-3.2,3.9,3.3,9.3c8.1,6.2,17,5,19.1,5C1869.2,1173.8,1871.6,1173.6,1870.3,1172.2L1870.3,1172.2
		z M1869.7,1148.3c0,0,13.3,0,23.1,18.1c4.3,7.6-1.9,5.3-1.9,5.3c0,0-16.2-3.7-23.6-20.7C1866.3,1148,1869.7,1148.3,1869.7,1148.3
		L1869.7,1148.3z M1862.7,1209.3c0,0,14.4-8,16.4-23.9c0.9-6.3-3.2-2.6-3.2-2.6c0,0-14.7,8.4-15.3,24.2
		C1860.7,1207,1860.2,1210.4,1862.7,1209.3L1862.7,1209.3z M1888.8,1219.3c0,0,15.8-10.2,17.4-26.4c1.2-7-3.6-3.1-3.6-3.1
		c0,0-16,9.1-16.1,26.9C1886.5,1216.7,1886.1,1220.5,1888.8,1219.3L1888.8,1219.3z M1923.3,1177.5c0,0-0.1-20.8-13-29.4
		c-5.1-4-4.3,1.4-4.3,1.8c0,0.4-1.1,18.3,13.8,28.1C1919.9,1178,1922.8,1180.4,1923.3,1177.5L1923.3,1177.5z M1999.2,1176.2
		c0,0-10.1-15.9-24.4-14.6c-8.2-0.5-0.3,7.2-0.3,7.2c0,0,7.3,10,22,10.1c0.3,0.2,0.5,0.3,0.8,0.5c14.6,8.2,55-8,75.1-0.3
		c34.8,11.9,42.1,30.3,46.2,34.2c1.2,1.2,2.2,0.9,2.6,0.2c0.5-0.9,0-1.8,0-1.8c-10.1-17.5-31.6-29.6-41.8-33.7
		c-11.6-4.1-21.6-6.1-46.7-1.3c-21.9,3.7-31.7,1-33,0.6C1999.6,1176.7,1999.2,1176.2,1999.2,1176.2L1999.2,1176.2z M1993.7,1183.3
		c0,0-16.4,0.3-23.5,8.6c-7.1,8.3-0.6,4.1,7.7,3.9c9.8-1,14.1-7.8,15.4-9.2C1994.6,1185.2,1995.4,1183.7,1993.7,1183.3
		L1993.7,1183.3z M2020.9,1183.1c0,0-17,2.6-23.1,12.3c-6.1,9.6,0.1,3.4,8.5,2.9c8.5-0.4,13-10.3,14.1-11.9
		C2021.6,1184.7,2023.9,1182.7,2020.9,1183.1L2020.9,1183.1z M2038.7,1172.2c0,0-13.4-13.3-25.6-12.8c-10.8,0.1-3.2,3.9,3.3,9.3
		c8.1,6.2,17,5,19.1,5C2037.7,1173.8,2040.1,1173.6,2038.7,1172.2L2038.7,1172.2z M2038.2,1148.3c0,0,13.3,0,23.1,18.1
		c4.3,7.6-1.9,5.3-1.9,5.3s-16.2-3.7-23.6-20.7C2034.8,1148,2038.2,1148.3,2038.2,1148.3L2038.2,1148.3z M2031.2,1209.3
		c0,0,14.4-8,16.4-23.9c0.9-6.3-3.2-2.6-3.2-2.6c0,0-14.7,8.4-15.3,24.2C2029.2,1207,2028.7,1210.4,2031.2,1209.3L2031.2,1209.3z
		 M2057.3,1219.3c0,0,15.8-10.2,17.4-26.4c1.2-7-3.6-3.1-3.6-3.1c0,0-16,9.1-16.1,26.9C2055,1216.7,2054.6,1220.5,2057.3,1219.3z"/>
	<path class="st0" d="M613.2-21.8l9.8,235.7l62.9-131c-6.7-15-5.5-144.5,104.7-189.2c17.7-8,8.1-24.1,3.4-28.7
		c-5-4.3,16.4-10.1,17.3,28.7c1.1,52.8,19.5,175.6-97.6,198.5c-87.6,189.1-54,173.3-54,173.3c0,0,49.4-45.9,89.5-59.7
		c30-13.8,38.6-11.5,67.7-9.1c37.6,5.5,63.2,25.2,86.1,16c23-9.2,67.7-26.4,112.5,19.5c44.7,45.9,57.4,60.8,78,50.5
		c20.6-10.3,9.2,33.3-90.7,41.3c-100,7.4-119.4-74.6-119.4-75.8c0,0-177.9-62-215.8,151.5c-6.2,28.9,11.7,15.4,11.7,15.4
		c0,0,108.4-83.3,188.4-54.4c8.8,3.2,17,10,26,11.8c22.9,4.7,36.6-27.5,36.6-27.5c0.7-1.3,12.5-20.4,42.3-4
		c24.3,17.5,15.5,28.5,46.2,46.1c-1.9-0.1-18.1,12.1-61.2-16.6c-12.8-8.7-25.9-4.6-43.2,20c0,14.9,14.9,39,1.2,102.2
		c0,0,107.9,4.6,111.3,120.5c3.4,115.9-21.8,94.1-21.8,94.1s24.5-16.4-8.5-31.5c-33.3-8.1-97.1-76.4-86.8-140.6
		c-4-13.9-21.7,20.9-28.5,33.5c5.2,4.9,9.3,11.4,11.1,19.9c6.7,31.9-18.7,65-23.4,74.7c-4.7,9.6-18.7,24.4-39.8,17.9
		c-6-5.1-12.8,0-12.8,0s-19.2,9.2-33.1-10.7c-4.4-6.4-10.2-14-15.5-23c-11.6-20-16.2-41.4-10.3-64.8c5.2-20.6,18.2-32.3,42.7-27.9
		c6.4,3.5,13.9,2,13.9,2c0,0.5-4.2,3-7,4.1c-2.9,1.1-0.1,2.3,3.5,3.7c3.9,1,6.6,2.8,19.9-1.9c4.2-2.3,0.9-2.9-0.8-3
		c-5.5-1.2-5.1-2.1-5.1-2.1c0,0,6.6,2,14.1-1.4c3.4-1.5,13.1-1.6,23.4,1.6c0.2-0.3,0.4-0.6,0.6-0.9c11.2-33.6,82.2-158.7-26.9-165.3
		c-57.1,8.2-96.4,33.9-122.4,64.4c-15.2,17.9-28.6,39.7-34.9,62.5c-5.1,18.2-4.4,32.3-4.4,54.2c0.4,94.2,3.9,324.2,28.1,389.3
		c5,14.1,11.3,26.3,18.9,36.6c7.5,10.2,16.7,18.9,27.5,26c8.4,7.8,24.8,14.3,33.6,15v34.3h-185h-3.8h-185v-34.3
		c8.7-0.6,25.2-7.1,33.6-15c10.8-7.1,20-15.7,27.5-26c7.5-10.3,13.8-22.5,18.9-36.6c25.3-68,28-316,28.1-401.1
		c0-25.5-1.3-39.8-12.6-63.5c-22.1-46.5-67.4-94.1-149.1-105.8c-109,6.6-38,131.7-26.9,165.3c0.2,0.3,0.4,0.6,0.6,0.9
		c10.3-3.2,20-3.2,23.4-1.6c7.5,3.4,14.1,1.4,14.1,1.4c0,0,0.4,0.9-5.1,2.1c-1.7,0.1-4.9,0.7-0.8,3c13.3,4.7,16,2.9,19.9,1.9
		c3.6-1.4,6.4-2.6,3.5-3.7c-2.8-1.1-7-3.6-7-4.1c0,0,7.4,1.9,13.9-2c31.2-5.6,39.6,18.6,39.6,18.6c17.8,45.5-8.9,77.3-22.7,97.1
		c-13.8,19.9-33.1,10.7-33.1,10.7s-6.8-5.1-12.8,0c-21.1,6.5-35.1-8.2-39.8-17.9c-4.7-9.7-30.2-42.8-23.4-74.7
		c1.8-8.5,5.9-15,11.1-19.9c-6.8-12.6-24.6-47.4-28.5-33.5c10.3,64.2-53.5,132.5-86.8,140.6c-32.9,15.1-8.5,31.5-8.5,31.5
		c0,0-25.2,21.8-21.8-94.1c3.4-115.9,111.3-120.5,111.3-120.5c-13.8-63.1,1.2-87.2,1.1-102.2c-17.2-24.6-30.3-28.7-43.2-20
		c-43.1,28.7-59.3,16.5-61.2,16.6c30.7-17.6,21.9-28.5,46.2-46.1c29.9-16.4,42.3,4,42.3,4c0,0,17.9,42,47,23
		c80.7-47.8,204,47,204,47c0,0,17.9,13.5,11.7-15.4c-37.9-213.5-215.8-151.5-215.8-151.5c0,0-19.5,83.8-119.4,75.8
		c-99.8-8-111.3-51.7-90.7-41.3c20.6,10.3,33.3-4.6,78-50.5c44.7-45.9,89.5-28.7,112.5-19.5c23,9.2,48.5-10.5,86.1-16
		c29-2.4,37.6-4.7,67.6,9.1c40.2,13.8,89.5,59.7,89.5,59.7s33.7,15.8-54-173.3c-117.1-22.9-98.7-145.8-97.6-198.5
		c0.8-38.8,22.2-33,17.3-28.7c-4.6,4.6-14.2,20.7,3.4,28.7C510.5-61.5,511.7,68,505.1,82.9l62.9,131l9.9-236
		c-13.6-2.2-22.7-12.8-26.4-20.4c-5.1-10.4-32.3-45.8-25.1-80c7.3-34.2,49.3-38.3,57.4-34.7c8.1,3.6,15.1,1.5,15.1,1.5
		c0,0,0.4,0.9-5.4,2.2c-1.8,0.2-5.3,0.8-0.8,3.2c14.2,5.1,17.2,3.1,21.3,2.1c3.9-1.5,6.8-2.8,3.7-4c-3-1.2-7.5-3.9-7.5-4.4
		c0,0,7.9,2.1,14.9-2.1c33.5-6,42.4,20,42.4,20c19,48.7-9.5,82.7-24.3,104C633-20.4,620.3-20.3,613.2-21.8L613.2-21.8z M647.9-219.9
		c-60.4,8.6-45.9,59.1-45.9,59.1C658.5-167.8,647.9-219.9,647.9-219.9L647.9-219.9z M412.1,497.9c-56.4,8.1-42.9,55.2-42.9,55.2
		C421.9,546.5,412.1,497.9,412.1,497.9L412.1,497.9z M277.4-9.3c0,0-10.7,52.9,46.7,60.1C324.1,50.8,338.8-0.6,277.4-9.3L277.4-9.3z
		 M318.9,190.3c1.5-0.6,4.3-4.1,13.9,0c23,7.1,40.3-9.5,46.3-19.5c6.3-10.4,29.9-46.5,22.5-81.3c-7.4-34.7-50.1-38.9-58.3-35.2
		c-8.2,3.7-15.3,1.6-15.3,1.6s-0.4,1,5.5,2.2c1.8,0.2,5.4,0.8,0.9,3.3c-14.5,5.1-17.5,3.2-21.7,2.1c-4-1.6-6.9-2.9-3.8-4.1
		c3.1-1.2,7.6-4,7.6-4.5c0,0-8.4,0.9-15.2-2.1C269.7,44.8,258.2,73,258.2,73c-19.3,49.5,9.7,84.1,24.7,105.7
		C298,200.3,317.4,190.8,318.9,190.3L318.9,190.3z M245.8,177.2c0,0-54.7-86.2-129.6-49.6C117.9,124,148.9,202.2,245.8,177.2
		L245.8,177.2z M227,124.3c0,0,15.2-77.1-46.1-96.4C178.5,27.2,159.7,86.9,227,124.3L227,124.3z M355.4-7.8c0,0-1.6-74-61.8-79.4
		C293.6-87.2,285.9-28.6,355.4-7.8L355.4-7.8z M117.1,326.5c0,0-70.7-39.7-95.9,36.4C21.1,363,74.1,406.2,117.1,326.5L117.1,326.5z
		 M115.8,363.6c0,0-8.1,40,35.2,45.4C151,409,162.1,370.2,115.8,363.6L115.8,363.6z M96.2,444.9c-2.5,27.4,14,47.4,23.3,60.7
		c11.4,16.3,27.2,8.8,27.2,8.8c0,0,5.6-4.2,10.5,0c17.3,5.4,28.8-6.8,32.7-14.7c3.9-8,24.8-35.2,19.3-61.4
		c-5.6-26.2-37.8-29.4-44-26.6c-6.2,2.8-11.6,1.2-11.6,1.2c0,0-0.3,0.7,4.2,1.7c1.4,0.1,4.1,0.6,0.6,2.5
		c-10.9,3.9-13.2,2.4-16.4,1.6c-3-1.2-5.2-2.2-2.9-3.1c2.3-0.9,5.8-3,5.8-3.4c0,0-6.1,1.6-11.4-1.6c-14-2.5-22.5,2.3-27.2,7.2
		C99.5,424.6,97,435.7,96.2,444.9L96.2,444.9z M778.9,497.9c0,0-9.8,48.6,42.9,55.2C821.8,553.1,835.3,505.9,778.9,497.9
		L778.9,497.9z M913.6-9.3c-61.4,8.8-46.7,60.1-46.7,60.1C924.3,43.6,913.6-9.3,913.6-9.3L913.6-9.3z M872,190.3
		c-1.5-0.6-4.3-4.1-13.9,0c-23,7.1-40.3-9.5-46.3-19.5c-6.3-10.4-29.9-46.5-22.5-81.3c7.4-34.7,50.1-38.9,58.3-35.2
		c8.2,3.7,15.3,1.6,15.3,1.6s0.4,1-5.5,2.2c-1.8,0.2-5.4,0.8-0.9,3.3c14.5,5.1,17.5,3.2,21.7,2.1c4-1.6,6.9-2.9,3.8-4.1
		c-3.1-1.2-7.6-4-7.6-4.5c0,0,8.4,0.9,15.2-2.1c31.7-7.9,43.1,20.3,43.1,20.3c19.3,49.5-9.7,84.1-24.7,105.7
		C893,200.3,873.6,190.8,872,190.3L872,190.3z M945.1,177.2c0,0,54.6-86.2,129.6-49.6C1075.6,128.7,1042,202.2,945.1,177.2
		L945.1,177.2z M964,124.3c0,0-12.5-63.3,30.8-89.5c2.8-1.7,5.8-3.2,9.1-4.6c2-0.8,4-1.6,6.2-2.2C1012.3,27.2,1031.3,86.9,964,124.3
		L964,124.3z M835.5-7.8c0,0,1.6-74,61.8-79.4C897.3-87.2,905.1-28.6,835.5-7.8L835.5-7.8z M1073.9,326.5c0,0,70.7-39.7,95.9,36.4
		C1169.8,363,1116.9,406.2,1073.9,326.5L1073.9,326.5z M1075.2,363.6c-46.4,6.6-35.2,45.4-35.2,45.4
		C1083.3,403.6,1075.2,363.6,1075.2,363.6L1075.2,363.6z M1090.1,425.8c14.6,37.4-7.3,63.5-18.7,79.8c-11.4,16.3-27.2,8.8-27.2,8.8
		c0,0-5.6-4.2-10.5,0c-17.3,5.4-28.8-6.8-32.7-14.7c-3.9-8-24.8-35.2-19.3-61.4c5.6-26.2,37.8-29.4,44-26.6
		c6.2,2.8,11.6,1.2,11.6,1.2c0,0,0.3,0.7-4.2,1.7c-1.4,0.1-4.1,0.6-0.6,2.5c10.9,3.9,13.2,2.4,16.4,1.6c3-1.2,5.2-2.2,2.9-3.1
		c-2.3-0.9-5.8-3-5.8-3.4c0,0,6.1,1.6,11.5-1.6C1083.2,405.9,1090.1,425.8,1090.1,425.8z"/>
</g>
</svg>
