<?xml version="1.0" encoding="utf-8"?>
<!-- Generator: Adobe Illustrator 19.2.1, SVG Export Plug-In . SVG Version: 6.00 Build 0)  -->
<svg version="1.1" id="Layer_1" xmlns="http://www.w3.org/2000/svg" xmlns:xlink="http://www.w3.org/1999/xlink" x="0px" y="0px"
	 viewBox="0 0 1088.8 515.1" style="enable-background:new 0 0 1088.8 515.1;" xml:space="preserve">
<style type="text/css">
	.st0{fill-rule:evenodd;clip-rule:evenodd;fill:#FF0000;}
</style>
<g>
	<path class="st0" d="M85,423.2H45l-6,14.2c-0.8,2-1.2,3.5-1.2,4.7c0,2.2,1.4,3.7,4.3,4.5v2.4H13v-2.4c1.7-0.4,3-1.1,3.9-2.1
		c0.9-1,1.9-2.9,3.1-5.8L52.5,361c1-2.5,1.5-4.4,1.5-5.9c0-2.3-1.2-3.9-3.7-4.9v-2.4h31.3v2.4c-2.5,0.8-3.8,2.3-3.8,4.4
		c0,1.4,0.4,3.1,1.2,4.9l33.6,78c1.4,3.3,2.7,5.6,3.7,6.8c1.1,1.2,2.5,2,4.3,2.4v2.4H88.1v-2.4c2.8-0.5,4.3-2.1,4.3-4.6
		c0-1-0.4-2.6-1.3-4.6L85,423.2L85,423.2z M985.3,379.7v61.5c0,1.5,0.3,2.7,0.9,3.5c0.6,0.8,1.7,1.4,3.3,1.9l0,2.4h-26v-2.4
		c1.6-0.5,2.7-1.1,3.3-1.9c0.6-0.8,0.9-2,0.9-3.5v-85.7c0-1.5-0.3-2.6-0.9-3.4c-0.6-0.8-1.7-1.4-3.3-1.9v-2.4h30v2.4
		c-1.9,0.5-2.8,1.7-2.8,3.4c0,1.2,0.6,2.5,1.8,3.9l48.6,58v-60c0-1.5-0.3-2.6-0.9-3.4c-0.6-0.8-1.7-1.4-3.3-1.9l0-2.4h26v2.4
		c-1.6,0.5-2.7,1.1-3.3,1.9c-0.6,0.8-0.9,1.9-0.9,3.4l0,85.7c0,1.5,0.3,2.7,0.9,3.5c0.6,0.8,1.7,1.4,3.3,1.9v2.4h-27.8v-2.4
		c1.8-0.4,2.7-1.5,2.7-3.2c0-1-1.1-2.7-3.2-5.2L985.3,379.7L985.3,379.7z M884.8,377.9l-20.2,58.3c-1.2,3-1.7,4.8-1.7,5.6
		c0,2.3,1.6,3.9,4.8,4.8l0,2.4h-28.3v-2.4c2.9-0.6,4.3-2.3,4.3-5c0-0.7-0.6-2.9-1.8-6.6l-25.2-74.6c-1.2-3.7-2.4-6.2-3.4-7.5
		c-1-1.3-2.5-2.2-4.4-2.6l0-2.4h30.6v2.4c-2.7,0.7-4.1,2.2-4.1,4.4c0,1.1,0.3,2.8,1,4.9l17.4,53.5l18.9-53.8
		c0.8-2.3,1.2-3.9,1.2-4.6c0-2.3-1.4-3.7-4.3-4.4v-2.4h32v2.4c-2.9,0.9-4.4,2.5-4.4,4.8c0,0.8,0.4,2.3,1.1,4.4l17.9,53.5l17.3-52.6
		c0.9-2.6,1.4-4.6,1.4-5.9c0-2.2-1.6-3.6-4.7-4.3v-2.4h30.3v2.4c-2.2,0.7-3.6,1.6-4.5,2.7c-0.8,1.1-1.9,3.6-3.2,7.5L927.7,435
		c-1.2,3.6-1.8,5.9-1.8,7.1c0,2.4,1.5,3.9,4.6,4.5l0,2.4h-28.7v-2.4c3-0.5,4.5-2.2,4.5-5c0-0.9-0.7-3.2-2-6.7L884.8,377.9
		L884.8,377.9z M726.6,370.6c8.7-16.1,23.2-24.2,43.7-24.5c15.4,0,27.6,4.8,36.6,14.3c9.5,10,14.3,22.9,14.3,38.7
		c0,9.7-2.3,18.7-6.9,27.1c-8.9,16.4-23.5,24.6-43.9,24.6c-15.3,0-27.4-4.8-36.4-14.3c-4.8-5.1-8.5-11.2-11-18.3
		c-2.2-6.3-3.3-12.9-3.3-19.8C719.9,388.2,722.1,379,726.6,370.6L726.6,370.6z M791.6,371.9c-5.6-5.6-12.7-8.5-21.2-8.6
		c-8.4,0-15.4,2.9-21,8.6c-6.6,6.8-9.9,15.6-9.9,26.6c0,10.9,3.3,19.8,9.9,26.6c5.6,5.7,12.6,8.6,21.1,8.6c8.5,0,15.5-2.9,21.1-8.6
		c3.3-3.4,5.9-7.6,7.6-12.5c1.5-4.4,2.3-8.9,2.3-13.6C801.6,387.4,798.3,378.4,791.6,371.9L791.6,371.9z M688.1,364.5v76.7
		c0,1.5,0.3,2.7,0.9,3.5c0.6,0.8,1.7,1.4,3.3,1.9v2.4h-27.6v-2.4c1.6-0.5,2.6-1.1,3.3-1.9c0.6-0.8,0.9-2,0.9-3.5l0-76.7h-27.4
		c-1.3,0-2.3,0.3-3,1c-0.7,0.7-1.2,1.9-1.7,3.7h-2.1v-26.2h2.1c0.5,1.8,1,3,1.7,3.7c0.7,0.7,1.6,1,2.9,1l73.9,0c1.3,0,2.3-0.3,3-1
		c0.7-0.7,1.2-1.9,1.7-3.7l2.1,0v26.2h-2.1c-0.4-1.8-1-3-1.7-3.7c-0.7-0.7-1.7-1-3-1L688.1,364.5L688.1,364.5z M413.9,404.6v27.8
		h56.6c1.3,0,2.3-0.3,3-1c0.7-0.7,1.2-1.9,1.7-3.7h2.1v26.2h-2.1c-0.4-1.8-1-3-1.7-3.7c-0.7-0.7-1.7-1-3-1l-80.1,0v-2.4
		c1.6-0.5,2.6-1.1,3.3-1.9c0.6-0.8,0.9-2,0.9-3.5v-85.6c0-1.5-0.3-2.7-0.9-3.5c-0.6-0.8-1.7-1.4-3.3-1.9v-2.4H469
		c1.3,0,2.3-0.3,3-1.1c0.7-0.7,1.2-1.9,1.7-3.7l2.1,0v26.2h-2.1c-0.4-1.8-1-3-1.7-3.7c-0.7-0.7-1.7-1.1-3-1.1l-55.1,0v24h35.8
		c1.3,0,2.3-0.3,3-1c0.7-0.7,1.2-1.9,1.7-3.7l2.1,0v25.6h-2.1c-0.4-1.7-1-2.9-1.7-3.7c-0.7-0.7-1.7-1.1-3-1.1L413.9,404.6
		L413.9,404.6z M326.6,432.4h54.2c1.3,0,2.3-0.3,3-1c0.7-0.7,1.2-1.9,1.7-3.7h2.1v26.2h-2.1c-0.4-1.8-1-3-1.7-3.7
		c-0.7-0.7-1.7-1-3-1l-77.6,0v-2.4c1.6-0.5,2.6-1.1,3.3-1.9c0.6-0.8,0.9-2,0.9-3.5v-85.6c0-1.5-0.3-2.7-0.9-3.5
		c-0.6-0.8-1.7-1.4-3.3-1.9v-2.4h27.6v2.4c-1.6,0.4-2.7,1.1-3.3,1.9c-0.6,0.8-0.9,2-0.9,3.5V432.4L326.6,432.4z M237.3,408v33.3
		c0,1.5,0.3,2.6,0.9,3.4c0.6,0.8,1.7,1.4,3.2,1.9v2.4h-27.6v-2.4c1.6-0.5,2.6-1.1,3.3-1.9c0.6-0.8,0.9-1.9,0.9-3.4l0-85.7
		c0-1.5-0.3-2.7-0.9-3.5c-0.6-0.8-1.7-1.4-3.3-1.9v-2.4h55.1c6.4,0,11.5,0.5,15.3,1.5c3.8,1,7.1,2.7,10,5.1c3,2.5,5.3,5.8,7,9.9
		c1.7,4.3,2.5,8.8,2.5,13.5c0,6.8-1.6,12.8-4.8,18c-2.8,4.4-6.4,7.5-11,9.4c-4.5,1.9-10.9,2.8-19,2.8H237.3L237.3,408z M237.3,391.3
		h29.4c5.9,0,10-0.7,12.3-2.2c1.5-0.9,2.7-2.4,3.7-4.5c0.9-2.1,1.4-4.3,1.4-6.8c0-2.4-0.5-4.7-1.4-6.7c-0.9-2.1-2.1-3.6-3.7-4.5
		c-2.3-1.4-6.4-2.2-12.3-2.2l-29.4,0V391.3L237.3,391.3z M147.6,408v33.3c0,1.5,0.3,2.6,0.9,3.4c0.6,0.8,1.7,1.4,3.2,1.9v2.4h-27.6
		v-2.4c1.6-0.5,2.7-1.1,3.3-1.9c0.6-0.8,0.9-1.9,0.9-3.4v-85.7c0-1.5-0.3-2.7-0.9-3.5c-0.6-0.8-1.7-1.4-3.3-1.9v-2.4h55.1
		c6.4,0,11.5,0.5,15.3,1.5c3.8,1,7.1,2.7,10,5.1c3,2.5,5.3,5.8,7,9.9c1.7,4.3,2.5,8.8,2.5,13.5c0,6.8-1.6,12.8-4.8,18
		c-2.8,4.4-6.4,7.5-11,9.4c-4.5,1.9-10.9,2.8-19,2.8H147.6L147.6,408z M147.6,391.3H177c5.9,0,10-0.7,12.3-2.2
		c1.5-0.9,2.7-2.4,3.7-4.5c0.9-2.1,1.4-4.3,1.4-6.8c0-2.4-0.5-4.7-1.4-6.7c-0.9-2.1-2.1-3.6-3.7-4.5c-2.3-1.4-6.4-2.2-12.3-2.2
		l-29.4,0V391.3L147.6,391.3z M79.4,409.3l-14.2-35.9l-14.4,35.9H79.4z"/>
	<path class="st0" d="M1051.8,482.4c0,0,0-6.7-4.2-9.5c-1.6-1.3-1.4,0.4-1.4,0.6c0,0.1-0.3,5.9,4.5,9.1
		C1050.7,482.5,1051.7,483.3,1051.8,482.4L1051.8,482.4z M554.1,482.1c0,0,3.3-5.1,7.9-4.7c2.7-0.2,0.1,2.3,0.1,2.3
		c0,0-2.4,3.2-7.1,3.3c-0.1,0.1-0.2,0.1-0.3,0.2c-4.7,2.7-17.7-2.6-24.2-0.1c-11.2,3.9-13.6,9.8-14.9,11.1c-0.4,0.4-0.7,0.3-0.8,0.1
		c-0.2-0.3,0-0.6,0-0.6c3.3-5.7,10.2-9.6,13.5-10.9c3.7-1.3,7-2,15.1-0.4c7.1,1.2,10.2,0.3,10.7,0.2
		C553.9,482.3,554.1,482.1,554.1,482.1L554.1,482.1z M555.8,484.4c0,0,5.3,0.1,7.6,2.8c2.3,2.7,0.2,1.3-2.5,1.3
		c-3.2-0.3-4.6-2.5-5-3C555.5,485,555.3,484.5,555.8,484.4L555.8,484.4z M547,484.3c0,0,5.5,0.9,7.5,4c2,3.1,0,1.1-2.8,0.9
		c-2.7-0.1-4.2-3.3-4.5-3.8C546.8,484.8,546.1,484.2,547,484.3L547,484.3z M541.3,480.8c0,0,4.3-4.3,8.3-4.1c3.5,0,1,1.2-1.1,3
		c-2.6,2-5.5,1.6-6.2,1.6C541.6,481.3,540.9,481.3,541.3,480.8L541.3,480.8z M541.5,473.1c0,0-4.3,0-7.5,5.8
		c-1.4,2.5,0.6,1.7,0.6,1.7s5.2-1.2,7.6-6.7C542.6,473,541.5,473.1,541.5,473.1L541.5,473.1z M543.7,492.8c0,0-4.7-2.6-5.3-7.7
		c-0.3-2,1-0.9,1-0.9s4.8,2.7,4.9,7.8C544.4,492,544.5,493.1,543.7,492.8L543.7,492.8z M535.3,496c0,0-5.1-3.3-5.6-8.5
		c-0.4-2.3,1.1-1,1.1-1c0,0,5.2,2.9,5.2,8.7C536,495.2,536.2,496.4,535.3,496L535.3,496z M524.2,482.5c0,0,0-6.7,4.2-9.5
		c1.6-1.3,1.4,0.4,1.4,0.6c0,0.1,0.3,5.9-4.5,9.1C525.3,482.7,524.3,483.5,524.2,482.5L524.2,482.5z M499.4,482.1
		c0,0,3.3-5.1,7.9-4.7c2.7-0.2,0.1,2.3,0.1,2.3c0,0-2.4,3.2-7.1,3.3c-0.1,0.1-0.2,0.1-0.3,0.2c-4.7,2.7-17.7-2.6-24.2-0.1
		c-11.2,3.9-13.6,9.8-14.9,11.1c-0.4,0.4-0.7,0.3-0.8,0.1c-0.2-0.3,0-0.6,0-0.6c3.3-5.7,10.2-9.6,13.5-10.9c3.7-1.3,7-2,15.1-0.4
		c7.1,1.2,10.2,0.3,10.7,0.2C499.3,482.3,499.4,482.1,499.4,482.1L499.4,482.1z M501.2,484.4c0,0,5.3,0.1,7.6,2.8
		c2.3,2.7,0.2,1.3-2.5,1.3c-3.2-0.3-4.6-2.5-5-3C500.9,485,500.6,484.5,501.2,484.4L501.2,484.4z M492.4,484.3c0,0,5.5,0.9,7.5,4
		c2,3.1,0,1.1-2.8,0.9c-2.7-0.1-4.2-3.3-4.5-3.8C492.2,484.8,491.4,484.2,492.4,484.3L492.4,484.3z M486.6,480.8
		c0,0,4.3-4.3,8.3-4.1c3.5,0,1,1.2-1.1,3c-2.6,2-5.5,1.6-6.2,1.6C487,481.3,486.2,481.3,486.6,480.8L486.6,480.8z M486.8,473.1
		c0,0-4.3,0-7.5,5.8c-1.4,2.5,0.6,1.7,0.6,1.7s5.2-1.2,7.6-6.7C487.9,473,486.8,473.1,486.8,473.1L486.8,473.1z M489.1,492.8
		c0,0-4.7-2.6-5.3-7.7c-0.3-2,1-0.9,1-0.9s4.8,2.7,4.9,7.8C489.7,492,489.9,493.1,489.1,492.8L489.1,492.8z M480.6,496
		c0,0-5.1-3.3-5.6-8.5c-0.4-2.3,1.1-1,1.1-1c0,0,5.2,2.9,5.2,8.7C481.4,495.2,481.5,496.4,480.6,496L480.6,496z M469.5,482.5
		c0,0,0-6.7,4.2-9.5c1.6-1.3,1.4,0.4,1.4,0.6c0,0.1,0.3,5.9-4.5,9.1C470.6,482.7,469.7,483.5,469.5,482.5L469.5,482.5z M443.4,482.1
		c0,0,3.3-5.1,7.9-4.7c2.7-0.2,0.1,2.3,0.1,2.3c0,0-2.4,3.2-7.1,3.3c-0.1,0.1-0.2,0.1-0.3,0.2c-4.7,2.7-17.7-2.6-24.3-0.1
		c-11.2,3.9-13.6,9.8-14.9,11.1c-0.4,0.4-0.7,0.3-0.8,0.1c-0.1-0.3,0-0.6,0-0.6c3.3-5.7,10.2-9.6,13.5-10.9c3.7-1.3,7-2,15.1-0.4
		c7.1,1.2,10.2,0.3,10.7,0.2C443.3,482.3,443.4,482.1,443.4,482.1L443.4,482.1z M445.2,484.4c0,0,5.3,0.1,7.6,2.8
		c2.3,2.7,0.2,1.3-2.5,1.3c-3.2-0.3-4.6-2.5-5-3C444.9,485,444.6,484.5,445.2,484.4L445.2,484.4z M436.4,484.3c0,0,5.5,0.9,7.5,4
		c2,3.1,0,1.1-2.8,0.9c-2.7-0.1-4.2-3.3-4.5-3.8C436.2,484.8,435.4,484.2,436.4,484.3L436.4,484.3z M430.6,480.8
		c0,0,4.3-4.3,8.3-4.1c3.5,0,1,1.2-1.1,3c-2.6,2-5.5,1.6-6.2,1.6C431,481.3,430.2,481.3,430.6,480.8L430.6,480.8z M430.8,473.1
		c0,0-4.3,0-7.5,5.8c-1.4,2.5,0.6,1.7,0.6,1.7s5.2-1.2,7.6-6.7C431.9,473,430.8,473.1,430.8,473.1L430.8,473.1z M433.1,492.8
		c0,0-4.7-2.6-5.3-7.7c-0.3-2,1-0.9,1-0.9s4.8,2.7,4.9,7.8C433.7,492,433.9,493.1,433.1,492.8L433.1,492.8z M424.6,496
		c0,0-5.1-3.3-5.6-8.5c-0.4-2.3,1.2-1,1.2-1c0,0,5.2,2.9,5.2,8.7C425.4,495.2,425.5,496.4,424.6,496L424.6,496z M413.5,482.5
		c0,0,0-6.7,4.2-9.5c1.6-1.3,1.4,0.4,1.4,0.6c0,0.1,0.3,5.9-4.5,9.1C414.6,482.7,413.7,483.5,413.5,482.5L413.5,482.5z M387.4,482.1
		c0,0,3.3-5.1,7.9-4.7c2.7-0.2,0.1,2.3,0.1,2.3c0,0-2.4,3.2-7.1,3.3c-0.1,0.1-0.2,0.1-0.3,0.2c-4.7,2.7-17.7-2.6-24.3-0.1
		c-11.2,3.9-13.6,9.8-14.9,11.1c-0.4,0.4-0.7,0.3-0.8,0.1c-0.1-0.3,0-0.6,0-0.6c3.3-5.7,10.2-9.6,13.5-10.9c3.7-1.3,7-2,15.1-0.4
		c7.1,1.2,10.3,0.3,10.7,0.2C387.3,482.3,387.4,482.1,387.4,482.1L387.4,482.1z M389.2,484.4c0,0,5.3,0.1,7.6,2.8
		c2.3,2.7,0.2,1.3-2.5,1.3c-3.2-0.3-4.6-2.5-5-3C388.9,485,388.6,484.5,389.2,484.4L389.2,484.4z M380.4,484.3c0,0,5.5,0.9,7.5,4
		c2,3.1,0,1.1-2.8,0.9c-2.7-0.1-4.2-3.3-4.5-3.8C380.2,484.8,379.4,484.2,380.4,484.3L380.4,484.3z M374.6,480.8
		c0,0,4.3-4.3,8.3-4.1c3.5,0,1,1.2-1.1,3c-2.6,2-5.5,1.6-6.2,1.6C375,481.3,374.2,481.3,374.6,480.8L374.6,480.8z M374.8,473.1
		c0,0-4.3,0-7.5,5.8c-1.4,2.5,0.6,1.7,0.6,1.7s5.2-1.2,7.6-6.7C375.9,473,374.8,473.1,374.8,473.1L374.8,473.1z M377.1,492.8
		c0,0-4.7-2.6-5.3-7.7c-0.3-2,1-0.9,1-0.9s4.8,2.7,5,7.8C377.7,492,377.9,493.1,377.1,492.8L377.1,492.8z M368.6,496
		c0,0-5.1-3.3-5.6-8.5c-0.4-2.3,1.2-1,1.2-1c0,0,5.2,2.9,5.2,8.7C369.4,495.2,369.5,496.4,368.6,496L368.6,496z M357.5,482.5
		c0,0,0-6.7,4.2-9.5c1.6-1.3,1.4,0.4,1.4,0.6c0,0.1,0.3,5.9-4.5,9.1C358.6,482.7,357.7,483.5,357.5,482.5L357.5,482.5z M331.4,482.1
		c0,0,3.3-5.1,7.9-4.7c2.7-0.2,0.1,2.3,0.1,2.3c0,0-2.4,3.2-7.1,3.3c-0.1,0.1-0.2,0.1-0.3,0.2c-4.7,2.7-17.7-2.6-24.3-0.1
		c-11.2,3.9-13.6,9.8-14.9,11.1c-0.4,0.4-0.7,0.3-0.8,0.1c-0.1-0.3,0-0.6,0-0.6c3.3-5.7,10.2-9.6,13.5-10.9c3.7-1.3,7-2,15.1-0.4
		c7.1,1.2,10.2,0.3,10.7,0.2C331.3,482.3,331.4,482.1,331.4,482.1L331.4,482.1z M333.2,484.4c0,0,5.3,0.1,7.6,2.8
		c2.3,2.7,0.2,1.3-2.5,1.3c-3.2-0.3-4.6-2.5-5-3C332.9,485,332.6,484.5,333.2,484.4L333.2,484.4z M324.4,484.3c0,0,5.5,0.9,7.5,4
		c2,3.1,0,1.1-2.8,0.9c-2.7-0.1-4.2-3.3-4.5-3.8C324.2,484.8,323.4,484.2,324.4,484.3L324.4,484.3z M318.6,480.8
		c0,0,4.3-4.3,8.3-4.1c3.5,0,1,1.2-1.1,3c-2.6,2-5.5,1.6-6.2,1.6C319,481.3,318.2,481.3,318.6,480.8L318.6,480.8z M318.8,473.1
		c0,0-4.3,0-7.5,5.8c-1.4,2.5,0.6,1.7,0.6,1.7s5.2-1.2,7.6-6.7C319.9,473,318.8,473.1,318.8,473.1L318.8,473.1z M321.1,492.8
		c0,0-4.7-2.6-5.3-7.7c-0.3-2,1-0.9,1-0.9s4.8,2.7,4.9,7.8C321.7,492,321.9,493.1,321.1,492.8L321.1,492.8z M312.6,496
		c0,0-5.1-3.3-5.6-8.5c-0.4-2.3,1.2-1,1.2-1c0,0,5.2,2.9,5.2,8.7C313.4,495.2,313.5,496.4,312.6,496L312.6,496z M301.5,482.5
		c0,0,0-6.7,4.2-9.5c1.6-1.3,1.4,0.4,1.4,0.6c0,0.1,0.3,5.9-4.5,9.1C302.6,482.7,301.7,483.5,301.5,482.5L301.5,482.5z M276.8,482.1
		c0,0,3.3-5.1,7.9-4.7c2.7-0.2,0.1,2.3,0.1,2.3c0,0-2.4,3.2-7.1,3.3c-0.1,0.1-0.2,0.1-0.3,0.2c-4.7,2.7-17.7-2.6-24.3-0.1
		c-11.2,3.9-13.6,9.8-14.9,11.1c-0.4,0.4-0.7,0.3-0.8,0.1c-0.1-0.3,0-0.6,0-0.6c3.3-5.7,10.2-9.6,13.5-10.9c3.7-1.3,7-2,15.1-0.4
		c7.1,1.2,10.2,0.3,10.7,0.2C276.6,482.3,276.8,482.1,276.8,482.1L276.8,482.1z M278.5,484.4c0,0,5.3,0.1,7.6,2.8
		c2.3,2.7,0.2,1.3-2.5,1.3c-3.2-0.3-4.6-2.5-5-3C278.2,485,278,484.5,278.5,484.4L278.5,484.4z M269.7,484.3c0,0,5.5,0.9,7.5,4
		c2,3.1,0,1.1-2.8,0.9c-2.7-0.1-4.2-3.3-4.5-3.8C269.5,484.8,268.8,484.2,269.7,484.3L269.7,484.3z M264,480.8c0,0,4.3-4.3,8.3-4.1
		c3.5,0,1,1.2-1.1,3c-2.6,2-5.5,1.6-6.2,1.6C264.3,481.3,263.5,481.3,264,480.8L264,480.8z M264.2,473.1c0,0-4.3,0-7.5,5.8
		c-1.4,2.5,0.6,1.7,0.6,1.7s5.2-1.2,7.6-6.7C265.3,473,264.2,473.1,264.2,473.1L264.2,473.1z M266.4,492.8c0,0-4.7-2.6-5.3-7.7
		c-0.3-2,1-0.9,1-0.9s4.8,2.7,4.9,7.8C267.1,492,267.2,493.1,266.4,492.8L266.4,492.8z M258,496c0,0-5.1-3.3-5.6-8.5
		c-0.4-2.3,1.1-1,1.1-1c0,0,5.2,2.9,5.2,8.7C258.7,495.2,258.9,496.4,258,496L258,496z M246.8,482.5c0,0,0-6.7,4.2-9.5
		c1.6-1.3,1.4,0.4,1.4,0.6c0,0.1,0.3,5.9-4.5,9.1C248,482.7,247,483.5,246.8,482.5L246.8,482.5z M220.8,482.1c0,0,3.3-5.1,7.9-4.7
		c2.7-0.2,0.1,2.3,0.1,2.3c0,0-2.4,3.2-7.1,3.3c-0.1,0.1-0.2,0.1-0.3,0.2c-4.7,2.7-17.7-2.6-24.3-0.1c-11.2,3.9-13.6,9.8-14.9,11.1
		c-0.4,0.4-0.7,0.3-0.8,0.1c-0.1-0.3,0-0.6,0-0.6c3.3-5.7,10.2-9.6,13.5-10.9c3.7-1.3,7-2,15.1-0.4c7.1,1.2,10.2,0.3,10.7,0.2
		C220.6,482.3,220.8,482.1,220.8,482.1L220.8,482.1z M222.5,484.4c0,0,5.3,0.1,7.6,2.8c2.3,2.7,0.2,1.3-2.5,1.3
		c-3.2-0.3-4.6-2.5-5-3C222.2,485,222,484.5,222.5,484.4L222.5,484.4z M213.7,484.3c0,0,5.5,0.9,7.5,4c2,3.1,0,1.1-2.8,0.9
		c-2.7-0.1-4.2-3.3-4.5-3.8C213.5,484.8,212.8,484.2,213.7,484.3L213.7,484.3z M208,480.8c0,0,4.3-4.3,8.3-4.1c3.5,0,1,1.2-1.1,3
		c-2.6,2-5.5,1.6-6.2,1.6C208.3,481.3,207.5,481.3,208,480.8L208,480.8z M208.2,473.1c0,0-4.3,0-7.5,5.8c-1.4,2.5,0.6,1.7,0.6,1.7
		s5.2-1.2,7.6-6.7C209.3,473,208.2,473.1,208.2,473.1L208.2,473.1z M210.4,492.8c0,0-4.7-2.6-5.3-7.7c-0.3-2,1-0.9,1-0.9
		s4.8,2.7,4.9,7.8C211.1,492,211.2,493.1,210.4,492.8L210.4,492.8z M202,496c0,0-5.1-3.3-5.6-8.5c-0.4-2.3,1.2-1,1.2-1
		c0,0,5.2,2.9,5.2,8.7C202.7,495.2,202.9,496.4,202,496L202,496z M190.9,482.5c0,0,0-6.7,4.2-9.5c1.6-1.3,1.4,0.4,1.4,0.6
		c0,0.1,0.3,5.9-4.5,9.1C192,482.7,191,483.5,190.9,482.5L190.9,482.5z M164.8,482.1c0,0,3.3-5.1,7.9-4.7c2.7-0.2,0.1,2.3,0.1,2.3
		c0,0-2.4,3.2-7.1,3.3c-0.1,0.1-0.2,0.1-0.3,0.2c-4.7,2.7-17.7-2.6-24.3-0.1c-11.2,3.9-13.6,9.8-14.9,11.1c-0.4,0.4-0.7,0.3-0.8,0.1
		c-0.1-0.3,0-0.6,0-0.6c3.3-5.7,10.2-9.6,13.5-10.9c3.7-1.3,7-2,15.1-0.4c7.1,1.2,10.3,0.3,10.7,0.2
		C164.6,482.3,164.8,482.1,164.8,482.1L164.8,482.1z M166.5,484.4c0,0,5.3,0.1,7.6,2.8c2.3,2.7,0.2,1.3-2.5,1.3
		c-3.2-0.3-4.6-2.5-5-3C166.3,485,166,484.5,166.5,484.4L166.5,484.4z M157.8,484.3c0,0,5.5,0.9,7.5,4c2,3.1,0,1.1-2.8,0.9
		c-2.7-0.1-4.2-3.3-4.5-3.8C157.5,484.8,156.8,484.2,157.8,484.3L157.8,484.3z M152,480.8c0,0,4.3-4.3,8.3-4.1c3.5,0,1,1.2-1.1,3
		c-2.6,2-5.5,1.6-6.2,1.6C152.3,481.3,151.6,481.3,152,480.8L152,480.8z M152.2,473.1c0,0-4.3,0-7.5,5.8c-1.4,2.5,0.6,1.7,0.6,1.7
		s5.2-1.2,7.6-6.7C153.3,473,152.2,473.1,152.2,473.1L152.2,473.1z M154.4,492.8c0,0-4.7-2.6-5.3-7.7c-0.3-2,1-0.9,1-0.9
		s4.8,2.7,4.9,7.8C155.1,492,155.2,493.1,154.4,492.8L154.4,492.8z M146,496c0,0-5.1-3.3-5.6-8.5c-0.4-2.3,1.2-1,1.2-1
		c0,0,5.2,2.9,5.2,8.7C146.8,495.2,146.9,496.4,146,496L146,496z M134.9,482.5c0,0,0-6.7,4.2-9.5c1.6-1.3,1.4,0.4,1.4,0.6
		c0,0.1,0.3,5.9-4.5,9.1C136,482.7,135,483.5,134.9,482.5L134.9,482.5z M108.8,482.1c0,0,3.3-5.1,7.9-4.7c2.7-0.2,0.1,2.3,0.1,2.3
		c0,0-2.4,3.2-7.1,3.3c-0.1,0.1-0.2,0.1-0.3,0.2c-4.7,2.7-17.7-2.6-24.3-0.1c-11.2,3.9-13.6,9.8-14.9,11.1c-0.4,0.4-0.7,0.3-0.8,0.1
		c-0.1-0.3,0-0.6,0-0.6c3.3-5.7,10.2-9.6,13.5-10.9c3.7-1.3,7-2,15.1-0.4c7.1,1.2,10.2,0.3,10.7,0.2
		C108.6,482.3,108.8,482.1,108.8,482.1L108.8,482.1z M110.6,484.4c0,0,5.3,0.1,7.6,2.8c2.3,2.7,0.2,1.3-2.5,1.3
		c-3.2-0.3-4.6-2.5-5-3C110.3,485,110,484.5,110.6,484.4L110.6,484.4z M101.8,484.3c0,0,5.5,0.9,7.5,4c2,3.1,0,1.1-2.8,0.9
		c-2.7-0.1-4.2-3.3-4.5-3.8C101.5,484.8,100.8,484.2,101.8,484.3L101.8,484.3z M96,480.8c0,0,4.3-4.3,8.3-4.1c3.5,0,1,1.2-1.1,3
		c-2.6,2-5.5,1.6-6.2,1.6C96.4,481.3,95.6,481.3,96,480.8L96,480.8z M96.2,473.1c0,0-4.3,0-7.5,5.8c-1.4,2.5,0.6,1.7,0.6,1.7
		s5.2-1.2,7.6-6.7C97.3,473,96.2,473.1,96.2,473.1L96.2,473.1z M98.4,492.8c0,0-4.7-2.6-5.3-7.7c-0.3-2,1-0.9,1-0.9s4.8,2.7,4.9,7.8
		C99.1,492,99.3,493.1,98.4,492.8L98.4,492.8z M90,496c0,0-5.1-3.3-5.6-8.5c-0.4-2.3,1.2-1,1.2-1c0,0,5.2,2.9,5.2,8.7
		C90.8,495.2,90.9,496.4,90,496L90,496z M78.9,482.5c0,0,0-6.7,4.2-9.5c1.6-1.3,1.4,0.4,1.4,0.6c0,0.1,0.3,5.9-4.5,9.1
		C80,482.7,79,483.5,78.9,482.5L78.9,482.5z M22.9,482.5c0,0,0-6.7,4.2-9.5c1.6-1.3,1.4,0.4,1.4,0.6c0,0.1,0.3,5.9-4.5,9.1
		C24,482.7,23.1,483.5,22.9,482.5L22.9,482.5z M52.8,482.1c0,0,3.3-5.1,7.9-4.7c2.7-0.2,0.1,2.3,0.1,2.3c0,0-2.4,3.2-7.1,3.3
		c-0.1,0.1-0.2,0.1-0.3,0.2c-4.7,2.7-17.7-2.6-24.3-0.1c-11.2,3.9-13.6,9.8-14.9,11.1c-0.4,0.4-0.7,0.3-0.8,0.1
		c-0.1-0.3,0-0.6,0-0.6c3.3-5.7,10.2-9.6,13.5-10.9c3.7-1.3,7-2,15.1-0.4c7.1,1.2,10.2,0.3,10.7,0.2
		C52.7,482.3,52.8,482.1,52.8,482.1L52.8,482.1z M54.6,484.4c0,0,5.3,0.1,7.6,2.8c2.3,2.7,0.2,1.3-2.5,1.3c-3.2-0.3-4.6-2.5-5-3
		C54.3,485,54,484.5,54.6,484.4L54.6,484.4z M45.8,484.3c0,0,5.5,0.9,7.5,4c2,3.1,0,1.1-2.8,0.9c-2.7-0.1-4.2-3.3-4.5-3.8
		C45.6,484.8,44.8,484.2,45.8,484.3L45.8,484.3z M40,480.8c0,0,4.3-4.3,8.3-4.1c3.5,0,1,1.2-1.1,3c-2.6,2-5.5,1.6-6.2,1.6
		C40.4,481.3,39.6,481.3,40,480.8L40,480.8z M40.2,473.1c0,0-4.3,0-7.5,5.8c-1.4,2.5,0.6,1.7,0.6,1.7s5.2-1.2,7.6-6.7
		C41.3,473,40.2,473.1,40.2,473.1L40.2,473.1z M42.4,492.8c0,0-4.7-2.6-5.3-7.7c-0.3-2,1-0.9,1-0.9s4.8,2.7,4.9,7.8
		C43.1,492,43.3,493.1,42.4,492.8L42.4,492.8z M34,496c0,0-5.1-3.3-5.6-8.5c-0.4-2.3,1.2-1,1.2-1c0,0,5.2,2.9,5.2,8.7
		C34.8,495.2,34.9,496.4,34,496L34,496z M586.8,481.9c0,0-3.3-5.1-7.9-4.7c-2.7-0.2-0.1,2.3-0.1,2.3c0,0,2.4,3.2,7.1,3.3
		c0.1,0,0.2,0.1,0.3,0.2c4.7,2.7,17.7-2.6,24.3-0.1c11.2,3.9,13.6,9.8,14.9,11.1c0.4,0.4,0.7,0.3,0.8,0.1c0.2-0.3,0-0.6,0-0.6
		c-3.3-5.7-10.2-9.6-13.5-10.9c-3.7-1.3-7-2-15.1-0.4c-7.1,1.2-10.3,0.3-10.7,0.2C586.9,482.1,586.8,481.9,586.8,481.9L586.8,481.9z
		 M585,484.2c0,0-5.3,0.1-7.6,2.8c-2.3,2.7-0.2,1.3,2.5,1.3c3.2-0.3,4.6-2.5,5-3C585.3,484.8,585.5,484.4,585,484.2L585,484.2z
		 M593.8,484.2c0,0-5.5,0.9-7.5,4c-2,3.1,0,1.1,2.8,0.9c2.7-0.1,4.2-3.3,4.5-3.8C594,484.7,594.7,484,593.8,484.2L593.8,484.2z
		 M599.5,480.6c0,0-4.3-4.3-8.3-4.1c-3.5,0-1,1.2,1.1,3c2.6,2,5.5,1.6,6.2,1.6C599.2,481.2,600,481.1,599.5,480.6L599.5,480.6z
		 M599.4,472.9c0,0,4.3,0,7.5,5.8c1.4,2.5-0.6,1.7-0.6,1.7s-5.2-1.2-7.6-6.7C598.2,472.8,599.4,472.9,599.4,472.9L599.4,472.9z
		 M597.1,492.6c0,0,4.7-2.6,5.3-7.7c0.3-2-1-0.8-1-0.8c0,0-4.8,2.7-4.9,7.8C596.4,491.9,596.3,493,597.1,492.6L597.1,492.6z
		 M605.5,495.9c0,0,5.1-3.3,5.6-8.5c0.4-2.3-1.2-1-1.2-1c0,0-5.2,2.9-5.2,8.7C604.8,495,604.6,496.2,605.5,495.9L605.5,495.9z
		 M616.7,482.4c0,0,0-6.7-4.2-9.5c-1.6-1.3-1.4,0.4-1.4,0.6c0,0.1-0.3,5.9,4.5,9.1C615.6,482.5,616.5,483.3,616.7,482.4L616.7,482.4
		z M641.2,481.9c0,0-3.3-5.1-7.9-4.7c-2.7-0.2-0.1,2.3-0.1,2.3c0,0,2.4,3.2,7.1,3.3c0.1,0,0.2,0.1,0.3,0.2
		c4.7,2.7,17.7-2.6,24.3-0.1c11.2,3.9,13.6,9.8,14.9,11.1c0.4,0.4,0.7,0.3,0.8,0.1c0.2-0.3,0-0.6,0-0.6c-3.3-5.7-10.2-9.6-13.5-10.9
		c-3.7-1.3-7-2-15.1-0.4c-7.1,1.2-10.3,0.3-10.7,0.2C641.3,482.1,641.2,481.9,641.2,481.9L641.2,481.9z M639.4,484.2
		c0,0-5.3,0.1-7.6,2.8c-2.3,2.7-0.2,1.3,2.5,1.3c3.2-0.3,4.6-2.5,5-3C639.7,484.8,639.9,484.4,639.4,484.2L639.4,484.2z
		 M648.2,484.2c0,0-5.5,0.9-7.5,4c-2,3.1,0,1.1,2.8,0.9c2.7-0.1,4.2-3.3,4.5-3.8C648.4,484.7,649.1,484,648.2,484.2L648.2,484.2z
		 M653.9,480.6c0,0-4.3-4.3-8.3-4.1c-3.5,0-1,1.2,1.1,3c2.6,2,5.5,1.6,6.2,1.6C653.6,481.2,654.4,481.1,653.9,480.6L653.9,480.6z
		 M653.8,472.9c0,0,4.3,0,7.5,5.8c1.4,2.5-0.6,1.7-0.6,1.7s-5.2-1.2-7.6-6.7C652.6,472.8,653.8,472.9,653.8,472.9L653.8,472.9z
		 M651.5,492.6c0,0,4.7-2.6,5.3-7.7c0.3-2-1-0.8-1-0.8c0,0-4.8,2.7-4.9,7.8C650.8,491.9,650.7,493,651.5,492.6L651.5,492.6z
		 M659.9,495.9c0,0,5.1-3.3,5.6-8.5c0.4-2.3-1.2-1-1.2-1c0,0-5.2,2.9-5.2,8.7C659.2,495,659,496.2,659.9,495.9L659.9,495.9z
		 M671.1,482.4c0,0,0-6.7-4.2-9.5c-1.6-1.3-1.4,0.4-1.4,0.6c0,0.1-0.3,5.9,4.5,9.1C670,482.5,670.9,483.3,671.1,482.4L671.1,482.4z
		 M695.5,481.9c0,0-3.3-5.1-7.9-4.7c-2.7-0.2-0.1,2.3-0.1,2.3c0,0,2.4,3.2,7.1,3.3c0.1,0,0.2,0.1,0.3,0.2c4.7,2.7,17.7-2.6,24.3-0.1
		c11.2,3.9,13.6,9.8,14.9,11.1c0.4,0.4,0.7,0.3,0.8,0.1c0.2-0.3,0-0.6,0-0.6c-3.3-5.7-10.2-9.6-13.5-10.9c-3.7-1.3-7-2-15.1-0.4
		c-7.1,1.2-10.3,0.3-10.7,0.2C695.7,482.1,695.5,481.9,695.5,481.9L695.5,481.9z M693.8,484.2c0,0-5.3,0.1-7.6,2.8
		c-2.3,2.7-0.2,1.3,2.5,1.3c3.2-0.3,4.6-2.5,5-3C694.1,484.8,694.3,484.4,693.8,484.2L693.8,484.2z M702.6,484.2c0,0-5.5,0.9-7.5,4
		c-2,3.1,0,1.1,2.8,0.9c2.7-0.1,4.2-3.3,4.5-3.8C702.8,484.7,703.5,484,702.6,484.2L702.6,484.2z M708.3,480.6c0,0-4.3-4.3-8.3-4.1
		c-3.5,0-1,1.2,1.1,3c2.6,2,5.5,1.6,6.2,1.6C708,481.2,708.8,481.1,708.3,480.6L708.3,480.6z M708.2,472.9c0,0,4.3,0,7.5,5.8
		c1.4,2.5-0.6,1.7-0.6,1.7s-5.2-1.2-7.6-6.7C707,472.8,708.1,472.9,708.2,472.9L708.2,472.9z M705.9,492.6c0,0,4.7-2.6,5.3-7.7
		c0.3-2-1-0.8-1-0.8c0,0-4.8,2.7-4.9,7.8C705.2,491.9,705.1,493,705.9,492.6L705.9,492.6z M714.3,495.9c0,0,5.1-3.3,5.6-8.5
		c0.4-2.3-1.2-1-1.2-1c0,0-5.2,2.9-5.2,8.7C713.6,495,713.4,496.2,714.3,495.9L714.3,495.9z M725.5,482.4c0,0,0-6.7-4.2-9.5
		c-1.6-1.3-1.4,0.4-1.4,0.6c0,0.1-0.3,5.9,4.5,9.1C724.3,482.5,725.3,483.3,725.5,482.4L725.5,482.4z M749.9,481.9
		c0,0-3.3-5.1-7.9-4.7c-2.7-0.2-0.1,2.3-0.1,2.3c0,0,2.4,3.2,7.1,3.3c0.1,0,0.2,0.1,0.3,0.2c4.7,2.7,17.7-2.6,24.3-0.1
		c11.2,3.9,13.6,9.8,14.9,11.1c0.4,0.4,0.7,0.3,0.8,0.1c0.2-0.3,0-0.6,0-0.6c-3.3-5.7-10.2-9.6-13.5-10.9c-3.7-1.3-7-2-15.1-0.4
		c-7.1,1.2-10.2,0.3-10.7,0.2C750.1,482.1,749.9,481.9,749.9,481.9L749.9,481.9z M748.2,484.2c0,0-5.3,0.1-7.6,2.8
		c-2.3,2.7-0.2,1.3,2.5,1.3c3.2-0.3,4.6-2.5,5-3C748.5,484.8,748.7,484.4,748.2,484.2L748.2,484.2z M757,484.2c0,0-5.5,0.9-7.5,4
		c-2,3.1,0,1.1,2.8,0.9c2.7-0.1,4.2-3.3,4.5-3.8C757.2,484.7,757.9,484,757,484.2L757,484.2z M762.7,480.6c0,0-4.3-4.3-8.3-4.1
		c-3.5,0-1,1.2,1.1,3c2.6,2,5.5,1.6,6.2,1.6C762.4,481.2,763.2,481.1,762.7,480.6L762.7,480.6z M762.5,472.9c0,0,4.3,0,7.5,5.8
		c1.4,2.5-0.6,1.7-0.6,1.7s-5.2-1.2-7.6-6.7C761.4,472.8,762.5,472.9,762.5,472.9L762.5,472.9z M760.3,492.6c0,0,4.7-2.6,5.3-7.7
		c0.3-2-1-0.8-1-0.8c0,0-4.8,2.7-4.9,7.8C759.6,491.9,759.5,493,760.3,492.6L760.3,492.6z M768.7,495.9c0,0,5.1-3.3,5.6-8.5
		c0.4-2.3-1.2-1-1.2-1c0,0-5.2,2.9-5.2,8.7C768,495,767.8,496.2,768.7,495.9L768.7,495.9z M779.9,482.4c0,0,0-6.7-4.2-9.5
		c-1.6-1.3-1.4,0.4-1.4,0.6c0,0.1-0.3,5.9,4.5,9.1C778.7,482.5,779.7,483.3,779.9,482.4L779.9,482.4z M804.3,481.9
		c0,0-3.3-5.1-7.9-4.7c-2.7-0.2-0.1,2.3-0.1,2.3c0,0,2.4,3.2,7.1,3.3c0.1,0,0.2,0.1,0.3,0.2c4.7,2.7,17.7-2.6,24.3-0.1
		c11.2,3.9,13.6,9.8,14.9,11.1c0.4,0.4,0.7,0.3,0.8,0.1c0.2-0.3,0-0.6,0-0.6c-3.3-5.7-10.2-9.6-13.5-10.9c-3.7-1.3-7-2-15.1-0.4
		c-7.1,1.2-10.3,0.3-10.7,0.2C804.5,482.1,804.3,481.9,804.3,481.9L804.3,481.9z M802.6,484.2c0,0-5.3,0.1-7.6,2.8
		c-2.3,2.7-0.2,1.3,2.5,1.3c3.2-0.3,4.6-2.5,5-3C802.9,484.8,803.1,484.4,802.6,484.2L802.6,484.2z M811.4,484.2c0,0-5.5,0.9-7.5,4
		c-2,3.1,0,1.1,2.8,0.9c2.7-0.1,4.2-3.3,4.5-3.8C811.6,484.7,812.3,484,811.4,484.2L811.4,484.2z M817.1,480.6c0,0-4.3-4.3-8.3-4.1
		c-3.5,0-1,1.2,1.1,3c2.6,2,5.5,1.6,6.2,1.6C816.8,481.2,817.6,481.1,817.1,480.6L817.1,480.6z M816.9,472.9c0,0,4.3,0,7.5,5.8
		c1.4,2.5-0.6,1.7-0.6,1.7s-5.2-1.2-7.6-6.7C815.8,472.8,816.9,472.9,816.9,472.9L816.9,472.9z M814.7,492.6c0,0,4.7-2.6,5.3-7.7
		c0.3-2-1-0.8-1-0.8c0,0-4.8,2.7-4.9,7.8C814,491.9,813.9,493,814.7,492.6L814.7,492.6z M823.1,495.9c0,0,5.1-3.3,5.6-8.5
		c0.4-2.3-1.1-1-1.1-1c0,0-5.2,2.9-5.2,8.7C822.4,495,822.2,496.2,823.1,495.9L823.1,495.9z M834.3,482.4c0,0,0-6.7-4.2-9.5
		c-1.6-1.3-1.4,0.4-1.4,0.6c0,0.1-0.3,5.9,4.5,9.1C833.1,482.5,834.1,483.3,834.3,482.4L834.3,482.4z M858.7,481.9
		c0,0-3.3-5.1-7.9-4.7c-2.7-0.2-0.1,2.3-0.1,2.3c0,0,2.4,3.2,7.1,3.3c0.1,0,0.2,0.1,0.3,0.2c4.7,2.7,17.7-2.6,24.3-0.1
		c11.2,3.9,13.6,9.8,14.9,11.1c0.4,0.4,0.7,0.3,0.8,0.1c0.2-0.3,0-0.6,0-0.6c-3.3-5.7-10.2-9.6-13.5-10.9c-3.7-1.3-7-2-15.1-0.4
		c-7.1,1.2-10.3,0.3-10.7,0.2C858.9,482.1,858.7,481.9,858.7,481.9L858.7,481.9z M857,484.2c0,0-5.3,0.1-7.6,2.8
		c-2.3,2.7-0.2,1.3,2.5,1.3c3.2-0.3,4.6-2.5,5-3C857.3,484.8,857.5,484.4,857,484.2L857,484.2z M865.8,484.2c0,0-5.5,0.9-7.5,4
		c-2,3.1,0,1.1,2.8,0.9c2.7-0.1,4.2-3.3,4.5-3.8C866,484.7,866.7,484,865.8,484.2L865.8,484.2z M871.5,480.6c0,0-4.3-4.3-8.3-4.1
		c-3.5,0-1,1.2,1.1,3c2.6,2,5.5,1.6,6.2,1.6C871.2,481.2,871.9,481.1,871.5,480.6L871.5,480.6z M871.3,472.9c0,0,4.3,0,7.5,5.8
		c1.4,2.5-0.6,1.7-0.6,1.7s-5.2-1.2-7.6-6.7C870.2,472.8,871.3,472.9,871.3,472.9L871.3,472.9z M869.1,492.6c0,0,4.7-2.6,5.3-7.7
		c0.3-2-1-0.8-1-0.8c0,0-4.8,2.7-4.9,7.8C868.4,491.9,868.3,493,869.1,492.6L869.1,492.6z M877.5,495.9c0,0,5.1-3.3,5.6-8.5
		c0.4-2.3-1.2-1-1.2-1c0,0-5.2,2.9-5.2,8.7C876.8,495,876.6,496.2,877.5,495.9L877.5,495.9z M888.6,482.4c0,0,0-6.7-4.2-9.5
		c-1.6-1.3-1.4,0.4-1.4,0.6c0,0.1-0.3,5.9,4.5,9.1C887.5,482.5,888.5,483.3,888.6,482.4L888.6,482.4z M913.1,481.9
		c0,0-3.3-5.1-7.9-4.7c-2.7-0.2-0.1,2.3-0.1,2.3c0,0,2.4,3.2,7.1,3.3c0.1,0,0.2,0.1,0.3,0.2c4.7,2.7,17.7-2.6,24.3-0.1
		c11.2,3.9,13.6,9.8,14.9,11.1c0.4,0.4,0.7,0.3,0.8,0.1c0.2-0.3,0-0.6,0-0.6c-3.3-5.7-10.2-9.6-13.5-10.9c-3.7-1.3-7-2-15.1-0.4
		c-7.1,1.2-10.2,0.3-10.7,0.2C913.3,482.1,913.1,481.9,913.1,481.9L913.1,481.9z M911.4,484.2c0,0-5.3,0.1-7.6,2.8
		c-2.3,2.7-0.2,1.3,2.5,1.3c3.2-0.3,4.6-2.5,5-3C911.7,484.8,911.9,484.4,911.4,484.2L911.4,484.2z M920.2,484.2c0,0-5.5,0.9-7.5,4
		c-2,3.1,0,1.1,2.8,0.9c2.7-0.1,4.2-3.3,4.5-3.8C920.4,484.7,921.1,484,920.2,484.2L920.2,484.2z M925.9,480.6c0,0-4.3-4.3-8.3-4.1
		c-3.5,0-1,1.2,1.1,3c2.6,2,5.5,1.6,6.2,1.6C925.6,481.2,926.3,481.1,925.9,480.6L925.9,480.6z M925.7,472.9c0,0,4.3,0,7.5,5.8
		c1.4,2.5-0.6,1.7-0.6,1.7c0,0-5.2-1.2-7.6-6.7C924.6,472.8,925.7,472.9,925.7,472.9L925.7,472.9z M923.5,492.6c0,0,4.7-2.6,5.3-7.7
		c0.3-2-1-0.8-1-0.8c0,0-4.8,2.7-4.9,7.8C922.8,491.9,922.7,493,923.5,492.6L923.5,492.6z M931.9,495.9c0,0,5.1-3.3,5.6-8.5
		c0.4-2.3-1.1-1-1.1-1c0,0-5.2,2.9-5.2,8.7C931.2,495,931,496.2,931.9,495.9L931.9,495.9z M943,482.4c0,0,0-6.7-4.2-9.5
		c-1.6-1.3-1.4,0.4-1.4,0.6c0,0.1-0.3,5.9,4.5,9.1C941.9,482.5,942.9,483.3,943,482.4L943,482.4z M967.5,481.9c0,0-3.3-5.1-7.9-4.7
		c-2.7-0.2-0.1,2.3-0.1,2.3c0,0,2.4,3.2,7.1,3.3c0.1,0,0.2,0.1,0.3,0.2c4.7,2.7,17.7-2.6,24.3-0.1c11.2,3.9,13.6,9.8,14.9,11.1
		c0.4,0.4,0.7,0.3,0.8,0.1c0.2-0.3,0-0.6,0-0.6c-3.3-5.7-10.2-9.6-13.5-10.9c-3.7-1.3-7-2-15.1-0.4c-7.1,1.2-10.2,0.3-10.7,0.2
		C967.7,482.1,967.5,481.9,967.5,481.9L967.5,481.9z M965.8,484.2c0,0-5.3,0.1-7.6,2.8c-2.3,2.7-0.2,1.3,2.5,1.3
		c3.2-0.3,4.6-2.5,5-3C966,484.8,966.3,484.4,965.8,484.2L965.8,484.2z M974.5,484.2c0,0-5.5,0.9-7.5,4c-2,3.1,0,1.1,2.8,0.9
		c2.7-0.1,4.2-3.3,4.5-3.8C974.8,484.7,975.5,484,974.5,484.2L974.5,484.2z M980.3,480.6c0,0-4.3-4.3-8.3-4.1c-3.5,0-1,1.2,1.1,3
		c2.6,2,5.5,1.6,6.2,1.6C980,481.2,980.7,481.1,980.3,480.6L980.3,480.6z M980.1,472.9c0,0,4.3,0,7.5,5.8c1.4,2.5-0.6,1.7-0.6,1.7
		c0,0-5.2-1.2-7.6-6.7C979,472.8,980.1,472.9,980.1,472.9L980.1,472.9z M977.9,492.6c0,0,4.7-2.6,5.3-7.7c0.3-2-1-0.8-1-0.8
		c0,0-4.8,2.7-4.9,7.8C977.2,491.9,977.1,493,977.9,492.6L977.9,492.6z M986.3,495.9c0,0,5.1-3.3,5.6-8.5c0.4-2.3-1.2-1-1.2-1
		c0,0-5.2,2.9-5.2,8.7C985.5,495,985.4,496.2,986.3,495.9L986.3,495.9z M997.4,482.4c0,0,0-6.7-4.2-9.5c-1.6-1.3-1.4,0.4-1.4,0.6
		c0,0.1-0.3,5.9,4.5,9.1C996.3,482.5,997.3,483.3,997.4,482.4L997.4,482.4z M1021.9,481.9c0,0-3.3-5.1-7.9-4.7
		c-2.7-0.2-0.1,2.3-0.1,2.3c0,0,2.4,3.2,7.1,3.3c0.1,0,0.2,0.1,0.3,0.2c4.7,2.7,17.7-2.6,24.3-0.1c11.2,3.9,13.6,9.8,14.9,11.1
		c0.4,0.4,0.7,0.3,0.8,0.1c0.2-0.3,0-0.6,0-0.6c-3.3-5.7-10.2-9.6-13.5-10.9c-3.7-1.3-7-2-15.1-0.4c-7.1,1.2-10.2,0.3-10.7,0.2
		C1022.1,482.1,1021.9,481.9,1021.9,481.9L1021.9,481.9z M1020.1,484.2c0,0-5.3,0.1-7.6,2.8c-2.3,2.7-0.2,1.3,2.5,1.3
		c3.2-0.3,4.6-2.5,5-3C1020.4,484.8,1020.7,484.4,1020.1,484.2L1020.1,484.2z M1028.9,484.2c0,0-5.5,0.9-7.5,4c-2,3.1,0,1.1,2.8,0.9
		c2.7-0.1,4.2-3.3,4.5-3.8C1029.2,484.7,1029.9,484,1028.9,484.2L1028.9,484.2z M1034.7,480.6c0,0-4.3-4.3-8.3-4.1
		c-3.5,0-1,1.2,1.1,3c2.6,2,5.5,1.6,6.2,1.6C1034.4,481.2,1035.1,481.1,1034.7,480.6L1034.7,480.6z M1034.5,472.9c0,0,4.3,0,7.5,5.8
		c1.4,2.5-0.6,1.7-0.6,1.7s-5.2-1.2-7.6-6.7C1033.4,472.8,1034.5,472.9,1034.5,472.9L1034.5,472.9z M1032.3,492.6
		c0,0,4.7-2.6,5.3-7.7c0.3-2-1-0.8-1-0.8c0,0-4.8,2.7-4.9,7.8C1031.6,491.9,1031.5,493,1032.3,492.6L1032.3,492.6z M1040.7,495.9
		c0,0,5.1-3.3,5.6-8.5c0.4-2.3-1.2-1-1.2-1c0,0-5.2,2.9-5.2,8.7C1039.9,495,1039.8,496.2,1040.7,495.9z"/>
	<path class="st0" d="M574.4,95.2l3.2,76.1l20.3-42.3c-2.1-4.8-1.8-46.6,33.8-61.1c5.7-2.6,2.6-7.8,1.1-9.3
		c-1.6-1.4,5.3-3.2,5.6,9.3c0.4,17,6.3,56.7-31.5,64.1c-28.3,61-17.4,55.9-17.4,55.9c0,0,15.9-14.8,28.9-19.3
		c9.7-4.5,12.5-3.7,21.8-3c12.1,1.8,20.4,8.1,27.8,5.2c7.4-3,21.9-8.5,36.3,6.3c14.4,14.8,18.5,19.6,25.2,16.3
		c6.7-3.3,3,10.7-29.3,13.3c-32.3,2.4-38.5-24.1-38.5-24.5c0,0-57.4-20-69.7,48.9c-2,9.3,3.8,5,3.8,5c0,0,35-26.9,60.8-17.6
		c2.8,1,5.5,3.2,8.4,3.8c7.4,1.5,11.8-8.9,11.8-8.9c0.2-0.4,4-6.6,13.7-1.3c7.8,5.7,5,9.2,14.9,14.9c-0.6,0-5.8,3.9-19.8-5.4
		c-4.1-2.8-8.4-1.5-13.9,6.5c0,4.8,4.8,12.6,0.4,33c0,0,34.8,1.5,35.9,38.9c1.1,37.4-7,30.4-7,30.4s7.9-5.3-2.7-10.2
		c-10.7-2.6-31.4-24.7-28-45.4c-1.3-4.5-7,6.8-9.2,10.8c1.7,1.6,3,3.7,3.6,6.4c2.2,10.3-6,21-7.6,24.1c-1.5,3.1-6,7.9-12.8,5.8
		c-1.9-1.6-4.1,0-4.1,0s-6.2,3-10.7-3.4c-1.4-2.1-3.3-4.5-5-7.4c-3.8-6.5-5.2-13.4-3.3-20.9c1.7-6.6,5.9-10.4,13.8-9
		c2.1,1.1,4.5,0.6,4.5,0.6c0,0.2-1.3,1-2.3,1.3c-0.9,0.3,0,0.7,1.1,1.2c1.3,0.3,2.1,0.9,6.4-0.6c1.3-0.7,0.3-0.9-0.3-1
		c-1.8-0.4-1.6-0.7-1.6-0.7c0,0,2.1,0.6,4.5-0.5c1.1-0.5,4.2-0.5,7.5,0.5c0.1-0.1,0.1-0.2,0.2-0.3c3.6-10.8,26.5-51.2-8.7-53.4
		c-18.4,2.6-31.1,10.9-39.5,20.8c-4.9,5.8-9.2,12.8-11.3,20.2c-1.6,5.9-1.4,10.4-1.4,17.5c0.1,30.4,1.3,104.7,9.1,125.7
		c1.6,4.6,3.6,8.5,6.1,11.8c2.4,3.3,5.4,6.1,8.9,8.4c2.7,2.5,8,4.6,10.8,4.8v11.1h-59.7h-1.2h-59.7v-11.1c2.8-0.2,8.1-2.3,10.8-4.8
		c3.5-2.3,6.5-5.1,8.9-8.4c2.4-3.3,4.5-7.3,6.1-11.8c8.2-21.9,9-102,9.1-129.5c0-8.2-0.4-12.8-4.1-20.5c-7.1-15-21.8-30.4-48.1-34.2
		c-35.2,2.1-12.3,42.5-8.7,53.4c0.1,0.1,0.1,0.2,0.2,0.3c3.3-1,6.5-1,7.5-0.5c2.4,1.1,4.5,0.5,4.5,0.5c0,0,0.1,0.3-1.6,0.7
		c-0.5,0-1.6,0.2-0.3,1c4.3,1.5,5.2,0.9,6.4,0.6c1.2-0.5,2.1-0.9,1.1-1.2c-0.9-0.3-2.3-1.2-2.3-1.3c0,0,2.4,0.6,4.5-0.6
		c10.1-1.8,12.8,6,12.8,6c5.7,14.7-2.9,24.9-7.3,31.3c-4.5,6.4-10.7,3.4-10.7,3.4s-2.2-1.6-4.1,0c-6.8,2.1-11.3-2.7-12.8-5.8
		c-1.5-3.1-9.7-13.8-7.6-24.1c0.6-2.7,1.9-4.8,3.6-6.4c-2.2-4.1-7.9-15.3-9.2-10.8c3.3,20.7-17.3,42.8-28,45.4
		c-10.6,4.9-2.7,10.2-2.7,10.2c0,0-8.1,7-7-30.4c1.1-37.4,35.9-38.9,35.9-38.9c-4.4-20.4,0.4-28.2,0.4-33c-5.6-8-9.8-9.3-13.9-6.5
		c-13.9,9.3-19.1,5.3-19.8,5.4c9.9-5.7,7.1-9.2,14.9-14.9c9.6-5.3,13.7,1.3,13.7,1.3c0,0,5.8,13.6,15.2,7.4
		c26-15.4,65.9,15.2,65.9,15.2c0,0,5.8,4.4,3.8-5c-12.2-68.9-69.7-48.9-69.7-48.9c0,0-6.3,27-38.5,24.5
		c-32.2-2.6-35.9-16.7-29.3-13.3c6.7,3.3,10.8-1.5,25.2-16.3c14.4-14.8,28.9-9.3,36.3-6.3c7.4,3,15.7-3.4,27.8-5.2
		c9.4-0.8,12.1-1.5,21.8,3c13,4.4,28.9,19.3,28.9,19.3s10.9,5.1-17.4-55.9c-37.8-7.4-31.9-47.1-31.5-64.1c0.3-12.5,7.2-10.7,5.6-9.3
		c-1.5,1.5-4.6,6.7,1.1,9.3c35.6,14.4,35.9,56.3,33.8,61.1l20.3,42.3l3.2-76.2c-4.4-0.7-7.3-4.1-8.5-6.6
		c-1.6-3.4-10.4-14.8-8.1-25.8c2.4-11,15.9-12.4,18.5-11.2c2.6,1.2,4.9,0.5,4.9,0.5c0,0,0.1,0.3-1.8,0.7c-0.6,0.1-1.7,0.3-0.3,1
		c4.6,1.6,5.5,1,6.9,0.7c1.3-0.5,2.2-0.9,1.2-1.3c-1-0.4-2.4-1.3-2.4-1.4c0,0,2.6,0.7,4.8-0.7c10.8-2,13.7,6.4,13.7,6.4
		c6.1,15.7-3.1,26.7-7.8,33.6C580.9,95.6,576.7,95.6,574.4,95.2L574.4,95.2z M585.7,31.2c-19.5,2.8-14.8,19.1-14.8,19.1
		C589.1,48,585.7,31.2,585.7,31.2L585.7,31.2z M509.5,262.9c-18.2,2.6-13.8,17.8-13.8,17.8C512.7,278.6,509.5,262.9,509.5,262.9
		L509.5,262.9z M466,99.2c0,0-3.5,17.1,15.1,19.4C481.1,118.6,485.9,102,466,99.2L466,99.2z M479.5,163.6c0.5-0.2,1.4-1.3,4.5,0
		c7.4,2.3,13-3.1,15-6.3c2-3.4,9.7-15,7.3-26.3c-2.4-11.2-16.2-12.6-18.8-11.4c-2.6,1.2-4.9,0.5-4.9,0.5s-0.1,0.3,1.8,0.7
		c0.6,0.1,1.7,0.3,0.3,1.1c-4.7,1.7-5.6,1-7,0.7c-1.3-0.5-2.2-0.9-1.2-1.3c1-0.4,2.5-1.3,2.5-1.4c0,0-2.7,0.3-4.9-0.7
		c-10.2-2.5-13.9,6.6-13.9,6.6c-6.2,16,3.1,27.2,8,34.1C472.7,166.9,479,163.8,479.5,163.6L479.5,163.6z M455.8,159.4
		c0,0-17.6-27.8-41.8-16C414.6,142.2,424.6,167.5,455.8,159.4L455.8,159.4z M449.8,142.3c0,0,4.9-24.9-14.9-31.1
		C434.1,111,428,130.2,449.8,142.3L449.8,142.3z M491.2,99.7c0,0-0.5-23.9-20-25.6C471.3,74,468.8,93,491.2,99.7L491.2,99.7z
		 M414.3,207.6c0,0-22.8-12.8-31,11.8C383.3,219.4,400.4,233.3,414.3,207.6L414.3,207.6z M413.9,219.6c0,0-2.6,12.9,11.4,14.7
		C425.2,234.2,428.8,221.7,413.9,219.6L413.9,219.6z M407.6,245.8c-0.8,8.8,4.5,15.3,7.5,19.6c3.7,5.3,8.8,2.8,8.8,2.8
		c0,0,1.8-1.4,3.4,0c5.6,1.7,9.3-2.2,10.5-4.7c1.3-2.6,8-11.4,6.2-19.8c-1.8-8.5-12.2-9.5-14.2-8.6c-2,0.9-3.7,0.4-3.7,0.4
		c0,0-0.1,0.2,1.3,0.5c0.5,0,1.3,0.2,0.2,0.8c-3.5,1.3-4.3,0.8-5.3,0.5c-1-0.4-1.7-0.7-0.9-1c0.8-0.3,1.9-1,1.9-1.1
		c0,0-2,0.5-3.7-0.5c-4.5-0.8-7.3,0.7-8.8,2.3C408.6,239.3,407.8,242.9,407.6,245.8L407.6,245.8z M628,262.9c0,0-3.2,15.7,13.8,17.8
		C641.8,280.8,646.2,265.5,628,262.9L628,262.9z M671.4,99.2c-19.8,2.8-15.1,19.4-15.1,19.4C674.9,116.3,671.4,99.2,671.4,99.2
		L671.4,99.2z M658,163.6c-0.5-0.2-1.4-1.3-4.5,0c-7.4,2.3-13-3.1-15-6.3c-2-3.4-9.7-15-7.3-26.3c2.4-11.2,16.2-12.6,18.8-11.4
		c2.6,1.2,4.9,0.5,4.9,0.5s0.1,0.3-1.8,0.7c-0.6,0.1-1.7,0.3-0.3,1.1c4.7,1.7,5.6,1,7,0.7c1.3-0.5,2.2-0.9,1.2-1.3
		c-1-0.4-2.5-1.3-2.5-1.4c0,0,2.7,0.3,4.9-0.7c10.2-2.5,13.9,6.6,13.9,6.6c6.2,16-3.1,27.2-8,34.1
		C664.8,166.9,658.5,163.8,658,163.6L658,163.6z M681.6,159.4c0,0,17.6-27.8,41.8-16C723.8,143.8,712.9,167.5,681.6,159.4
		L681.6,159.4z M687.7,142.3c0,0-4-20.4,9.9-28.9c0.9-0.5,1.9-1,2.9-1.5c0.6-0.3,1.3-0.5,2-0.7C703.3,111,709.4,130.2,687.7,142.3
		L687.7,142.3z M646.2,99.7c0,0,0.5-23.9,20-25.6C666.2,74,668.7,93,646.2,99.7L646.2,99.7z M723.2,207.6c0,0,22.8-12.8,31,11.8
		C754.2,219.4,737.1,233.3,723.2,207.6L723.2,207.6z M723.6,219.6c-15,2.1-11.4,14.7-11.4,14.7C726.2,232.5,723.6,219.6,723.6,219.6
		L723.6,219.6z M728.4,239.7c4.7,12.1-2.4,20.5-6,25.8c-3.7,5.3-8.8,2.8-8.8,2.8c0,0-1.8-1.4-3.4,0c-5.6,1.7-9.3-2.2-10.5-4.7
		c-1.2-2.6-8-11.4-6.2-19.8c1.8-8.5,12.2-9.5,14.2-8.6c2,0.9,3.7,0.4,3.7,0.4c0,0,0.1,0.2-1.3,0.5c-0.4,0-1.3,0.2-0.2,0.8
		c3.5,1.3,4.3,0.8,5.3,0.5c1-0.4,1.7-0.7,0.9-1c-0.8-0.3-1.9-1-1.9-1.1c0,0,2,0.5,3.7-0.5C726.2,233.2,728.4,239.7,728.4,239.7z"/>
</g>
</svg>
