<?xml version="1.0" encoding="utf-8"?>
<!-- Generator: Adobe Illustrator 18.0.0, SVG Export Plug-In . SVG Version: 6.00 Build 0)  -->
<!DOCTYPE svg PUBLIC "-//W3C//DTD SVG 1.1//EN" "http://www.w3.org/Graphics/SVG/1.1/DTD/svg11.dtd">
<svg version="1.1" id="Layer_1" xmlns="http://www.w3.org/2000/svg" xmlns:xlink="http://www.w3.org/1999/xlink" x="0px" y="0px"
	 viewBox="181.5 2.8 93.2 41.3" enable-background="new 181.5 2.8 93.2 41.3" xml:space="preserve">
<g>
	<path fill="#FF0000" d="M187.9,37.6h-3.6l-0.5,1.3c-0.1,0.2-0.1,0.3-0.1,0.4c0,0.2,0.1,0.3,0.4,0.4v0.2h-2.6v-0.2
		c0.2,0,0.3-0.1,0.3-0.2s0.2-0.3,0.3-0.5l2.9-6.9c0.1-0.2,0.1-0.4,0.1-0.5c0-0.2-0.1-0.3-0.3-0.4v-0.2h2.8v0.2
		c-0.2,0.1-0.3,0.2-0.3,0.4c0,0.1,0,0.3,0.1,0.4l3,6.9c0.1,0.3,0.2,0.5,0.3,0.6c0.1,0.1,0.2,0.2,0.4,0.2v0.2h-2.9v-0.2
		c0.2,0,0.4-0.2,0.4-0.4c0-0.1,0-0.2-0.1-0.4L187.9,37.6L187.9,37.6z M267.9,33.7v5.5c0,0.1,0,0.2,0.1,0.3c0.1,0.1,0.2,0.1,0.3,0.2
		v0.2h-2.3v-0.2c0.1,0,0.2-0.1,0.3-0.2c0.1-0.1,0.1-0.2,0.1-0.3v-7.6c0-0.1,0-0.2-0.1-0.3c-0.1-0.1-0.2-0.1-0.3-0.2v-0.2h2.7v0.2
		c-0.2,0-0.2,0.2-0.2,0.3c0,0.1,0.1,0.2,0.2,0.3l4.3,5.2v-5.3c0-0.1,0-0.2-0.1-0.3c-0.1-0.1-0.2-0.1-0.3-0.2v-0.2h2.3v0.2
		c-0.1,0-0.2,0.1-0.3,0.2c-0.1,0.1-0.1,0.2-0.1,0.3v7.6c0,0.1,0,0.2,0.1,0.3c0.1,0.1,0.2,0.1,0.3,0.2v0.2h-2.5v-0.2
		c0.2,0,0.2-0.1,0.2-0.3c0-0.1-0.1-0.2-0.3-0.5L267.9,33.7L267.9,33.7z M258.9,33.6l-1.8,5.2c-0.1,0.3-0.2,0.4-0.2,0.5
		c0,0.2,0.1,0.3,0.4,0.4v0.2h-2.5v-0.2c0.3-0.1,0.4-0.2,0.4-0.4c0-0.1-0.1-0.3-0.2-0.6l-2.2-6.6c-0.1-0.3-0.2-0.6-0.3-0.7
		c-0.1-0.1-0.2-0.2-0.4-0.2v-0.2h2.7v0.2c-0.2,0.1-0.4,0.2-0.4,0.4c0,0.1,0,0.2,0.1,0.4l1.5,4.8l1.7-4.8c0.1-0.2,0.1-0.3,0.1-0.4
		c0-0.2-0.1-0.3-0.4-0.4v-0.2h2.8v0.2c-0.3,0.1-0.4,0.2-0.4,0.4c0,0.1,0,0.2,0.1,0.4l1.6,4.8l1.5-4.7c0.1-0.2,0.1-0.4,0.1-0.5
		c0-0.2-0.1-0.3-0.4-0.4v-0.2h2.7v0.2c-0.2,0.1-0.3,0.1-0.4,0.2c-0.1,0.1-0.2,0.3-0.3,0.7l-2.2,6.6c-0.1,0.3-0.2,0.5-0.2,0.6
		c0,0.2,0.1,0.3,0.4,0.4v0.2h-2.5v-0.2c0.3,0,0.4-0.2,0.4-0.4c0-0.1-0.1-0.3-0.2-0.6L258.9,33.6L258.9,33.6z M244.9,32.9
		c0.8-1.4,2.1-2.1,3.9-2.2c1.4,0,2.5,0.4,3.3,1.3c0.8,0.9,1.3,2,1.3,3.4c0,0.9-0.2,1.7-0.6,2.4c-0.8,1.5-2.1,2.2-3.9,2.2
		c-1.4,0-2.4-0.4-3.2-1.3c-0.4-0.5-0.8-1-1-1.6c-0.2-0.6-0.3-1.1-0.3-1.8C244.3,34.5,244.5,33.7,244.9,32.9L244.9,32.9z M250.7,33
		c-0.5-0.5-1.1-0.8-1.9-0.8c-0.7,0-1.4,0.3-1.9,0.8c-0.6,0.6-0.9,1.4-0.9,2.4c0,1,0.3,1.8,0.9,2.4c0.5,0.5,1.1,0.8,1.9,0.8
		c0.8,0,1.4-0.3,1.9-0.8c0.3-0.3,0.5-0.7,0.7-1.1c0.1-0.4,0.2-0.8,0.2-1.2C251.5,34.4,251.3,33.6,250.7,33L250.7,33z M241.5,32.4
		v6.8c0,0.1,0,0.2,0.1,0.3c0.1,0.1,0.2,0.1,0.3,0.2v0.2h-2.5v-0.2c0.1,0,0.2-0.1,0.3-0.2c0.1-0.1,0.1-0.2,0.1-0.3v-6.8h-2.4
		c-0.1,0-0.2,0-0.3,0.1c-0.1,0.1-0.1,0.2-0.2,0.3h-0.2v-2.3h0.2c0,0.2,0.1,0.3,0.2,0.3c0.1,0.1,0.1,0.1,0.3,0.1h6.6
		c0.1,0,0.2,0,0.3-0.1c0.1-0.1,0.1-0.2,0.2-0.3h0.2v2.3h-0.2c0-0.2-0.1-0.3-0.2-0.3c-0.1-0.1-0.2-0.1-0.3-0.1H241.5L241.5,32.4z
		 M217.1,35.9v2.5h5c0.1,0,0.2,0,0.3-0.1c0.1-0.1,0.1-0.2,0.2-0.3h0.2v2.3h-0.2c0-0.2-0.1-0.3-0.2-0.3c-0.1-0.1-0.2-0.1-0.3-0.1H215
		v-0.2c0.1,0,0.2-0.1,0.3-0.2c0.1-0.1,0.1-0.2,0.1-0.3v-7.6c0-0.1,0-0.2-0.1-0.3c-0.1-0.1-0.2-0.1-0.3-0.2v-0.2h7
		c0.1,0,0.2,0,0.3-0.1c0.1-0.1,0.1-0.2,0.2-0.3h0.2v2.3h-0.2c0-0.2-0.1-0.3-0.2-0.3c-0.1-0.1-0.2-0.1-0.3-0.1h-4.9v2.1h3.2
		c0.1,0,0.2,0,0.3-0.1c0.1-0.1,0.1-0.2,0.2-0.3h0.2v2.3h-0.2c0-0.2-0.1-0.3-0.2-0.3c-0.1-0.1-0.2-0.1-0.3-0.1L217.1,35.9L217.1,35.9
		z M209.4,38.4h4.8c0.1,0,0.2,0,0.3-0.1c0.1-0.1,0.1-0.2,0.2-0.3h0.2v2.3h-0.2c0-0.2-0.1-0.3-0.2-0.3c-0.1-0.1-0.2-0.1-0.3-0.1h-6.9
		v-0.2c0.1,0,0.2-0.1,0.3-0.2c0.1-0.1,0.1-0.2,0.1-0.3v-7.6c0-0.1,0-0.2-0.1-0.3c-0.1-0.1-0.2-0.1-0.3-0.2v-0.2h2.5v0.2
		c-0.1,0-0.2,0.1-0.3,0.2c-0.1,0.1-0.1,0.2-0.1,0.3V38.4L209.4,38.4z M201.4,36.2v3c0,0.1,0,0.2,0.1,0.3c0.1,0.1,0.2,0.1,0.3,0.2
		v0.2h-2.5v-0.2c0.1,0,0.2-0.1,0.3-0.2c0.1-0.1,0.1-0.2,0.1-0.3v-7.6c0-0.1,0-0.2-0.1-0.3c-0.1-0.1-0.2-0.1-0.3-0.2v-0.2h4.9
		c0.6,0,1,0,1.4,0.1s0.6,0.2,0.9,0.5c0.3,0.2,0.5,0.5,0.6,0.9c0.2,0.4,0.2,0.8,0.2,1.2c0,0.6-0.1,1.1-0.4,1.6
		c-0.2,0.4-0.6,0.7-1,0.8c-0.4,0.2-1,0.2-1.7,0.2L201.4,36.2L201.4,36.2z M201.4,34.8h2.6c0.5,0,0.9-0.1,1.1-0.2
		c0.1-0.1,0.2-0.2,0.3-0.4c0.1-0.2,0.1-0.4,0.1-0.6c0-0.2,0-0.4-0.1-0.6c-0.1-0.2-0.2-0.3-0.3-0.4c-0.2-0.1-0.6-0.2-1.1-0.2h-2.6
		V34.8L201.4,34.8z M193.5,36.2v3c0,0.1,0,0.2,0.1,0.3c0.1,0.1,0.2,0.1,0.3,0.2v0.2h-2.5v-0.2c0.1,0,0.2-0.1,0.3-0.2
		c0.1-0.1,0.1-0.2,0.1-0.3v-7.6c0-0.1,0-0.2-0.1-0.3c-0.1-0.1-0.2-0.1-0.3-0.2v-0.2h4.9c0.6,0,1,0,1.4,0.1c0.3,0.1,0.6,0.2,0.9,0.5
		c0.3,0.2,0.5,0.5,0.6,0.9c0.2,0.4,0.2,0.8,0.2,1.2c0,0.6-0.1,1.1-0.4,1.6c-0.2,0.4-0.6,0.7-1,0.8c-0.4,0.2-1,0.2-1.7,0.2
		L193.5,36.2L193.5,36.2z M193.5,34.8h2.6c0.5,0,0.9-0.1,1.1-0.2c0.1-0.1,0.2-0.2,0.3-0.4c0.1-0.2,0.1-0.4,0.1-0.6
		c0-0.2,0-0.4-0.1-0.6c-0.1-0.2-0.2-0.3-0.3-0.4c-0.2-0.1-0.6-0.2-1.1-0.2h-2.6V34.8L193.5,34.8z M187.4,36.4l-1.3-3.2l-1.3,3.2
		H187.4z"/>
	<path fill="#FF0000" d="M273.8,42.8c0,0,0-0.6-0.4-0.8c-0.1-0.1-0.1,0-0.1,0.1C273.3,42.1,273.2,42.6,273.8,42.8
		C273.7,42.9,273.8,42.9,273.8,42.8L273.8,42.8z M229.6,42.8c0,0,0.3-0.5,0.7-0.4c0.2,0,0,0.2,0,0.2S230.1,42.9,229.6,42.8
		C229.6,42.9,229.6,42.9,229.6,42.8c-0.4,0.3-1.5-0.1-2.1,0.1c-1,0.3-1.2,0.9-1.3,1c0,0-0.1,0-0.1,0c0,0,0-0.1,0-0.1
		c0.3-0.5,0.9-0.9,1.2-1c0.3-0.1,0.6-0.2,1.3,0C229.2,43,229.5,42.9,229.6,42.8C229.5,42.8,229.6,42.8,229.6,42.8L229.6,42.8z
		 M229.7,43c0,0,0.5,0,0.7,0.2c0.2,0.2,0,0.1-0.2,0.1C229.9,43.4,229.8,43.2,229.7,43C229.7,43.1,229.7,43,229.7,43L229.7,43z
		 M228.9,43c0,0,0.5,0.1,0.7,0.4c0.2,0.3,0,0.1-0.2,0.1C229.1,43.4,229,43.2,228.9,43C228.9,43.1,228.9,43,228.9,43L228.9,43z
		 M228.4,42.7c0,0,0.4-0.4,0.7-0.4c0.3,0,0.1,0.1-0.1,0.3C228.8,42.8,228.6,42.7,228.4,42.7C228.5,42.7,228.4,42.7,228.4,42.7
		L228.4,42.7z M228.4,42c0,0-0.4,0-0.7,0.5c-0.1,0.2,0.1,0.2,0.1,0.2S228.3,42.6,228.4,42C228.5,42,228.4,42,228.4,42L228.4,42z
		 M228.6,43.8c0,0-0.4-0.2-0.5-0.7c0-0.2,0.1-0.1,0.1-0.1S228.7,43.2,228.6,43.8C228.7,43.7,228.7,43.8,228.6,43.8L228.6,43.8z
		 M227.9,44.1c0,0-0.5-0.3-0.5-0.8c0-0.2,0.1-0.1,0.1-0.1S228,43.5,227.9,44.1C228,44,228,44.1,227.9,44.1L227.9,44.1z M226.9,42.9
		c0,0,0-0.6,0.4-0.8c0.1-0.1,0.1,0,0.1,0.1C227.4,42.1,227.4,42.6,226.9,42.9C227,42.9,226.9,42.9,226.9,42.9L226.9,42.9z
		 M224.7,42.8c0,0,0.3-0.5,0.7-0.4c0.2,0,0,0.2,0,0.2S225.2,42.9,224.7,42.8C224.8,42.9,224.8,42.9,224.7,42.8
		c-0.4,0.3-1.5-0.1-2.1,0.1c-1,0.3-1.2,0.9-1.3,1c0,0-0.1,0-0.1,0c0,0,0-0.1,0-0.1c0.3-0.5,0.9-0.9,1.2-1c0.3-0.1,0.6-0.2,1.3,0
		C224.4,43,224.7,42.9,224.7,42.8C224.7,42.8,224.7,42.8,224.7,42.8L224.7,42.8z M224.9,43c0,0,0.5,0,0.7,0.2c0.2,0.2,0,0.1-0.2,0.1
		C225,43.4,224.9,43.2,224.9,43C224.8,43.1,224.8,43,224.9,43L224.9,43z M224.1,43c0,0,0.5,0.1,0.7,0.4c0.2,0.3,0,0.1-0.2,0.1
		C224.3,43.4,224.1,43.2,224.1,43C224.1,43.1,224,43,224.1,43L224.1,43z M223.6,42.7c0,0,0.4-0.4,0.7-0.4c0.3,0,0.1,0.1-0.1,0.3
		C224,42.8,223.7,42.7,223.6,42.7C223.6,42.7,223.5,42.7,223.6,42.7L223.6,42.7z M223.6,42c0,0-0.4,0-0.7,0.5
		c-0.1,0.2,0.1,0.2,0.1,0.2S223.4,42.6,223.6,42C223.7,42,223.6,42,223.6,42L223.6,42z M223.8,43.8c0,0-0.4-0.2-0.5-0.7
		c0-0.2,0.1-0.1,0.1-0.1S223.8,43.2,223.8,43.8C223.8,43.7,223.9,43.8,223.8,43.8L223.8,43.8z M223,44.1c0,0-0.5-0.3-0.5-0.8
		c0-0.2,0.1-0.1,0.1-0.1S223.1,43.5,223,44.1C223.1,44,223.1,44.1,223,44.1L223,44.1z M222,42.9c0,0,0-0.6,0.4-0.8
		c0.1-0.1,0.1,0,0.1,0.1C222.5,42.1,222.6,42.6,222,42.9C222.1,42.9,222.1,42.9,222,42.9L222,42.9z M219.7,42.8c0,0,0.3-0.5,0.7-0.4
		c0.2,0,0,0.2,0,0.2S220.2,42.9,219.7,42.8C219.8,42.9,219.8,42.9,219.7,42.8c-0.4,0.3-1.5-0.1-2.1,0.1c-1,0.3-1.2,0.9-1.3,1
		c0,0-0.1,0-0.1,0c0,0,0-0.1,0-0.1c0.3-0.5,0.9-0.9,1.2-1c0.3-0.1,0.6-0.2,1.3,0C219.4,43,219.7,42.9,219.7,42.8
		C219.7,42.8,219.7,42.8,219.7,42.8L219.7,42.8z M219.9,43c0,0,0.5,0,0.7,0.2c0.2,0.2,0,0.1-0.2,0.1C220.1,43.4,219.9,43.2,219.9,43
		C219.9,43.1,219.8,43,219.9,43L219.9,43z M219.1,43c0,0,0.5,0.1,0.7,0.4c0.2,0.3,0,0.1-0.2,0.1C219.3,43.4,219.2,43.2,219.1,43
		C219.1,43.1,219,43,219.1,43L219.1,43z M218.6,42.7c0,0,0.4-0.4,0.7-0.4c0.3,0,0.1,0.1-0.1,0.3C219,42.8,218.7,42.7,218.6,42.7
		C218.6,42.7,218.6,42.7,218.6,42.7L218.6,42.7z M218.6,42c0,0-0.4,0-0.7,0.5c-0.1,0.2,0.1,0.2,0.1,0.2S218.5,42.6,218.6,42
		C218.7,42,218.6,42,218.6,42L218.6,42z M218.8,43.8c0,0-0.4-0.2-0.5-0.7c0-0.2,0.1-0.1,0.1-0.1S218.9,43.2,218.8,43.8
		C218.9,43.7,218.9,43.8,218.8,43.8L218.8,43.8z M218.1,44.1c0,0-0.5-0.3-0.5-0.8c0-0.2,0.1-0.1,0.1-0.1S218.1,43.5,218.1,44.1
		C218.1,44,218.1,44.1,218.1,44.1L218.1,44.1z M217.1,42.9c0,0,0-0.6,0.4-0.8c0.1-0.1,0.1,0,0.1,0.1
		C217.6,42.1,217.6,42.6,217.1,42.9C217.2,42.9,217.1,42.9,217.1,42.9L217.1,42.9z M214.8,42.8c0,0,0.3-0.5,0.7-0.4
		c0.2,0,0,0.2,0,0.2S215.3,42.9,214.8,42.8C214.8,42.9,214.8,42.9,214.8,42.8c-0.4,0.3-1.5-0.1-2.1,0.1c-1,0.3-1.2,0.9-1.3,1
		c0,0-0.1,0-0.1,0c0,0,0-0.1,0-0.1c0.3-0.5,0.9-0.9,1.2-1c0.3-0.1,0.6-0.2,1.3,0C214.4,43,214.7,42.9,214.8,42.8
		C214.7,42.8,214.8,42.8,214.8,42.8L214.8,42.8z M214.9,43c0,0,0.5,0,0.7,0.2c0.2,0.2,0,0.1-0.2,0.1C215.1,43.4,215,43.2,214.9,43
		C214.9,43.1,214.9,43,214.9,43L214.9,43z M214.1,43c0,0,0.5,0.1,0.7,0.4c0.2,0.3,0,0.1-0.2,0.1C214.3,43.4,214.2,43.2,214.1,43
		C214.1,43.1,214,43,214.1,43L214.1,43z M213.6,42.7c0,0,0.4-0.4,0.7-0.4c0.3,0,0.1,0.1-0.1,0.3C214,42.8,213.8,42.7,213.6,42.7
		C213.7,42.7,213.6,42.7,213.6,42.7L213.6,42.7z M213.6,42c0,0-0.4,0-0.7,0.5c-0.1,0.2,0.1,0.2,0.1,0.2S213.5,42.6,213.6,42
		C213.7,42,213.6,42,213.6,42L213.6,42z M213.8,43.8c0,0-0.4-0.2-0.5-0.7c0-0.2,0.1-0.1,0.1-0.1S213.9,43.2,213.8,43.8
		C213.9,43.7,213.9,43.8,213.8,43.8L213.8,43.8z M213.1,44.1c0,0-0.5-0.3-0.5-0.8c0-0.2,0.1-0.1,0.1-0.1S213.2,43.5,213.1,44.1
		C213.2,44,213.2,44.1,213.1,44.1L213.1,44.1z M212.1,42.9c0,0,0-0.6,0.4-0.8c0.1-0.1,0.1,0,0.1,0.1
		C212.6,42.1,212.6,42.6,212.1,42.9C212.2,42.9,212.1,42.9,212.1,42.9L212.1,42.9z M209.8,42.8c0,0,0.3-0.5,0.7-0.4
		c0.2,0,0,0.2,0,0.2S210.3,42.9,209.8,42.8C209.9,42.9,209.8,42.9,209.8,42.8c-0.4,0.3-1.5-0.1-2.1,0.1c-1,0.3-1.2,0.9-1.3,1
		c0,0-0.1,0-0.1,0c0,0,0-0.1,0-0.1c0.3-0.5,0.9-0.9,1.2-1c0.3-0.1,0.6-0.2,1.3,0C209.5,43,209.7,42.9,209.8,42.8
		C209.8,42.8,209.8,42.8,209.8,42.8L209.8,42.8z M209.9,43c0,0,0.5,0,0.7,0.2c0.2,0.2,0,0.1-0.2,0.1C210.1,43.4,210,43.2,209.9,43
		C209.9,43.1,209.9,43,209.9,43L209.9,43z M209.2,43c0,0,0.5,0.1,0.7,0.4c0.2,0.3,0,0.1-0.2,0.1C209.3,43.4,209.2,43.2,209.2,43
		C209.1,43.1,209.1,43,209.2,43L209.2,43z M208.6,42.7c0,0,0.4-0.4,0.7-0.4c0.3,0,0.1,0.1-0.1,0.3C209.1,42.8,208.8,42.7,208.6,42.7
		C208.7,42.7,208.6,42.7,208.6,42.7L208.6,42.7z M208.7,42c0,0-0.4,0-0.7,0.5c-0.1,0.2,0.1,0.2,0.1,0.2S208.5,42.6,208.7,42
		C208.8,42,208.7,42,208.7,42L208.7,42z M208.9,43.8c0,0-0.4-0.2-0.5-0.7c0-0.2,0.1-0.1,0.1-0.1S208.9,43.2,208.9,43.8
		C208.9,43.7,208.9,43.8,208.9,43.8L208.9,43.8z M208.1,44.1c0,0-0.5-0.3-0.5-0.8c0-0.2,0.1-0.1,0.1-0.1S208.2,43.5,208.1,44.1
		C208.2,44,208.2,44.1,208.1,44.1L208.1,44.1z M207.1,42.9c0,0,0-0.6,0.4-0.8c0.1-0.1,0.1,0,0.1,0.1
		C207.6,42.1,207.7,42.6,207.1,42.9C207.2,42.9,207.1,42.9,207.1,42.9L207.1,42.9z M204.9,42.8c0,0,0.3-0.5,0.7-0.4
		c0.2,0,0,0.2,0,0.2S205.4,42.9,204.9,42.8C205,42.9,205,42.9,204.9,42.8c-0.4,0.3-1.5-0.1-2.1,0.1c-1,0.3-1.2,0.9-1.3,1
		c0,0-0.1,0-0.1,0c0,0,0-0.1,0-0.1c0.3-0.5,0.9-0.9,1.2-1c0.3-0.1,0.6-0.2,1.3,0C204.6,43,204.9,42.9,204.9,42.8
		C204.9,42.8,204.9,42.8,204.9,42.8L204.9,42.8z M205.1,43c0,0,0.5,0,0.7,0.2c0.2,0.2,0,0.1-0.2,0.1C205.3,43.4,205.1,43.2,205.1,43
		C205.1,43.1,205,43,205.1,43L205.1,43z M204.3,43c0,0,0.5,0.1,0.7,0.4c0.2,0.3,0,0.1-0.2,0.1C204.5,43.4,204.3,43.2,204.3,43
		C204.3,43.1,204.2,43,204.3,43L204.3,43z M203.8,42.7c0,0,0.4-0.4,0.7-0.4c0.3,0,0.1,0.1-0.1,0.3C204.2,42.8,203.9,42.7,203.8,42.7
		C203.8,42.7,203.8,42.7,203.8,42.7L203.8,42.7z M203.8,42c0,0-0.4,0-0.7,0.5c-0.1,0.2,0.1,0.2,0.1,0.2S203.7,42.6,203.8,42
		C203.9,42,203.8,42,203.8,42L203.8,42z M204,43.8c0,0-0.4-0.2-0.5-0.7c0-0.2,0.1-0.1,0.1-0.1S204.1,43.2,204,43.8
		C204.1,43.7,204.1,43.8,204,43.8L204,43.8z M203.3,44.1c0,0-0.5-0.3-0.5-0.8c0-0.2,0.1-0.1,0.1-0.1S203.3,43.5,203.3,44.1
		C203.3,44,203.3,44.1,203.3,44.1L203.3,44.1z M202.3,42.9c0,0,0-0.6,0.4-0.8c0.1-0.1,0.1,0,0.1,0.1
		C202.8,42.1,202.8,42.6,202.3,42.9C202.4,42.9,202.3,42.9,202.3,42.9L202.3,42.9z M200,42.8c0,0,0.3-0.5,0.7-0.4c0.2,0,0,0.2,0,0.2
		S200.5,42.9,200,42.8C200,42.9,200,42.9,200,42.8c-0.4,0.3-1.5-0.1-2.1,0.1c-1,0.3-1.2,0.9-1.3,1c0,0-0.1,0-0.1,0c0,0,0-0.1,0-0.1
		c0.3-0.5,0.9-0.9,1.2-1c0.3-0.1,0.6-0.2,1.3,0C199.6,43,199.9,42.9,200,42.8C199.9,42.8,200,42.8,200,42.8L200,42.8z M200.1,43
		c0,0,0.5,0,0.7,0.2c0.2,0.2,0,0.1-0.2,0.1C200.3,43.4,200.2,43.2,200.1,43C200.1,43.1,200.1,43,200.1,43L200.1,43z M199.3,43
		c0,0,0.5,0.1,0.7,0.4c0.2,0.3,0,0.1-0.2,0.1C199.5,43.4,199.4,43.2,199.3,43C199.3,43.1,199.2,43,199.3,43L199.3,43z M198.8,42.7
		c0,0,0.4-0.4,0.7-0.4c0.3,0,0.1,0.1-0.1,0.3C199.2,42.8,199,42.7,198.8,42.7C198.8,42.7,198.8,42.7,198.8,42.7L198.8,42.7z
		 M198.8,42c0,0-0.4,0-0.7,0.5c-0.1,0.2,0.1,0.2,0.1,0.2S198.7,42.6,198.8,42C198.9,42,198.8,42,198.8,42L198.8,42z M199,43.8
		c0,0-0.4-0.2-0.5-0.7c0-0.2,0.1-0.1,0.1-0.1S199.1,43.2,199,43.8C199.1,43.7,199.1,43.8,199,43.8L199,43.8z M198.3,44.1
		c0,0-0.5-0.3-0.5-0.8c0-0.2,0.1-0.1,0.1-0.1S198.4,43.5,198.3,44.1C198.4,44,198.4,44.1,198.3,44.1L198.3,44.1z M197.3,42.9
		c0,0,0-0.6,0.4-0.8c0.1-0.1,0.1,0,0.1,0.1C197.8,42.1,197.8,42.6,197.3,42.9C197.4,42.9,197.3,42.9,197.3,42.9L197.3,42.9z
		 M195,42.8c0,0,0.3-0.5,0.7-0.4c0.2,0,0,0.2,0,0.2S195.5,42.9,195,42.8C195.1,42.9,195,42.9,195,42.8c-0.4,0.3-1.5-0.1-2.1,0.1
		c-1,0.3-1.2,0.9-1.3,1c0,0-0.1,0-0.1,0c0,0,0-0.1,0-0.1c0.3-0.5,0.9-0.9,1.2-1c0.3-0.1,0.6-0.2,1.3,0C194.7,43,194.9,42.9,195,42.8
		C195,42.8,195,42.8,195,42.8L195,42.8z M195.1,43c0,0,0.5,0,0.7,0.2c0.2,0.2,0,0.1-0.2,0.1C195.3,43.4,195.2,43.2,195.1,43
		C195.1,43.1,195.1,43,195.1,43L195.1,43z M194.4,43c0,0,0.5,0.1,0.7,0.4c0.2,0.3,0,0.1-0.2,0.1C194.5,43.4,194.4,43.2,194.4,43
		C194.3,43.1,194.3,43,194.4,43L194.4,43z M193.8,42.7c0,0,0.4-0.4,0.7-0.4c0.3,0,0.1,0.1-0.1,0.3C194.3,42.8,194,42.7,193.8,42.7
		C193.9,42.7,193.8,42.7,193.8,42.7L193.8,42.7z M193.9,42c0,0-0.4,0-0.7,0.5c-0.1,0.2,0.1,0.2,0.1,0.2S193.7,42.6,193.9,42
		C194,42,193.9,42,193.9,42L193.9,42z M194.1,43.8c0,0-0.4-0.2-0.5-0.7c0-0.2,0.1-0.1,0.1-0.1S194.1,43.2,194.1,43.8
		C194.1,43.7,194.1,43.8,194.1,43.8L194.1,43.8z M193.3,44.1c0,0-0.5-0.3-0.5-0.8c0-0.2,0.1-0.1,0.1-0.1S193.4,43.5,193.3,44.1
		C193.4,44,193.4,44.1,193.3,44.1L193.3,44.1z M192.3,42.9c0,0,0-0.6,0.4-0.8c0.1-0.1,0.1,0,0.1,0.1
		C192.8,42.1,192.9,42.6,192.3,42.9C192.4,42.9,192.3,42.9,192.3,42.9L192.3,42.9z M190,42.8c0,0,0.3-0.5,0.7-0.4c0.2,0,0,0.2,0,0.2
		S190.5,42.9,190,42.8C190.1,42.9,190.1,42.9,190,42.8c-0.4,0.3-1.5-0.1-2.1,0.1c-1,0.3-1.2,0.9-1.3,1c0,0-0.1,0-0.1,0
		c0,0,0-0.1,0-0.1c0.3-0.5,0.9-0.9,1.2-1c0.3-0.1,0.6-0.2,1.3,0C189.7,43,190,42.9,190,42.8C190,42.8,190,42.8,190,42.8L190,42.8z
		 M190.2,43c0,0,0.5,0,0.7,0.2c0.2,0.2,0,0.1-0.2,0.1C190.3,43.4,190.2,43.2,190.2,43C190.1,43.1,190.1,43,190.2,43L190.2,43z
		 M189.4,43c0,0,0.5,0.1,0.7,0.4c0.2,0.3,0,0.1-0.2,0.1C189.6,43.4,189.4,43.2,189.4,43C189.4,43.1,189.3,43,189.4,43L189.4,43z
		 M188.9,42.7c0,0,0.4-0.4,0.7-0.4c0.3,0,0.1,0.1-0.1,0.3C189.3,42.8,189,42.7,188.9,42.7C188.9,42.7,188.8,42.7,188.9,42.7
		L188.9,42.7z M188.9,42c0,0-0.4,0-0.7,0.5c-0.1,0.2,0.1,0.2,0.1,0.2S188.7,42.6,188.9,42C189,42,188.9,42,188.9,42L188.9,42z
		 M189.1,43.8c0,0-0.4-0.2-0.5-0.7c0-0.2,0.1-0.1,0.1-0.1S189.1,43.2,189.1,43.8C189.1,43.7,189.2,43.8,189.1,43.8L189.1,43.8z
		 M188.3,44.1c0,0-0.5-0.3-0.5-0.8c0-0.2,0.1-0.1,0.1-0.1S188.4,43.5,188.3,44.1C188.4,44,188.4,44.1,188.3,44.1L188.3,44.1z
		 M187.4,42.9c0,0,0-0.6,0.4-0.8c0.1-0.1,0.1,0,0.1,0.1C187.9,42.1,187.9,42.6,187.4,42.9C187.5,42.9,187.4,42.9,187.4,42.9
		L187.4,42.9z M182.4,42.9c0,0,0-0.6,0.4-0.8c0.1-0.1,0.1,0,0.1,0.1C182.9,42.1,182.9,42.6,182.4,42.9
		C182.5,42.9,182.4,42.9,182.4,42.9L182.4,42.9z M185,42.8c0,0,0.3-0.5,0.7-0.4c0.2,0,0,0.2,0,0.2S185.5,42.9,185,42.8
		C185.1,42.9,185.1,42.9,185,42.8c-0.4,0.3-1.5-0.1-2.1,0.1c-1,0.3-1.2,0.9-1.3,1c0,0-0.1,0-0.1,0c0,0,0-0.1,0-0.1
		c0.3-0.5,0.9-0.9,1.2-1c0.3-0.1,0.6-0.2,1.3,0C184.7,43,185,42.9,185,42.8C185,42.8,185,42.8,185,42.8L185,42.8z M185.2,43
		c0,0,0.5,0,0.7,0.2c0.2,0.2,0,0.1-0.2,0.1C185.4,43.4,185.2,43.2,185.2,43C185.2,43.1,185.1,43,185.2,43L185.2,43z M184.4,43
		c0,0,0.5,0.1,0.7,0.4c0.2,0.3,0,0.1-0.2,0.1C184.6,43.4,184.5,43.2,184.4,43C184.4,43.1,184.3,43,184.4,43L184.4,43z M183.9,42.7
		c0,0,0.4-0.4,0.7-0.4c0.3,0,0.1,0.1-0.1,0.3C184.3,42.8,184.1,42.7,183.9,42.7C183.9,42.7,183.9,42.7,183.9,42.7L183.9,42.7z
		 M183.9,42c0,0-0.4,0-0.7,0.5c-0.1,0.2,0.1,0.2,0.1,0.2S183.8,42.6,183.9,42C184,42,183.9,42,183.9,42L183.9,42z M184.1,43.8
		c0,0-0.4-0.2-0.5-0.7c0-0.2,0.1-0.1,0.1-0.1S184.2,43.2,184.1,43.8C184.2,43.7,184.2,43.8,184.1,43.8L184.1,43.8z M183.4,44.1
		c0,0-0.5-0.3-0.5-0.8c0-0.2,0.1-0.1,0.1-0.1S183.4,43.5,183.4,44.1C183.4,44,183.4,44.1,183.4,44.1L183.4,44.1z M232.5,42.8
		c0,0-0.3-0.5-0.7-0.4c-0.2,0,0,0.2,0,0.2S232,42.9,232.5,42.8C232.4,42.9,232.4,42.9,232.5,42.8c0.4,0.3,1.5-0.1,2.1,0.1
		c1,0.3,1.2,0.9,1.3,1c0,0,0.1,0,0.1,0c0,0,0-0.1,0-0.1c-0.3-0.5-0.9-0.9-1.2-1c-0.3-0.1-0.6-0.2-1.3,0
		C232.8,42.9,232.5,42.9,232.5,42.8C232.5,42.8,232.5,42.8,232.5,42.8L232.5,42.8z M232.3,43c0,0-0.5,0-0.7,0.2
		c-0.2,0.2,0,0.1,0.2,0.1C232.1,43.3,232.3,43.1,232.3,43C232.3,43.1,232.4,43,232.3,43L232.3,43z M233.1,43c0,0-0.5,0.1-0.7,0.4
		c-0.2,0.3,0,0.1,0.2,0.1C232.9,43.4,233,43.1,233.1,43C233.1,43,233.2,43,233.1,43L233.1,43z M233.6,42.7c0,0-0.4-0.4-0.7-0.4
		c-0.3,0-0.1,0.1,0.1,0.3C233.2,42.8,233.4,42.7,233.6,42.7C233.6,42.7,233.6,42.7,233.6,42.7L233.6,42.7z M233.6,42
		c0,0,0.4,0,0.7,0.5c0.1,0.2-0.1,0.2-0.1,0.2S233.7,42.6,233.6,42C233.5,42,233.6,42,233.6,42L233.6,42z M233.4,43.8
		c0,0,0.4-0.2,0.5-0.7c0-0.2-0.1-0.1-0.1-0.1S233.3,43.2,233.4,43.8C233.3,43.7,233.3,43.8,233.4,43.8L233.4,43.8z M234.1,44
		c0,0,0.5-0.3,0.5-0.8c0-0.2-0.1-0.1-0.1-0.1S234.1,43.5,234.1,44C234.1,44,234,44.1,234.1,44L234.1,44z M235.1,42.8
		c0,0,0-0.6-0.4-0.8c-0.1-0.1-0.1,0-0.1,0.1C234.6,42.1,234.6,42.6,235.1,42.8C235,42.9,235.1,42.9,235.1,42.8L235.1,42.8z
		 M237.3,42.8c0,0-0.3-0.5-0.7-0.4c-0.2,0,0,0.2,0,0.2S236.8,42.9,237.3,42.8C237.2,42.9,237.2,42.9,237.3,42.8
		c0.4,0.3,1.5-0.1,2.1,0.1c1,0.3,1.2,0.9,1.3,1c0,0,0.1,0,0.1,0c0,0,0-0.1,0-0.1c-0.3-0.5-0.9-0.9-1.2-1c-0.3-0.1-0.6-0.2-1.3,0
		C237.6,42.9,237.3,42.9,237.3,42.8C237.3,42.8,237.3,42.8,237.3,42.8L237.3,42.8z M237.1,43c0,0-0.5,0-0.7,0.2
		c-0.2,0.2,0,0.1,0.2,0.1C237,43.3,237.1,43.1,237.1,43C237.2,43.1,237.2,43,237.1,43L237.1,43z M237.9,43c0,0-0.5,0.1-0.7,0.4
		c-0.2,0.3,0,0.1,0.2,0.1C237.7,43.4,237.9,43.1,237.9,43C237.9,43,238,43,237.9,43L237.9,43z M238.4,42.7c0,0-0.4-0.4-0.7-0.4
		c-0.3,0-0.1,0.1,0.1,0.3C238,42.8,238.3,42.7,238.4,42.7C238.4,42.7,238.5,42.7,238.4,42.7L238.4,42.7z M238.4,42
		c0,0,0.4,0,0.7,0.5c0.1,0.2-0.1,0.2-0.1,0.2S238.6,42.6,238.4,42C238.3,42,238.4,42,238.4,42L238.4,42z M238.2,43.8
		c0,0,0.4-0.2,0.5-0.7c0-0.2-0.1-0.1-0.1-0.1S238.2,43.2,238.2,43.8C238.2,43.7,238.1,43.8,238.2,43.8L238.2,43.8z M239,44
		c0,0,0.5-0.3,0.5-0.8c0-0.2-0.1-0.1-0.1-0.1S238.9,43.5,239,44C238.9,44,238.9,44.1,239,44L239,44z M240,42.8c0,0,0-0.6-0.4-0.8
		c-0.1-0.1-0.1,0-0.1,0.1C239.5,42.1,239.4,42.6,240,42.8C239.9,42.9,239.9,42.9,240,42.8L240,42.8z M242.1,42.8
		c0,0-0.3-0.5-0.7-0.4c-0.2,0,0,0.2,0,0.2S241.6,42.9,242.1,42.8C242,42.9,242.1,42.9,242.1,42.8c0.4,0.3,1.5-0.1,2.1,0.1
		c1,0.3,1.2,0.9,1.3,1c0,0,0.1,0,0.1,0c0,0,0-0.1,0-0.1c-0.3-0.5-0.9-0.9-1.2-1c-0.3-0.1-0.6-0.2-1.3,0
		C242.4,42.9,242.2,42.9,242.1,42.8C242.1,42.8,242.1,42.8,242.1,42.8L242.1,42.8z M242,43c0,0-0.5,0-0.7,0.2
		c-0.2,0.2,0,0.1,0.2,0.1C241.8,43.3,241.9,43.1,242,43C242,43.1,242,43,242,43L242,43z M242.8,43c0,0-0.5,0.1-0.7,0.4
		c-0.2,0.3,0,0.1,0.2,0.1C242.6,43.4,242.7,43.1,242.8,43C242.8,43,242.8,43,242.8,43L242.8,43z M243.3,42.7c0,0-0.4-0.4-0.7-0.4
		c-0.3,0-0.1,0.1,0.1,0.3C242.8,42.8,243.1,42.7,243.3,42.7C243.2,42.7,243.3,42.7,243.3,42.7L243.3,42.7z M243.2,42
		c0,0,0.4,0,0.7,0.5c0.1,0.2-0.1,0.2-0.1,0.2S243.4,42.6,243.2,42C243.1,42,243.2,42,243.2,42L243.2,42z M243,43.8
		c0,0,0.4-0.2,0.5-0.7c0-0.2-0.1-0.1-0.1-0.1S243,43.2,243,43.8C243,43.7,243,43.8,243,43.8L243,43.8z M243.8,44
		c0,0,0.5-0.3,0.5-0.8c0-0.2-0.1-0.1-0.1-0.1S243.7,43.5,243.8,44C243.7,44,243.7,44.1,243.8,44L243.8,44z M244.8,42.8
		c0,0,0-0.6-0.4-0.8c-0.1-0.1-0.1,0-0.1,0.1C244.3,42.1,244.3,42.6,244.8,42.8C244.7,42.9,244.8,42.9,244.8,42.8L244.8,42.8z
		 M247,42.8c0,0-0.3-0.5-0.7-0.4c-0.2,0,0,0.2,0,0.2S246.5,42.9,247,42.8C246.9,42.9,246.9,42.9,247,42.8c0.4,0.3,1.5-0.1,2.1,0.1
		c1,0.3,1.2,0.9,1.3,1c0,0,0.1,0,0.1,0c0,0,0-0.1,0-0.1c-0.3-0.5-0.9-0.9-1.2-1c-0.3-0.1-0.6-0.2-1.3,0
		C247.3,42.9,247,42.9,247,42.8C247,42.8,247,42.8,247,42.8L247,42.8z M246.8,43c0,0-0.5,0-0.7,0.2c-0.2,0.2,0,0.1,0.2,0.1
		C246.6,43.3,246.8,43.1,246.8,43C246.8,43.1,246.8,43,246.8,43L246.8,43z M247.6,43c0,0-0.5,0.1-0.7,0.4c-0.2,0.3,0,0.1,0.2,0.1
		C247.4,43.4,247.5,43.1,247.6,43C247.6,43,247.7,43,247.6,43L247.6,43z M248.1,42.7c0,0-0.4-0.4-0.7-0.4c-0.3,0-0.1,0.1,0.1,0.3
		C247.7,42.8,247.9,42.7,248.1,42.7C248.1,42.7,248.1,42.7,248.1,42.7L248.1,42.7z M248.1,42c0,0,0.4,0,0.7,0.5
		c0.1,0.2-0.1,0.2-0.1,0.2S248.2,42.6,248.1,42C248,42,248.1,42,248.1,42L248.1,42z M247.9,43.8c0,0,0.4-0.2,0.5-0.7
		c0-0.2-0.1-0.1-0.1-0.1S247.8,43.2,247.9,43.8C247.8,43.7,247.8,43.8,247.9,43.8L247.9,43.8z M248.6,44c0,0,0.5-0.3,0.5-0.8
		c0-0.2-0.1-0.1-0.1-0.1S248.6,43.5,248.6,44C248.6,44,248.5,44.1,248.6,44L248.6,44z M249.6,42.8c0,0,0-0.6-0.4-0.8
		c-0.1-0.1-0.1,0-0.1,0.1C249.1,42.1,249.1,42.6,249.6,42.8C249.5,42.9,249.6,42.9,249.6,42.8L249.6,42.8z M251.8,42.8
		c0,0-0.3-0.5-0.7-0.4c-0.2,0,0,0.2,0,0.2S251.3,42.9,251.8,42.8C251.7,42.9,251.7,42.9,251.8,42.8c0.4,0.3,1.5-0.1,2.1,0.1
		c1,0.3,1.2,0.9,1.3,1c0,0,0.1,0,0.1,0c0,0,0-0.1,0-0.1c-0.3-0.5-0.9-0.9-1.2-1c-0.3-0.1-0.6-0.2-1.3,0
		C252.1,42.9,251.8,42.9,251.8,42.8C251.8,42.8,251.8,42.8,251.8,42.8L251.8,42.8z M251.6,43c0,0-0.5,0-0.7,0.2
		c-0.2,0.2,0,0.1,0.2,0.1C251.5,43.3,251.6,43.1,251.6,43C251.7,43.1,251.7,43,251.6,43L251.6,43z M252.4,43c0,0-0.5,0.1-0.7,0.4
		c-0.2,0.3,0,0.1,0.2,0.1C252.2,43.4,252.4,43.1,252.4,43C252.4,43,252.5,43,252.4,43L252.4,43z M252.9,42.7c0,0-0.4-0.4-0.7-0.4
		c-0.3,0-0.1,0.1,0.1,0.3C252.5,42.8,252.8,42.7,252.9,42.7C252.9,42.7,253,42.7,252.9,42.7L252.9,42.7z M252.9,42
		c0,0,0.4,0,0.7,0.5c0.1,0.2-0.1,0.2-0.1,0.2S253.1,42.6,252.9,42C252.8,42,252.9,42,252.9,42L252.9,42z M252.7,43.8
		c0,0,0.4-0.2,0.5-0.7c0-0.2-0.1-0.1-0.1-0.1S252.7,43.2,252.7,43.8C252.6,43.7,252.6,43.8,252.7,43.8L252.7,43.8z M253.5,44
		c0,0,0.5-0.3,0.5-0.8c0-0.2-0.1-0.1-0.1-0.1S253.4,43.5,253.5,44C253.4,44,253.4,44.1,253.5,44L253.5,44z M254.4,42.8
		c0,0,0-0.6-0.4-0.8c-0.1-0.1-0.1,0-0.1,0.1C254,42.1,253.9,42.6,254.4,42.8C254.3,42.9,254.4,42.9,254.4,42.8L254.4,42.8z
		 M256.6,42.8c0,0-0.3-0.5-0.7-0.4c-0.2,0,0,0.2,0,0.2S256.1,42.9,256.6,42.8C256.5,42.9,256.6,42.9,256.6,42.8
		c0.4,0.3,1.5-0.1,2.1,0.1c1,0.3,1.2,0.9,1.3,1c0,0,0.1,0,0.1,0c0,0,0-0.1,0-0.1c-0.3-0.5-0.9-0.9-1.2-1c-0.3-0.1-0.6-0.2-1.3,0
		C256.9,42.9,256.7,42.9,256.6,42.8C256.6,42.8,256.6,42.8,256.6,42.8L256.6,42.8z M256.5,43c0,0-0.5,0-0.7,0.2
		c-0.2,0.2,0,0.1,0.2,0.1C256.3,43.3,256.4,43.1,256.5,43C256.5,43.1,256.5,43,256.5,43L256.5,43z M257.2,43c0,0-0.5,0.1-0.7,0.4
		c-0.2,0.3,0,0.1,0.2,0.1C257.1,43.4,257.2,43.1,257.2,43C257.3,43,257.3,43,257.2,43L257.2,43z M257.8,42.7c0,0-0.4-0.4-0.7-0.4
		c-0.3,0-0.1,0.1,0.1,0.3C257.3,42.8,257.6,42.7,257.8,42.7C257.7,42.7,257.8,42.7,257.8,42.7L257.8,42.7z M257.7,42
		c0,0,0.4,0,0.7,0.5c0.1,0.2-0.1,0.2-0.1,0.2S257.9,42.6,257.7,42C257.6,42,257.7,42,257.7,42L257.7,42z M257.5,43.8
		c0,0,0.4-0.2,0.5-0.7c0-0.2-0.1-0.1-0.1-0.1S257.5,43.2,257.5,43.8C257.5,43.7,257.5,43.8,257.5,43.8L257.5,43.8z M258.3,44
		c0,0,0.5-0.3,0.5-0.8c0-0.2-0.1-0.1-0.1-0.1S258.2,43.5,258.3,44C258.2,44,258.2,44.1,258.3,44L258.3,44z M259.3,42.8
		c0,0,0-0.6-0.4-0.8c-0.1-0.1-0.1,0-0.1,0.1C258.8,42.1,258.7,42.6,259.3,42.8C259.2,42.9,259.3,42.9,259.3,42.8L259.3,42.8z
		 M261.4,42.8c0,0-0.3-0.5-0.7-0.4c-0.2,0,0,0.2,0,0.2S260.9,42.9,261.4,42.8C261.4,42.9,261.4,42.9,261.4,42.8
		c0.4,0.3,1.5-0.1,2.1,0.1c1,0.3,1.2,0.9,1.3,1c0,0,0.1,0,0.1,0c0,0,0-0.1,0-0.1c-0.3-0.5-0.9-0.9-1.2-1c-0.3-0.1-0.6-0.2-1.3,0
		C261.8,42.9,261.5,42.9,261.4,42.8C261.5,42.8,261.4,42.8,261.4,42.8L261.4,42.8z M261.3,43c0,0-0.5,0-0.7,0.2
		c-0.2,0.2,0,0.1,0.2,0.1C261.1,43.3,261.3,43.1,261.3,43C261.3,43.1,261.3,43,261.3,43L261.3,43z M262.1,43c0,0-0.5,0.1-0.7,0.4
		c-0.2,0.3,0,0.1,0.2,0.1C261.9,43.4,262,43.1,262.1,43C262.1,43,262.2,43,262.1,43L262.1,43z M262.6,42.7c0,0-0.4-0.4-0.7-0.4
		c-0.3,0-0.1,0.1,0.1,0.3C262.2,42.8,262.4,42.7,262.6,42.7C262.6,42.7,262.6,42.7,262.6,42.7L262.6,42.7z M262.6,42
		c0,0,0.4,0,0.7,0.5c0.1,0.2-0.1,0.2-0.1,0.2S262.7,42.6,262.6,42C262.5,42,262.6,42,262.6,42L262.6,42z M262.4,43.8
		c0,0,0.4-0.2,0.5-0.7c0-0.2-0.1-0.1-0.1-0.1S262.3,43.2,262.4,43.8C262.3,43.7,262.3,43.8,262.4,43.8L262.4,43.8z M263.1,44
		c0,0,0.5-0.3,0.5-0.8c0-0.2-0.1-0.1-0.1-0.1S263.1,43.5,263.1,44C263.1,44,263,44.1,263.1,44L263.1,44z M264.1,42.8
		c0,0,0-0.6-0.4-0.8c-0.1-0.1-0.1,0-0.1,0.1C263.6,42.1,263.6,42.6,264.1,42.8C264,42.9,264.1,42.9,264.1,42.8L264.1,42.8z
		 M266.3,42.8c0,0-0.3-0.5-0.7-0.4c-0.2,0,0,0.2,0,0.2S265.8,42.9,266.3,42.8C266.2,42.9,266.2,42.9,266.3,42.8
		c0.4,0.3,1.5-0.1,2.1,0.1c1,0.3,1.2,0.9,1.3,1c0,0,0.1,0,0.1,0c0,0,0-0.1,0-0.1c-0.3-0.5-0.9-0.9-1.2-1c-0.3-0.1-0.6-0.2-1.3,0
		C266.6,42.9,266.3,42.9,266.3,42.8C266.3,42.8,266.3,42.8,266.3,42.8L266.3,42.8z M266.1,43c0,0-0.5,0-0.7,0.2
		c-0.2,0.2,0,0.1,0.2,0.1C266,43.3,266.1,43.1,266.1,43C266.1,43.1,266.2,43,266.1,43L266.1,43z M266.9,43c0,0-0.5,0.1-0.7,0.4
		c-0.2,0.3,0,0.1,0.2,0.1C266.7,43.4,266.9,43.1,266.9,43C266.9,43,267,43,266.9,43L266.9,43z M267.4,42.7c0,0-0.4-0.4-0.7-0.4
		c-0.3,0-0.1,0.1,0.1,0.3C267,42.8,267.3,42.7,267.4,42.7C267.4,42.7,267.5,42.7,267.4,42.7L267.4,42.7z M267.4,42
		c0,0,0.4,0,0.7,0.5c0.1,0.2-0.1,0.2-0.1,0.2S267.5,42.6,267.4,42C267.3,42,267.4,42,267.4,42L267.4,42z M267.2,43.8
		c0,0,0.4-0.2,0.5-0.7c0-0.2-0.1-0.1-0.1-0.1S267.2,43.2,267.2,43.8C267.1,43.7,267.1,43.8,267.2,43.8L267.2,43.8z M267.9,44
		c0,0,0.5-0.3,0.5-0.8c0-0.2-0.1-0.1-0.1-0.1S267.9,43.5,267.9,44C267.9,44,267.9,44.1,267.9,44L267.9,44z M268.9,42.8
		c0,0,0-0.6-0.4-0.8c-0.1-0.1-0.1,0-0.1,0.1C268.4,42.1,268.4,42.6,268.9,42.8C268.8,42.9,268.9,42.9,268.9,42.8L268.9,42.8z
		 M271.1,42.8c0,0-0.3-0.5-0.7-0.4c-0.2,0,0,0.2,0,0.2S270.6,42.9,271.1,42.8C271,42.9,271,42.9,271.1,42.8c0.4,0.3,1.5-0.1,2.1,0.1
		c1,0.3,1.2,0.9,1.3,1c0,0,0.1,0,0.1,0c0,0,0-0.1,0-0.1c-0.3-0.5-0.9-0.9-1.2-1c-0.3-0.1-0.6-0.2-1.3,0
		C271.4,42.9,271.2,42.9,271.1,42.8C271.1,42.8,271.1,42.8,271.1,42.8L271.1,42.8z M271,43c0,0-0.5,0-0.7,0.2
		c-0.2,0.2,0,0.1,0.2,0.1C270.8,43.3,270.9,43.1,271,43C271,43.1,271,43,271,43L271,43z M271.7,43c0,0-0.5,0.1-0.7,0.4
		c-0.2,0.3,0,0.1,0.2,0.1C271.6,43.4,271.7,43.1,271.7,43C271.8,43,271.8,43,271.7,43L271.7,43z M272.2,42.7c0,0-0.4-0.4-0.7-0.4
		c-0.3,0-0.1,0.1,0.1,0.3C271.8,42.8,272.1,42.7,272.2,42.7C272.2,42.7,272.3,42.7,272.2,42.7L272.2,42.7z M272.2,42
		c0,0,0.4,0,0.7,0.5c0.1,0.2-0.1,0.2-0.1,0.2S272.4,42.6,272.2,42C272.1,42,272.2,42,272.2,42L272.2,42z M272,43.8
		c0,0,0.4-0.2,0.5-0.7c0-0.2-0.1-0.1-0.1-0.1S272,43.2,272,43.8C272,43.7,272,43.8,272,43.8L272,43.8z M272.8,44
		c0,0,0.5-0.3,0.5-0.8c0-0.2-0.1-0.1-0.1-0.1S272.7,43.5,272.8,44C272.7,44,272.7,44.1,272.8,44z"/>
	<path fill="#FF0000" d="M231.4,8.5l0.3,6.8l1.8-3.8c-0.2-0.4-0.2-4.1,3-5.4c0.5-0.2,0.2-0.7,0.1-0.8C236.4,5.1,237,4.9,237,6
		c0,1.5,0.6,5-2.8,5.7c-2.5,5.4-1.5,5-1.5,5s1.4-1.3,2.6-1.7c0.9-0.4,1.1-0.3,1.9-0.3c1.1,0.2,1.8,0.7,2.5,0.5
		c0.7-0.3,1.9-0.8,3.2,0.6s1.6,1.7,2.2,1.4c0.6-0.3,0.3,1-2.6,1.2c-2.9,0.2-3.4-2.1-3.4-2.2c0,0-5.1-1.8-6.2,4.3
		c-0.2,0.8,0.3,0.4,0.3,0.4s3.1-2.4,5.4-1.6c0.2,0.1,0.5,0.3,0.7,0.3c0.7,0.1,1-0.8,1-0.8c0,0,0.4-0.6,1.2-0.1
		c0.7,0.5,0.4,0.8,1.3,1.3c-0.1,0-0.5,0.3-1.8-0.5c-0.4-0.2-0.7-0.1-1.2,0.6c0,0.4,0.4,1.1,0,2.9c0,0,3.1,0.1,3.2,3.5
		s-0.6,2.7-0.6,2.7s0.7-0.5-0.2-0.9c-1-0.2-2.8-2.2-2.5-4c-0.1-0.4-0.6,0.6-0.8,1c0.2,0.1,0.3,0.3,0.3,0.6c0.2,0.9-0.5,1.9-0.7,2.1
		c-0.1,0.3-0.5,0.7-1.1,0.5c-0.2-0.1-0.4,0-0.4,0s-0.6,0.3-1-0.3c-0.1-0.2-0.3-0.4-0.4-0.7c-0.3-0.6-0.5-1.2-0.3-1.9
		c0.2-0.6,0.5-0.9,1.2-0.8c0.2,0.1,0.4,0.1,0.4,0.1c0,0-0.1,0.1-0.2,0.1c-0.1,0,0,0.1,0.1,0.1c0.1,0,0.2,0.1,0.6-0.1
		c0.1-0.1,0-0.1,0-0.1c-0.2,0-0.1-0.1-0.1-0.1s0.2,0.1,0.4,0c0.1,0,0.4,0,0.7,0c0,0,0,0,0,0c0.3-1,2.4-4.5-0.8-4.7
		c-1.6,0.2-2.8,1-3.5,1.8c-0.4,0.5-0.8,1.1-1,1.8c-0.1,0.5-0.1,0.9-0.1,1.6c0,2.7,0.1,9.3,0.8,11.2c0.1,0.4,0.3,0.8,0.5,1
		c0.2,0.3,0.5,0.5,0.8,0.7c0.2,0.2,0.7,0.4,1,0.4v1h-5.3h-0.1h-5.3v-1c0.2,0,0.7-0.2,1-0.4c0.3-0.2,0.6-0.5,0.8-0.7s0.4-0.6,0.5-1
		c0.7-1.9,0.8-9.1,0.8-11.5c0-0.7,0-1.1-0.4-1.8c-0.6-1.3-1.9-2.7-4.3-3c-3.1,0.2-1.1,3.8-0.8,4.7c0,0,0,0,0,0
		c0.3-0.1,0.6-0.1,0.7,0c0.2,0.1,0.4,0,0.4,0s0,0-0.1,0.1c0,0-0.1,0,0,0.1c0.4,0.1,0.5,0.1,0.6,0.1c0.1,0,0.2-0.1,0.1-0.1
		c-0.1,0-0.2-0.1-0.2-0.1c0,0,0.2,0.1,0.4-0.1c0.9-0.2,1.1,0.5,1.1,0.5c0.5,1.3-0.3,2.2-0.6,2.8c-0.4,0.6-1,0.3-1,0.3
		s-0.2-0.1-0.4,0c-0.6,0.2-1-0.2-1.1-0.5c-0.1-0.3-0.9-1.2-0.7-2.1c0.1-0.2,0.2-0.4,0.3-0.6c-0.2-0.4-0.7-1.4-0.8-1
		c0.3,1.8-1.5,3.8-2.5,4c-0.9,0.4-0.2,0.9-0.2,0.9s-0.7,0.6-0.6-2.7s3.2-3.5,3.2-3.5c-0.4-1.8,0-2.5,0-2.9c-0.5-0.7-0.9-0.8-1.2-0.6
		c-1.2,0.8-1.7,0.5-1.8,0.5c0.9-0.5,0.6-0.8,1.3-1.3c0.9-0.5,1.2,0.1,1.2,0.1s0.5,1.2,1.4,0.7c2.3-1.4,5.9,1.4,5.9,1.4
		s0.5,0.4,0.3-0.4c-1.1-6.1-6.2-4.3-6.2-4.3s-0.6,2.4-3.4,2.2c-2.9-0.2-3.2-1.5-2.6-1.2c0.6,0.3,1-0.1,2.2-1.4s2.6-0.8,3.2-0.6
		c0.7,0.3,1.4-0.3,2.5-0.5c0.8-0.1,1.1-0.1,1.9,0.3c1.2,0.4,2.6,1.7,2.6,1.7s1,0.5-1.5-5c-3.4-0.7-2.8-4.2-2.8-5.7
		c0-1.1,0.6-1,0.5-0.8c-0.1,0.1-0.4,0.6,0.1,0.8c3.2,1.3,3.2,5,3,5.4l1.8,3.8l0.3-6.8c-0.4-0.1-0.6-0.4-0.8-0.6
		c-0.1-0.3-0.9-1.3-0.7-2.3c0.2-1,1.4-1.1,1.6-1s0.4,0,0.4,0s0,0-0.2,0.1c-0.1,0-0.2,0,0,0.1c0.4,0.1,0.5,0.1,0.6,0.1
		c0.1,0,0.2-0.1,0.1-0.1c-0.1,0-0.2-0.1-0.2-0.1c0,0,0.2,0.1,0.4-0.1c1-0.2,1.2,0.6,1.2,0.6c0.5,1.4-0.3,2.4-0.7,3
		C231.9,8.5,231.6,8.5,231.4,8.5L231.4,8.5z M232.4,2.8c-1.7,0.2-1.3,1.7-1.3,1.7C232.7,4.3,232.4,2.8,232.4,2.8L232.4,2.8z
		 M225.6,23.4c-1.6,0.2-1.2,1.6-1.2,1.6C225.9,24.7,225.6,23.4,225.6,23.4L225.6,23.4z M221.7,8.8c0,0-0.3,1.5,1.3,1.7
		C223.1,10.5,223.5,9.1,221.7,8.8L221.7,8.8z M222.9,14.5c0,0,0.1-0.1,0.4,0c0.7,0.2,1.2-0.3,1.3-0.6c0.2-0.3,0.9-1.3,0.6-2.3
		c-0.2-1-1.4-1.1-1.7-1s-0.4,0-0.4,0s0,0,0.2,0.1c0.1,0,0.2,0,0,0.1c-0.4,0.2-0.5,0.1-0.6,0.1c-0.1,0-0.2-0.1-0.1-0.1
		s0.2-0.1,0.2-0.1c0,0-0.2,0-0.4-0.1c-0.9-0.2-1.2,0.6-1.2,0.6c-0.6,1.4,0.3,2.4,0.7,3C222.3,14.8,222.9,14.5,222.9,14.5L222.9,14.5
		z M220.8,14.2c0,0-1.6-2.5-3.7-1.4C217.2,12.6,218.1,14.9,220.8,14.2L220.8,14.2z M220.3,12.6c0,0,0.4-2.2-1.3-2.8
		C218.9,9.9,218.4,11.6,220.3,12.6L220.3,12.6z M224,8.9c0,0,0-2.1-1.8-2.3C222.2,6.6,222,8.3,224,8.9L224,8.9z M217.1,18.4
		c0,0-2-1.1-2.8,1C214.4,19.5,215.9,20.7,217.1,18.4L217.1,18.4z M217.1,19.5c0,0-0.2,1.1,1,1.3C218.1,20.8,218.4,19.7,217.1,19.5
		L217.1,19.5z M216.5,21.8c-0.1,0.8,0.4,1.4,0.7,1.7c0.3,0.5,0.8,0.2,0.8,0.2s0.2-0.1,0.3,0c0.5,0.2,0.8-0.2,0.9-0.4
		c0.1-0.2,0.7-1,0.6-1.8c-0.2-0.8-1.1-0.8-1.3-0.8c-0.2,0.1-0.3,0-0.3,0s0,0,0.1,0c0,0,0.1,0,0,0.1c-0.3,0.1-0.4,0.1-0.5,0
		c-0.1,0-0.2-0.1-0.1-0.1c0.1,0,0.2-0.1,0.2-0.1c0,0-0.2,0-0.3,0c-0.4-0.1-0.6,0.1-0.8,0.2C216.6,21.3,216.6,21.6,216.5,21.8
		L216.5,21.8z M236.1,23.4c0,0-0.3,1.4,1.2,1.6C237.4,24.9,237.7,23.6,236.1,23.4L236.1,23.4z M240,8.8c-1.8,0.2-1.3,1.7-1.3,1.7
		C240.3,10.3,240,8.8,240,8.8L240,8.8z M238.8,14.5c0,0-0.1-0.1-0.4,0c-0.7,0.2-1.2-0.3-1.3-0.6c-0.2-0.3-0.9-1.3-0.6-2.3
		c0.2-1,1.4-1.1,1.7-1c0.2,0.1,0.4,0,0.4,0s0,0-0.2,0.1c-0.1,0-0.2,0,0,0.1c0.4,0.2,0.5,0.1,0.6,0.1c0.1,0,0.2-0.1,0.1-0.1
		s-0.2-0.1-0.2-0.1c0,0,0.2,0,0.4-0.1c0.9-0.2,1.2,0.6,1.2,0.6c0.6,1.4-0.3,2.4-0.7,3C239.4,14.8,238.8,14.5,238.8,14.5L238.8,14.5z
		 M240.9,14.2c0,0,1.6-2.5,3.7-1.4C244.6,12.8,243.7,14.9,240.9,14.2L240.9,14.2z M241.4,12.6c0,0-0.4-1.8,0.9-2.6
		c0.1,0,0.2-0.1,0.3-0.1c0.1,0,0.1,0,0.2-0.1C242.8,9.9,243.4,11.6,241.4,12.6L241.4,12.6z M237.7,8.9c0,0,0-2.1,1.8-2.3
		C239.5,6.6,239.7,8.3,237.7,8.9L237.7,8.9z M244.6,18.4c0,0,2-1.1,2.8,1C247.3,19.5,245.8,20.7,244.6,18.4L244.6,18.4z M244.6,19.5
		c-1.3,0.2-1,1.3-1,1.3C244.8,20.7,244.6,19.5,244.6,19.5L244.6,19.5z M245,21.3c0.4,1.1-0.2,1.8-0.5,2.3c-0.3,0.5-0.8,0.2-0.8,0.2
		s-0.2-0.1-0.3,0c-0.5,0.2-0.8-0.2-0.9-0.4c-0.1-0.2-0.7-1-0.6-1.8c0.2-0.8,1.1-0.8,1.3-0.8c0.2,0.1,0.3,0,0.3,0s0,0-0.1,0
		c0,0-0.1,0,0,0.1c0.3,0.1,0.4,0.1,0.5,0c0.1,0,0.2-0.1,0.1-0.1c-0.1,0-0.2-0.1-0.2-0.1c0,0,0.2,0,0.3,0
		C244.8,20.7,245,21.3,245,21.3z"/>
</g>
</svg>
